{"glyphs":{"0":{"ha":796,"x_min":56,"x_max":740,"o":"m 313 222 q 401 143 331 143 q 489 222 471 143 q 504 458 504 292 q 485 797 504 729 q 435 876 465 863 q 390 885 417 885 q 306 804 322 885 q 290 646 290 739 q 313 222 290 315 m 646 861 q 693 799 646 861 q 740 511 740 738 q 646 165 740 285 q 397 44 551 44 q 149 165 242 44 q 56 511 56 285 q 149 861 56 738 q 397 985 242 985 q 646 861 551 985 z "},"1":{"ha":511,"x_min":15,"x_max":497,"o":"m 496 142 q 497 114 497 133 q 490 63 497 94 l 15 63 q 15 94 15 72 q 24 142 15 117 q 125 166 90 149 q 160 224 160 183 l 160 785 l 24 763 q 22 790 22 772 q 29 822 22 808 q 331 993 197 928 l 375 975 l 375 169 q 496 142 421 149 z "},"2":{"ha":708,"x_min":69,"x_max":654,"o":"m 489 231 q 567 256 540 231 q 607 354 593 282 q 654 343 629 354 q 615 63 654 176 l 85 63 q 69 206 69 151 q 326 489 300 449 q 375 568 353 529 q 408 694 408 629 q 377 794 408 760 q 299 829 346 829 q 175 708 203 829 q 147 707 164 707 q 107 710 131 707 q 106 797 106 744 q 113 906 106 849 q 356 983 222 983 q 563 910 489 983 q 638 728 638 838 q 622 641 638 675 q 594 588 606 607 q 558 540 583 568 q 515 493 533 513 q 458 439 497 474 l 392 379 q 312 309 365 356 q 222 231 258 263 l 489 231 z "},"3":{"ha":672,"x_min":46,"x_max":621,"o":"m 231 449 l 231 535 q 343 592 306 547 q 381 698 381 638 q 352 794 381 758 q 278 829 324 829 q 197 798 233 829 q 147 708 160 767 q 119 707 136 707 q 79 710 103 707 q 78 797 78 744 q 85 906 78 849 q 357 983 210 983 q 536 922 463 983 q 610 771 610 860 q 567 649 610 708 q 443 547 524 590 q 621 317 621 481 q 530 124 621 203 q 306 44 439 44 q 46 151 172 44 q 101 232 68 211 q 275 179 178 179 q 374 213 336 179 q 411 309 411 247 q 364 410 411 371 q 231 449 317 449 z "},"4":{"ha":733,"x_min":32,"x_max":703,"o":"m 385 389 l 385 664 l 178 389 l 385 389 m 571 278 l 571 156 q 656 140 603 140 q 656 113 656 131 q 650 63 656 94 l 290 63 q 290 95 290 74 q 297 140 290 117 q 363 164 342 147 q 385 224 385 181 l 385 278 l 74 278 q 32 369 42 325 l 461 965 l 571 965 l 571 389 l 694 389 q 703 323 703 350 q 700 278 703 296 l 571 278 z "},"5":{"ha":674,"x_min":28,"x_max":618,"o":"m 218 596 q 389 632 299 632 q 549 563 479 632 q 618 375 618 494 q 522 137 618 229 q 282 44 425 44 q 28 151 139 44 q 83 232 53 207 q 257 179 160 179 q 365 224 322 179 q 407 342 407 268 q 369 459 407 417 q 270 501 331 501 q 125 451 210 501 l 96 465 l 144 951 l 433 951 q 551 1021 522 951 q 599 1010 574 1021 q 560 783 597 907 l 238 783 l 218 596 z "},"6":{"ha":726,"x_min":64,"x_max":692,"o":"m 303 212 q 319 184 303 212 q 381 156 336 156 q 458 205 425 156 q 490 324 490 254 q 446 456 490 410 q 343 501 401 501 q 276 490 307 501 q 269 407 269 443 q 303 212 269 268 m 692 366 q 692 302 692 366 q 599 142 692 239 q 378 44 506 44 q 163 133 250 44 q 64 403 64 232 q 122 644 64 522 q 285 859 181 767 q 515 1000 389 951 q 579 919 582 961 q 297 589 372 829 q 453 619 367 619 q 611 560 540 619 q 692 366 692 493 z "},"7":{"ha":626,"x_min":58,"x_max":606,"o":"m 311 63 q 253 60 289 60 q 160 74 217 60 l 392 636 l 465 783 l 228 783 q 151 757 178 783 q 111 660 125 731 q 58 672 79 660 q 71 951 58 860 l 561 951 q 606 818 597 889 l 311 63 z "},"8":{"ha":758,"x_min":56,"x_max":703,"o":"m 256 263 q 288 181 256 214 q 374 149 319 149 q 462 185 428 149 q 496 279 496 221 q 369 461 496 389 q 256 263 256 388 m 492 751 q 467 840 492 801 q 387 879 443 879 q 305 850 331 879 q 279 774 279 821 q 413 606 279 679 q 492 751 492 679 m 703 294 q 609 121 703 197 q 376 44 515 44 q 146 114 236 44 q 56 276 56 183 q 113 406 56 351 q 267 513 169 460 q 68 732 68 621 q 163 913 68 843 q 392 983 257 983 q 608 918 526 983 q 690 754 690 853 q 649 642 690 690 q 524 544 608 594 q 703 294 703 435 z "},"9":{"ha":692,"x_min":28,"x_max":658,"o":"m 382 529 q 450 540 417 529 q 453 607 453 572 q 447 708 453 642 q 408 824 440 774 q 332 875 376 875 q 259 828 288 875 q 231 718 231 781 q 277 576 231 622 q 382 529 324 529 m 550 283 q 228 31 422 107 q 161 111 161 69 q 431 442 365 201 q 276 411 363 411 q 115 471 189 411 q 28 669 28 542 q 116 891 28 796 q 332 986 204 986 q 550 897 460 986 q 658 612 658 792 q 550 283 658 432 z "},"\u0000":{"ha":0,"x_min":0,"x_max":0,"o":""},"\r":{"ha":347,"x_min":0,"x_max":0,"o":""}," ":{"ha":347,"x_min":0,"x_max":0,"o":""},"!":{"ha":608,"x_min":200,"x_max":410,"o":"m 225 967 l 392 904 l 358 331 l 346 331 l 249 381 l 211 967 l 225 967 m 410 140 q 410 118 410 140 q 378 66 410 97 q 305 35 347 35 q 231 66 263 35 q 200 140 200 97 q 231 213 200 182 q 305 244 263 244 q 378 213 347 244 q 410 140 410 182 z "},"\"":{"ha":581,"x_min":99,"x_max":482,"o":"m 99 1122 l 264 1122 l 221 799 l 143 799 l 99 1122 m 318 1122 l 482 1122 l 440 799 l 361 799 l 318 1122 z "},"#":{"ha":938,"x_min":44,"x_max":899,"o":"m 544 397 l 592 633 l 413 633 l 364 397 l 544 397 m 899 633 l 731 633 l 682 397 l 850 397 l 850 269 l 657 269 l 615 63 l 476 63 l 518 269 l 339 269 l 297 63 l 158 63 l 200 269 l 44 269 l 44 397 l 226 397 l 274 633 l 93 633 l 93 760 l 300 760 l 340 960 l 478 960 l 438 760 l 618 760 l 658 960 l 796 960 l 756 760 l 899 760 l 899 633 z "},"$":{"ha":618,"x_min":7,"x_max":590,"o":"m 460 685 q 392 742 435 718 q 309 767 350 767 q 241 749 268 767 q 214 697 214 732 q 226 656 214 668 q 246 638 238 644 q 272 622 254 631 q 304 608 290 614 q 416 560 346 589 q 538 478 486 532 q 590 340 590 425 q 523 155 590 224 q 360 72 456 86 l 360 -19 l 267 -19 l 267 72 q 7 171 132 85 l 110 329 q 203 248 142 286 q 323 210 265 210 q 408 235 381 210 q 435 297 435 261 q 413 355 435 332 q 369 388 392 378 q 294 418 347 399 q 205 456 242 438 q 131 506 168 475 q 56 669 56 564 q 121 836 56 774 q 279 910 186 899 l 279 1000 l 372 1000 l 372 907 q 557 821 469 892 l 460 685 z "},"%":{"ha":1115,"x_min":56,"x_max":1083,"o":"m 385 63 l 206 63 l 744 910 l 922 910 l 385 63 m 179 685 q 197 601 179 632 q 244 571 215 571 q 311 685 311 571 q 294 768 311 744 q 244 792 278 792 q 179 685 179 792 m 56 692 q 56 739 56 692 q 105 848 56 786 q 246 910 154 910 q 386 848 338 910 q 435 690 435 786 q 387 531 435 594 q 247 468 339 468 q 105 533 154 468 q 56 692 56 597 m 894 385 q 845 361 861 385 q 829 281 829 338 q 847 194 829 224 q 894 164 864 164 q 942 192 925 164 q 960 278 960 221 q 894 385 960 385 m 754 442 q 778 472 754 442 q 894 503 803 503 q 1035 441 986 503 q 1083 283 1083 379 q 1036 124 1083 188 q 897 61 989 61 q 755 126 804 61 q 706 285 706 190 q 754 442 706 381 z "},"&":{"ha":1019,"x_min":42,"x_max":985,"o":"m 221 353 q 221 326 221 353 q 278 264 221 300 q 402 228 336 228 q 525 263 468 228 q 297 460 389 369 q 221 353 221 406 m 365 857 q 299 797 299 857 q 383 628 299 731 q 472 760 472 700 q 442 828 472 800 q 365 857 411 857 m 332 44 q 130 112 218 44 q 42 274 42 179 q 93 408 42 349 q 235 526 144 467 q 142 706 142 635 q 227 903 142 822 q 410 983 313 983 q 577 930 507 983 q 647 794 647 876 q 586 675 647 735 q 447 560 531 619 q 639 389 518 486 q 735 608 685 465 l 985 608 l 932 435 l 757 435 q 710 332 729 369 q 943 160 817 250 l 815 49 q 619 190 760 88 q 332 44 503 44 z "},"'":{"ha":351,"x_min":90,"x_max":256,"o":"m 90 1122 l 256 1122 l 213 799 l 135 799 l 90 1122 z "},"(":{"ha":549,"x_min":108,"x_max":558,"o":"m 558 1201 q 359 899 425 1078 q 293 540 293 721 q 359 181 293 358 q 558 -121 425 3 l 471 -193 q 197 140 286 -50 q 108 540 108 331 q 197 940 108 749 q 471 1274 286 1131 l 558 1201 z "},")":{"ha":550,"x_min":-10,"x_max":442,"o":"m 79 1274 q 352 940 263 1131 q 442 540 442 749 q 352 140 442 331 q 79 -193 263 -50 l -10 -121 q 190 181 124 3 q 256 540 256 358 q 190 899 256 721 q -10 1201 124 1078 l 79 1274 z "},"*":{"ha":664,"x_min":72,"x_max":581,"o":"m 240 996 q 292 1006 265 1006 q 408 996 375 1006 l 372 813 l 535 901 q 566 824 551 881 q 581 736 581 767 l 393 726 l 531 604 q 468 546 515 579 q 392 507 421 513 l 326 667 l 263 510 q 184 550 232 517 q 124 608 136 583 l 256 726 l 72 736 q 86 826 72 771 q 117 901 100 882 l 276 815 l 240 996 z "},"+":{"ha":942,"x_min":104,"x_max":838,"o":"m 838 408 l 557 408 l 557 126 l 544 126 l 386 251 l 386 408 l 176 408 l 104 553 l 104 567 l 386 567 l 386 847 l 399 847 l 557 722 l 557 567 l 765 567 l 838 421 l 838 408 z "},",":{"ha":442,"x_min":110,"x_max":344,"o":"m 110 132 l 192 267 q 343 57 343 213 q 308 -107 344 -22 q 218 -250 271 -192 l 119 -204 q 203 -12 204 -94 q 110 121 201 69 l 110 132 z "},"-":{"ha":874,"x_min":104,"x_max":761,"o":"m 761 408 l 176 408 l 104 553 l 104 567 l 689 567 l 761 421 l 761 408 z "},".":{"ha":369,"x_min":65,"x_max":303,"o":"m 303 164 q 303 140 303 164 q 267 80 303 115 q 184 44 232 44 q 101 80 136 44 q 65 164 65 115 q 100 248 65 213 q 183 283 135 283 q 267 248 232 283 q 303 164 303 213 z "},"/":{"ha":636,"x_min":56,"x_max":532,"o":"m 361 1122 l 532 1122 l 226 -86 l 56 -86 l 361 1122 z "},":":{"ha":469,"x_min":115,"x_max":356,"o":"m 236 838 q 261 838 236 838 q 321 802 286 838 q 356 717 356 767 q 320 633 356 668 q 235 597 285 597 q 151 633 186 597 q 115 717 115 668 q 151 802 115 767 q 236 838 186 838 m 235 264 q 260 264 235 264 q 320 228 285 264 q 356 142 356 192 q 320 58 356 93 q 235 24 285 24 q 151 58 186 24 q 115 142 115 93 q 151 228 115 192 q 235 264 186 264 z "},";":{"ha":469,"x_min":115,"x_max":368,"o":"m 356 690 q 356 665 356 690 q 320 606 356 640 q 235 571 285 571 q 151 606 186 571 q 115 690 115 640 q 151 774 115 739 q 235 810 186 810 q 320 774 285 810 q 356 690 356 739 m 132 129 l 215 263 q 367 53 367 207 q 331 -110 368 -25 q 242 -254 294 -194 l 143 -208 q 227 -15 228 -94 q 132 117 226 65 l 132 129 z "},"<":{"ha":915,"x_min":115,"x_max":801,"o":"m 213 375 l 115 532 l 683 819 l 801 668 l 354 432 l 786 253 l 732 157 l 213 375 z "},"=":{"ha":925,"x_min":101,"x_max":838,"o":"m 838 565 l 174 565 l 101 710 l 101 725 l 767 725 l 838 579 l 838 565 m 838 253 l 174 253 l 101 397 l 101 413 l 767 413 l 838 267 l 838 253 z "},">":{"ha":972,"x_min":146,"x_max":832,"o":"m 736 603 l 832 446 l 264 157 l 146 308 l 593 544 l 161 724 l 215 819 l 736 603 z "},"?":{"ha":779,"x_min":124,"x_max":647,"o":"m 438 64 q 423 49 438 64 q 364 33 407 33 q 290 64 321 33 q 260 138 260 94 q 290 212 260 181 q 364 243 321 243 q 438 212 407 243 q 469 138 469 181 q 438 64 469 94 m 467 690 q 474 697 467 690 q 491 726 481 704 q 501 776 501 749 q 477 824 501 804 q 413 844 453 844 q 233 772 329 844 l 124 910 q 330 990 208 990 q 549 908 451 990 q 647 714 647 825 q 538 536 647 608 q 421 475 496 508 l 421 325 l 408 325 l 294 379 l 294 590 q 338 610 306 596 q 385 633 369 625 q 428 658 401 642 q 467 690 454 675 z "},"@":{"ha":1379,"x_min":83,"x_max":1296,"o":"m 750 210 l 750 367 q 656 333 692 365 q 621 258 621 300 q 637 196 621 217 q 688 175 653 175 q 750 210 724 175 m 963 486 l 963 271 q 1022 168 963 168 q 1092 200 1061 168 q 1149 429 1149 258 q 1035 719 1149 600 q 707 839 921 839 q 362 705 493 839 q 231 356 231 571 q 363 15 231 140 q 724 -110 496 -110 q 688 -221 722 -164 q 435 -174 550 -221 q 244 -47 319 -126 q 126 135 168 32 q 83 349 83 238 q 260 788 83 610 q 704 965 438 965 q 1133 806 971 965 q 1296 417 1296 647 q 1196 136 1296 228 q 953 44 1096 44 q 767 139 811 44 q 689 67 732 90 q 570 44 646 44 q 443 94 494 44 q 392 225 392 143 q 499 397 392 336 q 711 449 590 449 q 750 447 731 449 l 750 479 q 643 572 750 572 q 483 544 569 572 l 440 610 q 733 719 563 719 q 906 659 849 719 q 963 486 963 599 z "},"A":{"ha":906,"x_min":1,"x_max":906,"o":"m 297 469 l 494 469 l 393 811 l 383 763 l 297 469 m 471 63 q 475 142 471 113 q 582 176 542 157 l 524 374 l 268 374 l 206 160 q 318 142 238 142 q 313 63 318 100 l 1 63 q 1 91 1 71 q 6 142 1 111 q 69 175 47 154 q 104 233 90 196 l 342 964 q 565 983 426 981 l 801 229 q 838 161 818 179 q 906 142 858 143 q 900 63 906 118 l 471 63 z "},"B":{"ha":918,"x_min":56,"x_max":847,"o":"m 376 150 l 436 150 q 621 313 621 150 q 436 476 621 476 l 376 476 l 376 150 m 376 564 l 474 564 q 553 627 522 585 q 585 733 585 669 q 542 838 585 796 q 426 879 499 879 l 376 879 l 376 564 m 426 965 q 719 898 625 965 q 813 721 813 831 q 689 536 813 594 q 847 313 847 479 q 746 127 847 192 q 446 63 644 63 l 60 63 q 60 95 60 74 q 67 142 60 117 q 132 166 110 149 q 154 225 154 183 l 154 872 q 57 888 118 888 q 56 915 56 897 q 63 965 56 933 l 426 965 z "},"C":{"ha":872,"x_min":69,"x_max":840,"o":"m 504 44 q 198 166 326 44 q 69 506 69 288 q 208 855 69 725 q 554 985 347 985 q 822 935 735 985 q 790 671 817 813 q 719 672 724 671 q 672 814 715 760 q 536 868 628 868 q 376 780 444 868 q 307 523 307 692 q 383 271 307 354 q 583 188 458 188 q 792 247 707 188 l 840 192 q 692 85 782 126 q 504 44 601 44 z "},"D":{"ha":989,"x_min":56,"x_max":940,"o":"m 376 150 l 447 150 q 638 243 574 150 q 703 514 703 336 q 436 879 703 879 l 376 879 l 376 150 m 465 965 q 806 847 672 965 q 940 514 940 728 q 813 181 940 300 q 488 63 685 63 l 60 63 q 60 95 60 74 q 67 142 60 117 q 132 166 110 149 q 154 225 154 183 l 154 872 q 57 888 118 888 q 56 915 56 897 q 63 965 56 933 l 465 965 z "},"E":{"ha":831,"x_min":56,"x_max":783,"o":"m 672 267 l 679 333 l 679 338 q 722 339 694 339 q 776 332 750 339 q 783 172 783 240 q 782 63 783 104 l 58 63 q 58 94 58 72 q 67 142 58 117 q 132 166 110 149 q 154 225 154 183 l 154 872 q 56 888 119 888 q 56 916 56 896 q 63 965 56 936 l 772 965 q 772 866 772 936 q 764 707 772 796 q 671 704 731 704 q 649 832 661 807 q 563 879 628 879 l 376 879 l 376 558 l 560 578 l 621 578 l 621 456 l 560 456 l 376 468 l 376 150 l 564 150 q 642 181 615 150 q 661 222 653 193 q 672 267 669 250 z "},"F":{"ha":792,"x_min":56,"x_max":772,"o":"m 772 965 q 772 866 772 936 q 764 707 772 796 q 671 704 731 704 q 649 832 661 807 q 563 879 628 879 l 376 879 l 376 531 l 560 550 l 621 550 l 621 428 l 560 428 l 376 440 l 376 168 q 525 142 447 147 q 525 114 525 133 q 519 63 525 94 l 60 63 q 60 95 60 74 q 67 142 60 117 q 132 166 110 149 q 154 224 154 183 l 154 872 q 56 888 119 888 q 56 916 56 896 q 63 965 56 936 l 772 965 z "},"G":{"ha":993,"x_min":69,"x_max":972,"o":"m 972 518 q 972 485 972 508 q 965 431 972 463 q 889 397 906 414 q 872 346 872 379 l 872 63 l 753 63 l 724 100 q 511 44 622 44 q 198 170 326 44 q 69 509 69 296 q 217 853 69 722 q 564 985 364 985 q 888 936 732 985 q 854 681 881 817 q 831 681 847 681 q 783 682 815 681 q 707 818 764 769 q 563 867 650 867 q 378 776 449 867 q 307 513 307 686 q 374 250 307 339 q 558 161 440 161 q 681 189 621 161 l 681 415 q 558 431 635 431 q 564 518 558 483 l 972 518 z "},"H":{"ha":1074,"x_min":56,"x_max":1019,"o":"m 921 804 l 921 156 q 1018 142 953 142 q 1019 114 1019 133 q 1013 63 1019 94 l 603 63 q 603 95 603 74 q 610 142 603 117 q 676 166 654 149 q 697 225 697 183 l 697 457 l 376 457 l 376 156 q 474 142 408 142 q 475 114 475 133 q 468 63 475 94 l 58 63 q 58 94 58 72 q 67 142 58 117 q 132 166 110 149 q 154 225 154 183 l 154 872 q 56 888 119 888 q 56 916 56 896 q 63 965 56 936 l 471 965 q 471 933 471 954 q 464 888 471 911 q 399 863 421 881 q 376 804 376 846 l 376 564 l 697 564 l 697 872 q 600 888 663 888 q 600 915 600 897 q 606 965 600 933 l 1015 965 q 1015 933 1015 954 q 1008 888 1015 911 q 942 863 964 881 q 921 804 921 846 z "},"I":{"ha":531,"x_min":56,"x_max":475,"o":"m 376 804 l 376 156 q 474 142 408 142 q 475 114 475 133 q 468 63 475 94 l 58 63 q 58 94 58 72 q 67 142 58 117 q 132 166 110 149 q 154 225 154 183 l 154 872 q 56 888 119 888 q 56 916 56 896 q 63 965 56 936 l 471 965 q 471 933 471 954 q 464 888 471 911 q 399 863 421 881 q 376 804 376 846 z "},"J":{"ha":522,"x_min":-29,"x_max":471,"o":"m 471 965 q 471 933 471 954 q 464 888 471 911 q 399 863 421 881 q 376 804 376 846 l 376 174 q 282 -85 376 15 q 33 -229 188 -185 q -29 -165 -3 -203 q 117 -32 79 -104 q 154 174 154 40 l 154 872 q 56 888 119 888 q 56 916 56 896 q 63 965 56 936 l 471 965 z "},"K":{"ha":1100,"x_min":56,"x_max":983,"o":"m 982 142 q 983 113 983 132 q 975 63 983 94 l 681 63 l 453 417 q 418 447 436 443 l 376 408 l 376 156 q 474 142 408 142 q 475 114 475 133 q 468 63 475 94 l 58 63 q 58 94 58 72 q 67 142 58 117 q 132 166 110 149 q 154 225 154 183 l 154 872 q 56 888 119 888 q 56 916 56 896 q 63 965 56 936 l 471 965 q 471 933 471 954 q 464 888 471 911 q 399 863 421 881 q 376 804 376 846 l 376 532 l 731 872 q 636 889 699 889 q 632 922 632 903 q 642 965 632 942 l 979 965 q 975 889 979 913 q 815 821 889 889 l 576 596 q 668 508 622 578 l 849 228 q 907 160 881 176 q 982 142 933 144 z "},"L":{"ha":796,"x_min":56,"x_max":771,"o":"m 376 149 l 575 149 q 641 173 618 149 q 669 219 664 197 q 677 278 674 240 q 682 324 681 315 q 761 319 711 324 q 771 149 771 208 q 769 63 771 89 l 60 63 q 60 95 60 74 q 67 142 60 117 q 132 166 110 149 q 154 225 154 183 l 154 872 q 57 888 122 888 q 56 915 56 897 q 63 965 56 933 l 471 965 q 472 935 472 954 q 464 888 472 915 q 399 863 421 881 q 376 804 376 846 l 376 149 z "},"M":{"ha":1285,"x_min":42,"x_max":1244,"o":"m 1242 142 q 1244 101 1244 122 q 1243 63 1244 81 l 793 63 q 790 105 790 85 q 792 142 790 125 q 893 182 872 156 q 908 225 908 200 l 908 799 l 619 63 l 560 63 l 301 796 l 265 151 q 368 142 299 142 q 358 63 365 97 l 42 63 q 50 142 44 121 q 93 152 78 147 q 124 176 108 157 q 142 224 140 194 l 169 874 q 86 889 128 889 q 86 912 86 893 q 96 965 86 931 l 458 965 l 631 447 l 833 965 l 1188 965 q 1190 926 1190 946 q 1189 889 1190 907 q 1110 844 1121 876 q 1106 807 1104 829 l 1133 150 q 1242 142 1168 142 z "},"N":{"ha":1072,"x_min":67,"x_max":996,"o":"m 996 965 q 996 933 996 954 q 989 888 996 911 q 924 863 946 881 q 901 804 901 846 l 901 63 l 807 63 l 383 599 l 290 732 l 290 156 q 388 142 322 142 q 389 114 389 133 q 382 63 389 94 l 75 63 q 75 95 75 74 q 82 142 75 117 q 147 166 125 149 q 169 225 169 183 l 169 881 q 67 889 139 889 q 76 965 69 939 l 376 965 l 706 549 l 781 439 l 781 872 q 683 888 746 888 q 683 915 683 897 q 689 965 683 933 l 996 965 z "},"O":{"ha":989,"x_min":69,"x_max":921,"o":"m 611 806 q 590 851 611 806 q 488 896 568 896 q 372 808 407 896 q 336 526 336 721 q 377 220 336 308 q 499 132 418 132 q 617 217 579 132 q 654 499 654 301 q 611 806 654 715 m 801 172 q 741 108 801 172 q 493 43 681 43 q 188 172 306 43 q 69 511 69 300 q 188 853 69 722 q 493 985 306 985 q 801 853 681 985 q 921 512 921 722 q 801 172 921 301 z "},"P":{"ha":849,"x_min":56,"x_max":839,"o":"m 376 518 l 426 518 q 556 565 510 518 q 601 699 601 613 q 556 831 601 785 q 426 878 511 878 l 376 878 l 376 518 m 465 432 l 376 432 l 376 168 q 497 142 425 147 q 497 113 497 133 q 490 63 497 93 l 60 63 q 60 95 60 74 q 67 142 60 117 q 132 166 110 149 q 154 225 154 183 l 154 872 q 57 888 118 888 q 56 915 56 897 q 63 965 56 933 l 464 965 q 733 891 628 965 q 839 697 839 817 q 734 505 839 578 q 465 432 629 432 z "},"Q":{"ha":989,"x_min":69,"x_max":1007,"o":"m 367 252 q 375 225 367 252 q 416 170 383 197 q 498 143 449 143 q 581 169 547 143 q 654 479 654 232 q 569 858 654 792 q 487 885 536 885 q 406 858 438 885 q 335 571 335 797 q 336 483 335 543 q 344 365 338 424 q 367 252 350 307 m 1006 49 q 1007 5 1007 31 q 1001 -63 1007 -21 q 976 -153 996 -106 q 918 -232 957 -201 q 824 -262 879 -262 q 715 -234 769 -262 q 622 -171 660 -206 q 447 -79 524 -79 q 357 -165 369 -79 l 321 -165 q 297 -67 297 -118 q 319 9 297 -17 q 385 56 340 35 q 155 213 240 92 q 69 511 69 333 q 188 853 69 722 q 493 985 306 985 q 801 853 681 985 q 921 519 921 722 q 808 178 921 315 q 526 22 696 42 q 673 -22 574 14 q 830 -58 772 -58 q 925 -28 888 -58 q 969 53 963 3 l 1006 49 z "},"R":{"ha":975,"x_min":56,"x_max":933,"o":"m 376 560 l 456 560 q 563 599 524 560 q 603 719 603 639 q 563 839 603 800 q 456 878 524 878 l 376 878 l 376 560 m 933 150 q 925 63 933 104 l 654 63 l 482 428 q 421 474 461 474 l 376 474 l 376 167 q 496 142 429 147 q 497 117 497 135 q 490 63 497 100 l 58 63 q 58 94 58 72 q 67 142 58 117 q 132 166 110 149 q 154 225 154 183 l 154 872 q 56 888 119 888 q 56 916 56 896 q 63 965 56 936 l 493 965 q 747 901 654 965 q 839 719 839 836 q 791 580 839 638 q 654 494 743 522 q 733 400 699 468 l 814 239 q 866 168 840 186 q 933 150 892 150 z "},"S":{"ha":761,"x_min":89,"x_max":701,"o":"m 701 318 q 603 117 701 192 q 371 43 506 43 q 92 86 276 43 q 90 183 90 117 q 103 369 90 250 q 196 361 143 369 q 196 349 196 356 q 378 146 196 146 q 472 172 438 146 q 506 245 506 197 q 475 331 506 293 q 398 392 444 368 q 297 446 351 415 q 197 509 243 476 q 119 599 150 542 q 89 731 89 656 q 177 918 89 851 q 390 985 265 985 q 654 944 515 985 q 635 701 654 840 q 563 706 597 701 q 404 888 538 888 q 311 861 349 888 q 274 789 274 835 q 306 706 274 743 q 385 647 338 669 q 488 594 432 624 q 590 533 543 564 q 669 446 638 501 q 701 318 701 390 z "},"T":{"ha":819,"x_min":13,"x_max":806,"o":"m 797 965 q 806 838 806 900 q 803 725 806 775 q 761 717 782 717 q 728 718 740 717 q 692 843 721 808 q 607 878 664 878 l 521 878 l 521 156 q 617 142 558 142 q 617 114 617 133 q 611 63 617 94 l 206 63 q 206 94 206 72 q 214 142 206 117 q 277 166 256 149 q 299 225 299 183 l 299 878 l 213 878 q 127 843 156 878 q 92 718 99 808 q 59 717 79 717 q 15 725 39 717 q 13 831 13 769 q 22 965 13 893 l 797 965 z "},"U":{"ha":1013,"x_min":28,"x_max":988,"o":"m 988 965 q 988 933 988 954 q 981 888 988 911 q 915 863 936 881 q 893 804 893 846 l 893 343 q 790 117 893 189 q 508 44 688 44 q 228 117 329 44 q 126 343 126 189 l 126 872 q 29 888 92 888 q 28 913 28 896 q 35 965 28 931 l 443 965 q 443 933 443 954 q 436 888 443 911 q 371 863 393 881 q 349 804 349 846 l 349 343 q 390 193 349 238 q 508 149 432 149 q 669 343 669 149 l 669 872 q 572 888 635 888 q 572 915 572 897 q 578 965 572 933 l 988 965 z "},"V":{"ha":944,"x_min":-6,"x_max":951,"o":"m 1 889 q -6 940 -6 922 q -6 965 -6 958 l 431 965 q 436 924 436 946 q 435 889 436 903 q 333 829 333 881 q 343 790 333 813 l 513 401 q 540 310 529 363 l 546 310 l 772 868 q 665 889 717 888 q 669 965 665 947 l 951 965 q 938 889 947 928 q 844 807 874 875 l 519 54 l 432 54 l 76 875 q 1 889 47 888 z "},"W":{"ha":1372,"x_min":7,"x_max":1365,"o":"m 1365 965 q 1365 940 1365 958 q 1361 889 1365 921 q 1306 864 1326 882 q 1272 807 1285 846 l 1010 54 l 922 54 l 704 613 l 456 54 l 368 54 l 88 876 q 13 889 56 886 q 7 938 7 919 q 8 965 7 956 l 451 965 q 461 889 461 925 q 374 865 392 883 q 357 828 357 847 q 364 790 357 810 l 482 443 q 499 361 494 410 l 503 361 l 750 924 l 838 924 l 1008 454 q 1029 361 1028 401 l 1033 361 l 1199 872 q 1117 889 1146 888 q 1126 965 1119 931 l 1365 965 z "},"X":{"ha":893,"x_min":4,"x_max":888,"o":"m 882 142 q 888 97 888 117 q 886 63 888 76 l 500 63 q 494 142 494 82 q 547 174 547 151 q 542 190 547 181 l 394 403 l 214 149 q 283 142 239 144 q 290 92 290 111 q 289 63 290 74 l 18 63 q 18 90 18 68 q 31 142 18 111 q 36 142 33 142 q 144 204 97 142 l 343 478 l 67 878 q 10 889 40 886 q 4 935 4 917 q 7 965 4 954 l 393 965 q 399 889 399 943 q 349 867 360 883 q 351 838 338 851 l 501 619 l 688 879 q 617 888 650 886 q 611 934 611 914 q 611 965 611 954 l 883 965 q 869 888 883 919 q 756 825 801 888 l 554 543 l 822 153 q 882 142 843 144 z "},"Y":{"ha":938,"x_min":7,"x_max":929,"o":"m 700 142 q 694 63 700 97 l 246 63 q 246 91 246 71 q 250 142 246 111 q 297 152 281 147 q 330 176 313 157 q 347 225 347 194 l 347 450 l 90 879 q 38 889 57 889 q 14 889 18 889 q 7 965 7 935 l 453 965 q 463 889 463 919 q 371 833 371 881 q 385 790 371 814 l 528 528 l 533 528 q 588 649 549 583 l 719 878 q 647 889 692 888 q 657 965 650 931 l 929 965 q 918 889 926 925 q 833 847 857 881 q 806 807 824 835 l 592 450 l 592 151 q 700 142 624 142 z "},"Z":{"ha":790,"x_min":63,"x_max":736,"o":"m 567 174 q 644 199 618 174 q 683 297 671 225 q 736 285 714 297 q 725 63 736 147 l 76 63 q 63 129 63 101 q 63 161 63 157 l 468 856 l 235 856 q 158 829 185 856 q 117 731 132 803 q 64 742 90 731 q 76 965 64 872 l 713 965 q 726 900 726 928 q 726 867 726 872 l 321 174 l 567 174 z "},"[":{"ha":503,"x_min":110,"x_max":575,"o":"m 294 1065 l 294 -11 l 467 -11 l 575 -172 l 249 -172 l 110 -11 l 110 1228 l 467 1228 l 575 1065 l 294 1065 z "},"\\":{"ha":618,"x_min":56,"x_max":532,"o":"m 56 1122 l 228 1122 l 532 -86 l 363 -86 l 56 1122 z "},"]":{"ha":449,"x_min":-75,"x_max":390,"o":"m 206 -11 l 206 1065 l 32 1065 l -75 1228 l 251 1228 l 390 1065 l 390 -171 l 32 -171 l -75 -11 l 206 -11 z "},"^":{"ha":739,"x_min":69,"x_max":682,"o":"m 315 915 q 376 921 346 921 q 436 915 406 921 l 682 374 q 557 340 635 349 l 369 740 l 183 340 q 69 374 124 344 l 315 915 z "},"_":{"ha":874,"x_min":104,"x_max":761,"o":"m 761 125 l 176 125 l 104 269 l 104 283 l 689 283 l 761 138 l 761 125 z "},"`":{"ha":308,"x_min":14,"x_max":294,"o":"m 161 1064 l 294 807 l 239 774 l 14 967 l 14 996 q 82 1042 38 1019 q 161 1064 126 1064 z "},"a":{"ha":708,"x_min":33,"x_max":718,"o":"m 263 243 q 278 194 263 213 q 328 175 294 175 q 390 208 363 175 l 390 361 l 351 349 q 263 243 263 321 m 718 133 q 645 67 681 89 q 557 44 610 44 q 459 66 504 44 q 397 125 414 88 q 237 44 333 44 q 87 95 140 44 q 33 225 33 146 q 228 408 33 369 l 390 440 l 390 482 q 285 572 390 572 q 125 544 208 572 l 81 610 q 374 721 204 721 q 547 660 489 721 q 604 486 604 599 l 604 240 q 647 172 604 172 q 699 181 654 172 l 718 133 z "},"b":{"ha":783,"x_min":-8,"x_max":751,"o":"m 300 161 q 390 142 338 142 q 482 202 443 142 q 521 386 521 263 q 486 556 521 510 q 410 603 451 603 q 338 574 368 603 q 300 492 308 544 l 300 161 m 300 633 q 475 721 360 721 q 671 632 590 721 q 751 388 751 543 q 644 140 751 232 q 379 47 536 47 q 188 113 271 47 q 92 49 146 69 l 60 81 q 85 236 85 150 l 85 931 q 44 933 69 933 q -8 932 18 933 q 6 1010 -6 983 q 300 1063 139 1057 l 300 633 z "},"c":{"ha":622,"x_min":33,"x_max":613,"o":"m 339 44 q 127 128 221 44 q 33 370 33 213 q 140 624 33 528 q 397 721 246 721 q 579 682 489 721 q 557 481 578 608 q 506 488 531 481 q 468 583 499 549 q 393 618 438 618 q 263 397 263 618 q 403 175 263 175 q 581 215 478 175 l 613 165 q 487 78 560 111 q 339 44 414 44 z "},"d":{"ha":822,"x_min":33,"x_max":794,"o":"m 404 611 q 295 564 328 611 q 263 389 263 517 q 386 175 263 175 q 465 196 431 175 l 465 606 q 404 611 439 611 m 633 44 q 485 113 533 44 q 303 47 403 47 q 119 130 204 47 q 33 372 33 213 q 147 626 33 531 q 444 721 261 721 l 465 721 l 465 931 q 424 933 450 933 q 372 932 399 933 q 385 1010 375 982 q 681 1063 521 1057 l 681 240 q 722 172 681 172 q 774 181 729 172 l 794 133 q 750 88 768 104 q 633 44 703 44 z "},"e":{"ha":693,"x_min":33,"x_max":653,"o":"m 375 618 q 267 467 288 618 l 375 475 l 438 478 q 375 618 436 618 m 263 392 l 263 389 q 424 174 263 174 q 617 215 508 174 l 649 165 q 363 44 531 44 q 146 122 247 44 q 65 224 96 160 q 33 367 33 288 q 138 624 33 528 q 392 721 242 721 q 567 665 492 721 q 653 449 653 603 q 625 392 642 415 l 263 392 z "},"f":{"ha":510,"x_min":35,"x_max":583,"o":"m 129 768 q 206 978 129 901 q 408 1056 283 1056 q 501 1038 453 1056 q 583 993 550 1019 q 554 838 579 919 q 482 846 513 838 q 483 881 483 858 q 467 930 483 904 q 415 956 451 956 q 344 847 344 956 l 344 701 q 510 715 435 704 q 496 603 510 646 l 344 603 l 344 167 q 464 142 397 147 q 464 114 464 133 q 458 63 464 94 l 35 63 q 35 95 35 74 q 42 142 35 117 q 107 166 85 149 q 129 224 129 183 l 129 594 q 51 600 96 600 q 50 631 50 613 q 54 669 50 649 q 129 697 92 689 l 129 768 z "},"g":{"ha":744,"x_min":29,"x_max":768,"o":"m 294 524 q 371 357 294 357 q 436 503 438 357 q 360 647 432 647 q 294 524 294 647 m 521 36 l 257 36 q 210 39 240 36 q 186 -31 186 7 q 369 -122 186 -122 q 527 -90 471 -122 q 583 -17 583 -58 q 521 36 583 36 m 257 201 l 532 201 q 715 53 715 201 q 597 -183 715 -79 q 301 -287 478 -287 q 105 -237 181 -287 q 29 -92 29 -186 q 136 63 29 3 q 71 183 71 101 q 99 269 71 232 q 174 328 126 307 q 65 497 65 389 q 150 663 65 604 q 358 721 235 721 q 558 675 481 721 q 765 742 636 742 q 768 706 768 731 q 761 632 768 682 l 626 615 q 663 503 663 568 q 578 342 663 401 q 365 282 494 282 q 240 299 297 282 q 203 246 203 279 q 218 214 203 226 q 257 201 233 201 z "},"h":{"ha":903,"x_min":35,"x_max":868,"o":"m 775 501 l 775 157 q 868 142 832 142 q 868 113 868 133 q 861 63 868 93 l 485 63 q 483 93 483 74 q 490 142 483 113 q 543 165 526 149 q 560 224 560 182 l 560 474 q 535 555 560 528 q 469 582 510 582 q 344 457 389 582 l 344 156 q 422 142 378 142 q 422 114 422 133 q 417 63 422 94 l 35 63 q 35 95 35 74 q 42 142 35 117 q 107 166 85 149 q 129 224 129 183 l 129 931 q 89 933 114 933 q 36 932 64 933 q 49 1010 39 982 q 344 1063 182 1057 l 344 596 q 560 721 414 721 q 716 663 657 721 q 775 501 775 604 z "},"i":{"ha":472,"x_min":35,"x_max":422,"o":"m 357 891 q 357 866 357 891 q 322 805 357 840 q 237 769 288 769 q 150 805 186 769 q 114 891 114 840 q 150 977 114 942 q 237 1013 186 1013 q 322 977 288 1013 q 357 891 357 942 m 422 142 q 422 114 422 133 q 417 63 422 94 l 35 63 q 35 95 35 74 q 42 142 35 117 q 107 166 85 149 q 129 224 129 183 l 129 583 q 84 586 108 586 q 36 585 60 586 q 49 663 39 633 q 344 715 183 708 l 344 156 q 422 142 378 142 z "},"j":{"ha":440,"x_min":-6,"x_max":357,"o":"m 357 891 q 357 866 357 891 q 322 805 357 840 q 237 769 288 769 q 150 805 186 769 q 114 891 114 840 q 150 977 114 942 q 237 1013 186 1013 q 322 977 288 1013 q 357 891 357 942 m 129 81 l 129 583 q 84 586 108 586 q 36 585 60 586 q 49 663 39 633 q 344 715 183 708 l 344 110 q 266 -125 344 -25 q 44 -281 188 -225 l -6 -212 q 97 -99 65 -160 q 129 81 129 -39 z "},"k":{"ha":878,"x_min":35,"x_max":856,"o":"m 854 142 q 856 113 856 132 q 847 63 856 94 l 582 63 l 428 303 q 408 326 418 319 l 344 263 l 344 156 q 422 142 378 142 q 422 114 422 133 q 417 63 422 94 l 35 63 q 35 95 35 74 q 42 142 35 117 q 107 166 85 149 q 129 224 129 183 l 129 931 q 89 933 114 933 q 36 932 64 933 q 49 1010 39 982 q 344 1063 182 1057 l 344 389 l 565 610 q 465 640 504 622 q 474 704 465 679 l 806 704 q 801 628 806 651 q 642 560 710 628 l 543 461 q 626 378 588 440 l 721 228 q 779 160 753 176 q 854 142 806 144 z "},"l":{"ha":472,"x_min":35,"x_max":422,"o":"m 422 142 q 422 114 422 133 q 417 63 422 94 l 35 63 q 35 95 35 74 q 42 142 35 117 q 107 166 85 149 q 129 224 129 183 l 129 931 q 89 933 114 933 q 36 932 64 933 q 49 1010 39 982 q 344 1063 182 1057 l 344 156 q 422 142 378 142 z "},"m":{"ha":1335,"x_min":35,"x_max":1299,"o":"m 1207 501 l 1207 157 q 1299 142 1263 142 q 1299 113 1299 133 q 1292 63 1299 93 l 915 63 q 914 93 914 74 q 921 142 914 113 q 974 165 957 149 q 990 224 990 182 l 990 474 q 901 582 990 582 q 775 457 822 582 l 775 156 q 854 142 808 142 q 854 113 854 133 q 847 63 854 93 l 485 63 q 483 93 483 74 q 490 142 483 113 q 543 165 526 149 q 560 224 560 182 l 560 474 q 535 555 560 528 q 469 582 510 582 q 344 457 389 582 l 344 156 q 422 142 378 142 q 422 114 422 133 q 417 63 422 94 l 35 63 q 35 95 35 74 q 42 142 35 117 q 107 166 85 149 q 129 224 129 183 l 129 582 q 84 585 108 585 q 36 583 60 585 q 49 660 39 632 q 325 714 175 706 q 342 589 338 646 q 560 721 408 721 q 691 683 636 721 q 765 576 746 646 q 990 721 832 721 q 1147 663 1088 721 q 1207 501 1207 604 z "},"n":{"ha":889,"x_min":35,"x_max":868,"o":"m 775 501 l 775 157 q 868 142 832 142 q 868 113 868 133 q 861 63 868 93 l 485 63 q 483 93 483 74 q 490 142 483 113 q 543 165 526 149 q 560 224 560 182 l 560 474 q 535 555 560 528 q 469 582 510 582 q 344 457 389 582 l 344 156 q 422 142 378 142 q 422 114 422 133 q 417 63 422 94 l 35 63 q 35 95 35 74 q 42 142 35 117 q 107 166 85 149 q 129 224 129 183 l 129 582 q 84 585 108 585 q 36 583 60 585 q 49 660 39 632 q 325 714 175 706 q 342 589 338 646 q 560 721 408 721 q 716 663 657 721 q 775 501 775 604 z "},"o":{"ha":765,"x_min":33,"x_max":732,"o":"m 501 350 q 375 625 501 625 q 263 414 263 625 q 263 383 263 399 q 392 143 272 143 q 477 197 453 143 q 501 350 501 250 m 383 721 q 461 721 383 721 q 635 635 539 721 q 732 384 732 550 q 635 133 732 218 q 382 47 538 47 q 130 133 226 47 q 33 384 33 218 q 131 635 33 550 q 383 721 228 721 z "},"p":{"ha":822,"x_min":28,"x_max":789,"o":"m 339 161 q 429 142 376 142 q 521 202 482 142 q 560 386 560 263 q 525 556 560 510 q 449 603 490 603 q 378 567 408 603 q 339 476 347 531 l 339 161 m 122 -108 l 122 582 q 76 585 100 585 q 31 583 53 585 q 43 660 33 632 q 314 714 169 706 q 331 622 325 667 q 512 721 396 721 q 708 632 628 721 q 789 389 789 543 q 678 141 789 235 q 410 47 567 47 q 339 57 369 47 l 339 -161 q 463 -190 392 -187 q 464 -219 464 -200 q 457 -269 464 -237 l 28 -269 q 28 -237 28 -260 q 36 -190 28 -215 q 101 -167 79 -183 q 122 -108 122 -150 z "},"q":{"ha":782,"x_min":33,"x_max":775,"o":"m 465 592 q 388 611 438 611 q 301 560 339 611 q 263 389 263 510 q 386 175 263 175 q 465 196 431 175 l 465 592 m 681 726 l 681 -174 q 775 -190 735 -189 q 775 -219 775 -200 q 769 -269 775 -237 l 342 -269 q 342 -237 342 -258 q 349 -190 342 -215 q 442 -168 418 -183 q 465 -108 465 -153 l 465 97 q 311 47 393 47 q 119 130 204 47 q 33 371 33 213 q 144 625 33 529 q 421 721 254 721 q 582 675 506 721 q 643 726 611 704 l 681 726 z "},"r":{"ha":579,"x_min":35,"x_max":594,"o":"m 588 721 q 594 644 594 697 q 579 522 594 592 q 344 378 367 522 l 344 167 q 464 142 394 147 q 464 114 464 133 q 458 63 464 94 l 35 63 q 35 95 35 74 q 42 142 35 117 q 107 166 85 149 q 129 224 129 183 l 129 582 q 84 585 108 585 q 36 583 60 585 q 49 660 39 632 q 325 714 175 706 q 344 519 342 618 q 442 665 378 608 q 588 721 507 721 z "},"s":{"ha":585,"x_min":54,"x_max":554,"o":"m 251 142 q 272 142 251 142 q 319 162 293 142 q 344 215 344 182 q 301 280 344 247 q 206 337 258 313 q 111 410 154 361 q 68 522 68 458 q 138 671 68 621 q 335 721 208 721 q 506 692 415 721 q 506 625 506 672 q 497 508 506 578 q 429 515 461 508 q 432 547 432 532 q 342 633 432 633 q 288 616 310 633 q 267 565 267 599 q 312 501 267 531 q 410 449 357 471 q 509 378 464 428 q 554 257 554 328 q 473 105 554 165 q 268 44 392 44 q 56 71 144 44 q 54 148 54 100 q 61 268 54 196 q 133 263 89 268 q 133 238 133 258 q 144 192 133 217 q 178 156 154 167 q 251 142 210 142 z "},"t":{"ha":535,"x_min":25,"x_max":513,"o":"m 303 47 q 165 99 217 47 q 113 253 113 151 l 113 594 q 26 600 75 600 q 25 631 25 613 q 29 669 25 649 q 111 697 58 683 l 283 918 l 328 906 l 328 701 q 492 715 417 704 q 478 603 492 646 l 328 603 l 329 257 q 342 203 329 218 q 391 188 356 188 q 475 221 426 188 l 513 174 q 303 47 422 47 z "},"u":{"ha":875,"x_min":14,"x_max":821,"o":"m 739 569 l 739 190 q 818 181 781 181 q 821 139 821 158 q 821 108 821 119 q 544 56 700 58 q 528 178 532 122 q 308 47 457 47 q 152 106 211 47 q 93 267 93 164 l 93 590 q 51 592 72 592 q 14 592 31 592 q 26 668 17 640 q 308 721 164 715 l 308 294 q 333 214 308 240 q 399 188 358 188 q 524 313 479 188 l 524 521 q 508 600 524 574 q 454 639 493 626 q 471 689 460 669 q 663 724 563 724 q 744 718 703 724 q 739 569 739 668 z "},"v":{"ha":753,"x_min":-14,"x_max":790,"o":"m -7 626 q -14 674 -14 656 q -12 703 -14 692 l 369 703 q 375 626 375 682 q 297 619 324 626 l 431 171 q 468 306 439 219 l 546 536 q 554 578 554 563 q 550 600 554 593 q 496 626 539 619 q 488 674 488 654 q 489 703 488 693 l 789 703 q 772 626 790 664 q 692 611 726 626 l 467 54 l 282 54 l 89 543 q 56 599 76 582 q -7 626 36 617 z "},"w":{"ha":1065,"x_min":18,"x_max":1060,"o":"m 1057 703 q 1060 676 1060 693 q 1049 628 1060 658 q 997 621 1015 625 l 769 54 l 682 54 l 536 406 l 376 54 l 289 54 l 78 617 q 24 628 54 628 q 18 672 18 654 q 21 703 18 690 l 372 703 q 379 628 379 676 q 322 608 332 624 q 317 588 317 600 q 324 558 317 576 l 388 358 q 401 300 397 332 l 406 300 l 557 675 l 644 675 l 763 358 q 776 301 771 336 l 779 301 l 869 565 q 875 594 875 582 q 866 617 875 606 q 815 628 857 628 q 815 658 815 638 q 822 703 815 678 l 1057 703 z "},"x":{"ha":733,"x_min":-22,"x_max":754,"o":"m 747 142 q 754 92 754 111 q 753 63 754 74 l 360 63 q 354 142 354 86 q 429 146 411 142 l 303 303 l 174 149 q 240 142 196 144 q 247 94 247 114 q 246 63 247 74 l -22 63 q -7 142 -19 110 q 106 203 50 142 l 247 371 l 92 563 q 65 594 75 585 q -15 626 33 626 q -22 673 -22 653 q -22 703 -22 693 l 372 703 q 378 626 378 682 q 303 621 328 626 l 425 471 l 550 618 q 486 626 517 625 q 479 674 479 656 q 481 703 479 692 l 747 703 q 747 675 747 696 q 733 626 747 654 q 622 564 676 626 l 481 403 l 625 224 q 644 200 633 213 l 661 179 q 672 168 668 171 q 683 160 676 165 q 696 152 690 154 q 710 147 701 150 q 747 142 726 142 z "},"y":{"ha":753,"x_min":-14,"x_max":774,"o":"m 161 -269 l 131 -269 q 111 -151 111 -200 q 114 -75 111 -101 l 160 -75 q 256 -59 221 -75 q 317 -3 290 -43 l 89 543 q 55 600 74 582 q -7 626 36 618 q -14 674 -14 656 q -12 703 -14 692 l 369 703 q 375 626 375 682 q 297 619 322 626 l 418 199 q 447 296 428 247 l 546 536 q 556 577 556 563 q 551 600 556 592 q 496 626 540 619 q 489 674 489 656 q 490 703 489 692 l 772 703 q 756 626 774 664 q 693 614 726 625 l 378 -68 q 161 -269 286 -269 z "},"z":{"ha":668,"x_min":43,"x_max":597,"o":"m 588 703 q 597 638 597 668 q 593 583 597 608 l 281 149 l 421 149 q 499 174 472 149 q 540 272 525 200 q 592 261 565 272 q 592 207 592 253 q 579 63 592 161 l 54 63 q 43 128 43 97 q 47 183 43 158 l 364 618 l 228 618 q 151 592 178 618 q 111 494 125 565 q 58 507 79 494 q 71 703 58 611 l 588 703 z "},"{":{"ha":778,"x_min":122,"x_max":696,"o":"m 419 864 l 425 733 q 394 607 425 653 q 297 542 363 561 q 394 475 363 521 q 425 349 425 429 l 419 219 q 443 71 419 103 q 514 14 475 26 q 696 -14 600 -11 l 696 -121 q 613 -122 664 -122 q 494 -111 563 -122 q 376 -74 425 -100 q 299 -6 328 -49 q 261 84 271 38 q 251 194 251 131 l 258 314 q 256 385 258 361 q 240 435 253 410 q 199 471 228 460 q 122 486 171 482 l 122 597 q 240 647 218 603 q 256 697 253 672 q 258 768 258 721 l 251 889 q 269 1024 251 968 q 469 1189 310 1156 q 598 1203 536 1203 q 696 1201 660 1203 l 696 1096 q 504 1061 558 1090 q 456 1030 474 1046 q 431 983 439 1014 q 419 864 419 936 z "},"|":{"ha":421,"x_min":118,"x_max":289,"o":"m 118 1122 l 289 1122 l 289 -86 l 118 -86 l 118 1122 z "},"}":{"ha":776,"x_min":82,"x_max":656,"o":"m 358 219 l 353 349 q 383 475 353 429 q 479 542 414 521 q 353 733 353 578 l 358 864 q 319 1031 358 994 q 210 1083 274 1072 q 82 1096 147 1093 l 82 1201 q 180 1203 118 1203 q 320 1186 242 1203 q 444 1124 399 1169 q 507 1024 490 1078 q 524 889 524 969 l 518 768 q 521 697 518 721 q 537 647 524 672 q 578 611 550 622 q 656 597 607 600 l 656 486 q 541 442 564 479 q 518 314 518 406 l 524 194 q 507 59 524 114 q 444 -42 490 4 q 150 -122 365 -122 q 82 -121 118 -122 l 82 -14 q 272 19 218 -8 q 320 53 303 36 q 346 100 338 69 q 358 219 358 144 z "},"~":{"ha":825,"x_min":69,"x_max":756,"o":"m 289 590 q 432 537 340 590 q 574 483 524 483 q 654 509 625 483 q 693 597 683 535 l 756 597 q 688 380 749 453 q 539 307 628 307 q 396 360 494 307 q 248 414 297 414 q 169 388 199 414 q 129 300 139 363 l 69 300 q 138 517 76 444 q 289 590 199 590 z "},"¡":{"ha":608,"x_min":200,"x_max":410,"o":"m 200 799 q 200 820 200 799 q 231 873 200 842 q 305 904 263 904 q 378 873 347 904 q 410 799 410 842 q 378 726 410 757 q 305 694 347 694 q 231 726 263 694 q 200 799 200 757 m 392 35 l 225 -28 l 211 -28 l 249 558 l 346 608 l 358 608 l 392 35 z "},"¢":{"ha":699,"x_min":78,"x_max":649,"o":"m 460 21 l 367 21 l 367 111 q 162 197 246 124 q 78 408 78 269 q 162 640 78 547 q 367 740 246 733 l 367 829 l 460 829 l 460 738 q 638 668 565 721 l 561 542 q 490 596 525 582 q 395 610 456 610 q 290 561 335 610 q 244 426 244 513 q 305 283 244 340 q 452 226 365 226 q 607 288 539 226 l 649 254 q 574 166 624 207 q 460 113 524 125 l 460 21 z "},"£":{"ha":793,"x_min":58,"x_max":726,"o":"m 719 288 q 726 242 726 265 q 726 195 726 219 q 714 141 725 171 q 667 87 703 111 q 573 63 632 63 q 424 76 514 63 q 277 90 333 90 q 147 68 221 90 l 119 92 l 128 103 q 208 313 208 229 q 192 435 208 357 l 58 435 l 58 447 l 90 521 l 172 521 q 165 597 165 560 q 242 792 171 718 q 433 865 314 865 q 688 782 551 865 l 614 663 q 457 743 539 743 q 331 615 331 743 q 340 521 331 576 l 542 521 l 542 508 l 510 435 l 354 435 q 358 390 358 410 q 296 196 358 260 q 314 203 297 196 q 360 219 331 211 q 426 226 390 226 q 526 211 463 226 q 616 196 590 196 q 660 215 642 196 q 679 286 679 233 l 719 288 z "},"¤":{"ha":743,"x_min":69,"x_max":674,"o":"m 283 384 q 301 364 283 384 q 372 344 319 344 q 461 384 425 344 q 497 501 497 424 q 462 618 497 579 q 372 657 426 657 q 283 618 318 657 q 247 501 247 579 q 283 384 247 424 m 593 642 q 635 503 635 581 q 597 365 635 425 l 671 290 q 586 206 643 239 l 511 282 q 374 244 450 244 q 233 282 297 244 l 158 207 q 74 292 103 238 l 147 365 q 111 502 111 428 q 151 642 111 576 l 69 724 q 156 808 96 782 l 239 722 q 372 757 301 757 q 504 724 442 757 l 588 807 q 674 722 647 781 l 593 642 z "},"¥":{"ha":794,"x_min":47,"x_max":743,"o":"m 682 490 l 682 478 l 650 411 l 490 411 l 490 339 l 682 339 l 682 325 l 650 260 l 490 260 l 490 63 l 311 63 l 311 260 l 90 260 l 90 272 l 122 339 l 311 339 l 311 411 l 90 411 l 90 425 l 122 490 l 275 490 l 47 851 l 221 874 l 401 543 q 560 851 447 625 l 743 851 l 524 490 l 682 490 z "},"¦":{"ha":407,"x_min":118,"x_max":289,"o":"m 118 400 l 289 400 l 289 -86 l 118 -86 l 118 400 m 289 636 l 118 636 l 118 1122 l 289 1122 l 289 636 z "},"§":{"ha":821,"x_min":97,"x_max":724,"o":"m 360 475 q 282 390 282 449 q 336 294 282 332 q 460 231 376 268 q 528 308 528 250 q 486 401 528 367 q 360 475 444 436 m 581 169 q 710 -31 710 90 q 612 -220 710 -153 q 379 -287 514 -287 q 100 -249 289 -287 q 99 -159 99 -219 q 111 8 99 -99 q 204 1 161 8 q 204 -10 204 -4 q 386 -194 204 -194 q 480 -171 446 -194 q 514 -107 514 -147 q 491 -36 514 -67 q 431 15 468 -6 q 350 57 394 36 q 261 102 306 78 q 181 156 217 126 q 97 338 97 224 q 137 457 97 404 q 242 538 176 510 q 111 754 111 621 q 199 924 111 864 q 411 985 288 985 q 676 949 535 985 q 657 728 676 853 q 585 731 608 728 q 426 896 560 896 q 333 872 371 896 q 296 807 296 849 q 328 732 296 765 q 407 678 360 699 q 510 630 454 657 q 613 574 565 603 q 692 495 660 546 q 724 379 724 444 q 581 169 724 242 z "},"¨":{"ha":454,"x_min":14,"x_max":440,"o":"m 351 964 q 369 964 351 964 q 414 936 388 964 q 440 870 440 908 q 414 804 440 832 q 352 776 388 776 q 290 804 317 776 q 264 870 264 832 q 290 936 264 908 q 351 964 315 964 m 102 964 q 120 964 102 964 q 165 936 138 964 q 192 870 192 908 q 165 804 192 832 q 102 776 138 776 q 40 804 67 776 q 14 870 14 832 q 40 936 14 908 q 102 964 67 964 z "},"©":{"ha":1139,"x_min":83,"x_max":1056,"o":"m 788 325 q 582 221 701 221 q 378 297 463 221 q 293 506 293 374 q 383 720 293 639 q 606 801 474 801 q 771 764 690 801 q 732 585 763 675 q 701 582 717 582 l 671 585 q 665 647 669 626 q 644 682 661 667 q 588 697 626 697 q 512 644 549 697 q 475 509 475 592 q 515 383 475 426 q 617 340 556 340 q 736 381 679 340 l 788 325 m 917 865 q 986 799 917 865 q 1056 511 1056 733 q 917 157 1056 289 q 570 25 779 25 q 222 157 361 25 q 83 511 83 289 q 222 865 83 733 q 570 997 361 997 q 917 865 779 997 m 285 814 q 228 760 285 814 q 172 511 172 707 q 285 208 172 315 q 571 101 397 101 q 856 208 744 101 q 967 511 967 315 q 856 814 967 707 q 571 921 744 921 q 285 814 397 921 z "},"ª":{"ha":496,"x_min":24,"x_max":503,"o":"m 274 732 q 208 710 233 732 q 183 658 183 688 q 224 599 183 599 q 274 622 254 599 l 274 732 m 390 507 q 322 522 353 507 q 279 564 290 538 q 153 507 233 507 q 59 541 94 507 q 24 633 24 575 q 92 751 24 713 q 242 790 160 790 q 274 789 257 790 l 274 813 q 200 876 274 876 q 88 857 146 876 l 57 903 q 261 981 143 981 q 383 938 342 981 q 424 817 424 896 l 424 644 q 453 596 424 596 q 489 603 464 596 l 503 569 q 390 507 450 507 z "},"«":{"ha":994,"x_min":160,"x_max":831,"o":"m 160 488 l 415 776 l 493 738 l 333 488 l 493 238 l 415 196 l 160 488 m 497 488 l 753 776 l 831 738 l 671 488 l 831 238 l 753 196 l 497 488 z "},"¬":{"ha":985,"x_min":97,"x_max":860,"o":"m 860 678 l 860 340 q 807 335 833 335 l 754 340 l 754 519 l 108 519 q 97 599 97 558 q 108 678 97 639 l 860 678 z "},"®":{"ha":1139,"x_min":83,"x_max":1056,"o":"m 515 542 l 560 542 q 640 631 640 542 q 622 700 640 681 q 560 719 604 719 l 515 719 l 515 542 m 822 318 q 818 268 822 292 l 669 268 l 585 453 q 551 479 575 479 l 515 479 l 515 332 q 582 318 547 321 q 582 306 582 315 q 579 268 582 297 l 340 268 q 346 318 340 304 q 393 365 393 325 l 393 718 q 339 725 378 725 q 343 783 339 764 l 581 783 q 719 741 668 783 q 771 631 771 699 q 672 494 771 532 q 724 438 700 481 l 757 369 q 785 328 771 339 q 822 318 800 318 m 285 208 q 341 155 285 208 q 571 101 397 101 q 856 208 744 101 q 967 511 967 315 q 856 814 967 707 q 571 921 744 921 q 285 814 397 921 q 172 511 172 707 q 285 208 172 315 m 83 511 q 83 622 83 511 q 222 865 83 733 q 570 997 361 997 q 917 865 779 997 q 1056 511 1056 733 q 917 157 1056 289 q 570 25 779 25 q 222 157 361 25 q 83 511 83 289 z "},"¯":{"ha":376,"x_min":14,"x_max":363,"o":"m 14 790 l 14 865 l 363 865 l 363 790 l 14 790 z "},"°":{"ha":474,"x_min":42,"x_max":432,"o":"m 432 819 q 432 774 432 819 q 376 679 432 729 q 237 629 319 629 q 98 679 154 629 q 42 819 42 729 q 98 960 42 910 q 236 1011 154 1011 q 375 960 318 1011 q 432 819 432 910 m 299 821 q 237 924 299 924 q 175 820 175 924 q 236 717 175 717 q 281 742 264 717 q 299 821 299 768 z "},"±":{"ha":944,"x_min":104,"x_max":838,"o":"m 104 300 l 765 300 l 838 154 l 838 142 l 176 142 l 104 288 l 104 300 m 838 544 l 557 544 l 557 338 l 544 338 l 386 463 l 386 544 l 176 544 l 104 690 l 104 703 l 386 703 l 386 910 l 399 910 l 557 786 l 557 703 l 765 703 l 838 557 l 838 544 z "},"²":{"ha":360,"x_min":28,"x_max":332,"o":"m 242 564 q 281 577 268 564 q 303 626 294 590 q 332 621 325 626 q 313 476 332 533 l 36 476 q 28 550 28 519 q 171 712 138 667 q 204 798 204 757 q 188 857 204 839 q 147 875 172 875 q 83 811 96 875 l 42 811 q 46 914 42 879 q 174 954 101 954 q 285 916 246 954 q 324 822 324 878 q 285 718 324 765 q 126 564 247 671 l 242 564 z "},"³":{"ha":351,"x_min":22,"x_max":324,"o":"m 119 675 l 119 733 q 197 810 197 744 q 184 856 197 838 q 151 875 171 875 q 86 811 100 875 q 42 813 49 811 q 40 859 40 832 q 44 915 40 886 q 175 954 110 954 q 278 922 240 954 q 317 843 317 890 q 232 728 317 775 q 324 608 324 692 q 276 508 324 549 q 153 467 228 467 q 22 515 79 467 q 57 568 40 557 q 147 542 94 542 q 214 599 214 542 q 119 675 214 675 z "},"´":{"ha":306,"x_min":13,"x_max":293,"o":"m 150 1049 q 226 1027 183 1049 q 293 981 268 1006 l 293 953 l 68 758 l 13 792 l 146 1049 q 150 1049 147 1049 z "},"µ":{"ha":875,"x_min":0,"x_max":821,"o":"m 739 569 l 739 190 q 818 181 781 181 q 821 139 821 158 q 821 108 821 119 q 544 56 690 64 q 528 178 532 122 q 308 47 457 47 l 308 -160 q 190 -169 243 -169 q 93 -160 136 -169 l 93 590 q 47 593 71 593 q 0 592 22 593 q 13 668 3 640 q 308 721 149 715 l 308 217 q 389 188 333 188 q 524 313 479 188 l 524 521 q 508 600 524 574 q 454 639 493 626 q 471 689 460 669 q 663 724 563 724 q 744 718 703 724 q 739 569 739 668 z "},"¶":{"ha":724,"x_min":21,"x_max":636,"o":"m 301 965 l 636 965 l 636 63 l 533 63 l 533 860 l 450 860 l 450 63 l 347 63 l 347 376 l 300 376 q 99 457 178 376 q 21 669 21 538 q 100 883 21 801 q 301 965 179 965 z "},"·":{"ha":407,"x_min":85,"x_max":322,"o":"m 322 567 q 322 542 322 567 q 287 483 322 518 q 203 447 251 447 q 120 483 156 447 q 85 567 85 518 q 119 651 85 615 q 203 686 154 686 q 287 651 251 686 q 322 567 322 615 z "},"¸":{"ha":419,"x_min":14,"x_max":406,"o":"m 406 -118 q 347 -214 406 -178 q 196 -250 289 -250 q 14 -196 103 -250 l 46 -151 q 169 -187 113 -187 q 282 -128 282 -187 q 214 -85 282 -85 q 146 -92 188 -85 l 183 92 l 307 92 l 285 -22 q 377 -53 349 -26 q 406 -118 406 -81 z "},"¹":{"ha":319,"x_min":33,"x_max":286,"o":"m 285 529 q 286 509 286 522 q 281 476 286 496 l 35 476 q 33 499 33 485 q 39 529 33 514 q 110 571 110 538 l 110 835 l 39 824 q 42 871 35 851 q 199 960 133 926 l 221 950 l 221 544 q 285 529 244 535 z "},"º":{"ha":536,"x_min":24,"x_max":513,"o":"m 185 765 q 274 576 185 576 q 351 729 351 576 q 263 914 351 914 q 185 765 185 914 m 444 921 q 478 891 444 921 q 513 744 513 861 q 444 568 513 628 q 267 508 376 508 q 91 568 158 508 q 24 744 24 628 q 92 920 24 860 q 268 981 160 981 q 444 921 376 981 z "},"»":{"ha":1022,"x_min":165,"x_max":863,"o":"m 165 738 l 242 776 l 497 488 l 242 196 l 165 238 l 324 488 l 165 738 m 529 738 l 607 776 l 863 488 l 607 196 l 529 238 l 689 488 l 529 738 z "},"¼":{"ha":1058,"x_min":69,"x_max":1003,"o":"m 382 436 q 383 415 383 429 q 378 376 383 401 l 69 376 q 69 402 69 386 q 75 436 69 418 q 164 489 164 444 l 164 833 l 75 819 q 74 844 74 829 q 79 871 74 858 q 275 981 201 946 l 303 969 l 303 454 q 382 436 338 440 m 768 1019 l 853 1019 l 339 11 l 254 11 l 768 1019 m 796 276 l 796 444 l 669 276 l 796 276 m 739 122 l 758 125 q 772 128 768 125 q 781 132 776 131 q 786 135 785 133 q 790 141 788 138 q 794 147 793 144 q 796 167 796 158 l 796 203 l 593 203 q 567 263 572 236 l 846 649 l 917 649 l 917 276 l 997 276 q 1003 232 1003 250 q 1001 203 1003 214 l 917 203 l 917 133 q 972 122 938 122 q 968 63 972 83 l 735 63 q 733 88 733 72 q 739 122 733 104 z "},"½":{"ha":1131,"x_min":69,"x_max":1061,"o":"m 382 436 q 383 415 383 429 q 378 376 383 401 l 69 376 q 69 402 69 386 q 75 436 69 418 q 164 489 164 444 l 164 833 l 75 819 q 74 844 74 829 q 79 871 74 858 q 275 981 201 946 l 303 969 l 303 454 q 382 436 338 440 m 768 1019 l 853 1019 l 339 11 l 254 11 l 768 1019 m 954 172 q 1004 189 988 172 q 1031 251 1021 206 q 1061 244 1049 251 q 1036 63 1061 136 l 692 63 q 681 156 681 122 q 860 358 818 300 q 901 481 901 415 q 881 538 901 515 q 831 561 861 561 q 750 482 767 561 q 706 483 715 482 q 704 540 704 506 q 710 611 704 575 q 866 661 778 661 q 1002 614 954 661 q 1050 494 1050 567 q 954 311 1050 408 q 806 172 911 267 l 954 172 z "},"¾":{"ha":1058,"x_min":68,"x_max":1003,"o":"m 190 633 l 190 703 q 288 801 288 718 q 269 860 288 838 q 222 883 251 883 q 168 863 192 883 q 136 804 144 842 q 92 806 101 804 q 90 863 90 828 q 96 933 90 897 q 259 983 176 983 q 389 943 342 983 q 436 844 436 903 q 329 700 436 758 q 444 550 444 656 q 385 425 444 476 q 233 374 325 374 q 68 433 140 374 q 106 494 92 485 q 207 461 154 461 q 283 483 260 461 q 307 544 307 504 q 276 608 307 583 q 190 633 246 633 m 768 1019 l 853 1019 l 339 11 l 254 11 l 768 1019 m 796 276 l 796 444 l 669 276 l 796 276 m 739 122 l 758 125 q 772 128 768 125 q 781 132 776 131 q 786 135 785 133 q 790 141 788 138 q 794 147 793 144 q 796 167 796 158 l 796 203 l 593 203 q 567 263 572 236 l 846 649 l 917 649 l 917 276 l 997 276 q 1003 232 1003 250 q 1001 203 1003 214 l 917 203 l 917 133 q 972 122 938 122 q 968 63 972 83 l 735 63 q 733 88 733 72 q 739 122 733 104 z "},"¿":{"ha":779,"x_min":122,"x_max":646,"o":"m 331 897 q 347 913 331 897 q 406 928 363 928 q 479 897 449 928 q 510 824 510 867 q 479 749 510 781 q 406 718 449 718 q 331 749 363 718 q 300 824 300 781 q 331 897 300 867 m 302 272 q 295 264 302 272 q 278 235 289 257 q 268 185 268 213 q 292 137 268 157 q 357 117 317 117 q 536 189 440 117 l 646 51 q 440 -29 561 -29 q 220 53 318 -29 q 122 247 122 136 q 232 425 122 353 q 349 486 274 453 l 349 636 l 361 636 l 475 582 l 475 371 q 432 351 464 365 q 384 328 400 336 q 342 303 368 319 q 302 272 315 286 z "},"À":{"ha":906,"x_min":1,"x_max":906,"o":"m 508 1132 l 453 1099 l 228 1292 l 228 1321 q 296 1367 251 1344 q 375 1389 340 1389 l 508 1132 m 297 532 l 494 532 l 393 874 l 383 825 l 297 532 m 471 125 q 475 204 471 175 q 582 239 542 219 l 524 436 l 268 436 l 206 222 q 318 204 238 204 q 313 125 318 163 l 1 125 q 1 153 1 133 q 6 204 1 174 q 69 238 47 217 q 104 296 90 258 l 342 1026 q 565 1046 426 1043 l 801 292 q 838 224 818 242 q 906 204 858 206 q 900 125 906 181 l 471 125 z "},"Á":{"ha":906,"x_min":1,"x_max":906,"o":"m 547 1371 q 623 1349 581 1371 q 690 1303 665 1328 l 690 1275 l 465 1081 l 410 1114 l 543 1371 q 547 1371 544 1371 m 297 532 l 494 532 l 393 874 l 383 825 l 297 532 m 471 125 q 475 204 471 175 q 582 239 542 219 l 524 436 l 268 436 l 206 222 q 318 204 238 204 q 313 125 318 163 l 1 125 q 1 153 1 133 q 6 204 1 174 q 69 238 47 217 q 104 296 90 258 l 342 1026 q 565 1046 426 1043 l 801 292 q 838 224 818 242 q 906 204 858 206 q 900 125 906 181 l 471 125 z "},"Â":{"ha":906,"x_min":1,"x_max":906,"o":"m 451 1199 l 257 1086 l 211 1124 l 407 1336 l 496 1336 l 692 1124 l 647 1086 l 451 1199 m 297 532 l 494 532 l 393 874 l 383 825 l 297 532 m 471 125 q 475 204 471 175 q 582 239 542 219 l 524 436 l 268 436 l 206 222 q 318 204 238 204 q 313 125 318 163 l 1 125 q 1 153 1 133 q 6 204 1 174 q 69 238 47 217 q 104 296 90 258 l 342 1026 q 565 1046 426 1043 l 801 292 q 838 224 818 242 q 906 204 858 206 q 900 125 906 181 l 471 125 z "},"Ã":{"ha":906,"x_min":1,"x_max":906,"o":"m 542 1117 q 453 1153 511 1117 q 363 1190 394 1190 q 294 1128 308 1190 l 239 1128 q 283 1280 246 1226 q 382 1333 319 1333 q 472 1297 414 1333 q 561 1260 531 1260 q 629 1322 615 1260 l 685 1322 q 641 1170 678 1224 q 542 1117 604 1117 m 297 532 l 494 532 l 393 874 l 383 825 l 297 532 m 471 125 q 475 204 471 175 q 582 239 542 219 l 524 436 l 268 436 l 206 222 q 318 204 238 204 q 313 125 318 163 l 1 125 q 1 153 1 133 q 6 204 1 174 q 69 238 47 217 q 104 296 90 258 l 342 1026 q 565 1046 426 1043 l 801 292 q 838 224 818 242 q 906 204 858 206 q 900 125 906 181 l 471 125 z "},"Ä":{"ha":906,"x_min":1,"x_max":906,"o":"m 665 1195 q 665 1176 665 1195 q 639 1129 665 1157 q 577 1101 613 1101 q 515 1129 542 1101 q 489 1195 489 1157 q 515 1261 489 1233 q 576 1289 540 1289 q 639 1261 613 1289 q 665 1195 665 1233 m 417 1195 q 417 1176 417 1195 q 390 1129 417 1157 q 327 1101 363 1101 q 265 1129 292 1101 q 239 1195 239 1157 q 265 1261 239 1233 q 327 1289 292 1289 q 390 1261 363 1289 q 417 1195 417 1233 m 297 532 l 494 532 l 393 874 l 383 825 l 297 532 m 471 125 q 475 204 471 175 q 582 239 542 219 l 524 436 l 268 436 l 206 222 q 318 204 238 204 q 313 125 318 163 l 1 125 q 1 153 1 133 q 6 204 1 174 q 69 238 47 217 q 104 296 90 258 l 342 1026 q 565 1046 426 1043 l 801 292 q 838 224 818 242 q 906 204 858 206 q 900 125 906 181 l 471 125 z "},"Å":{"ha":906,"x_min":1,"x_max":906,"o":"m 501 1208 q 501 1237 501 1208 q 451 1267 501 1267 q 401 1208 401 1267 q 451 1149 401 1149 q 501 1208 501 1149 m 564 1126 q 540 1110 564 1126 q 451 1094 517 1094 q 339 1126 386 1094 q 292 1208 292 1158 q 339 1290 292 1258 q 451 1321 386 1321 q 564 1290 517 1321 q 611 1208 611 1258 q 564 1126 611 1158 m 297 532 l 494 532 l 393 874 l 383 825 l 297 532 m 471 125 q 475 204 471 175 q 582 239 542 219 l 524 436 l 268 436 l 206 222 q 318 204 238 204 q 313 125 318 163 l 1 125 q 1 153 1 133 q 6 204 1 174 q 69 238 47 217 q 104 296 90 258 l 342 1026 q 565 1046 426 1043 l 801 292 q 838 224 818 242 q 906 204 858 206 q 900 125 906 181 l 471 125 z "},"Æ":{"ha":1278,"x_min":1,"x_max":1231,"o":"m 601 469 l 601 711 l 539 606 l 444 469 l 601 469 m 1119 267 l 1126 333 l 1126 338 q 1169 339 1142 339 q 1224 332 1197 339 q 1231 172 1231 240 q 1229 63 1231 104 l 506 63 q 506 94 506 72 q 514 142 506 117 q 579 166 557 149 q 601 225 601 183 l 601 374 l 379 374 l 242 175 q 332 149 290 149 q 326 63 332 100 l 1 63 q 1 90 1 69 q 7 149 1 110 q 161 240 107 163 l 597 874 q 503 888 564 888 q 503 916 503 896 q 510 965 503 936 l 1219 965 q 1219 866 1219 936 q 1211 707 1219 796 q 1118 704 1178 704 q 1096 832 1108 807 q 1010 879 1075 879 l 824 879 l 824 558 l 1007 578 l 1068 578 l 1068 456 l 1007 456 l 824 468 l 824 150 l 1011 150 q 1089 181 1063 150 q 1108 222 1100 193 q 1119 267 1117 250 z "},"Ç":{"ha":872,"x_min":69,"x_max":840,"o":"m 504 107 q 457 110 488 107 l 443 40 q 535 9 507 36 q 564 -56 564 -18 q 506 -151 564 -115 q 354 -187 447 -187 q 172 -133 261 -187 l 204 -89 q 328 -125 271 -125 q 440 -65 440 -125 q 372 -22 440 -22 q 304 -29 346 -22 l 339 138 q 144 295 218 185 q 69 568 69 406 q 208 917 69 788 q 554 1047 347 1047 q 822 997 735 1047 q 790 733 817 875 q 719 735 724 733 q 672 876 715 822 q 536 931 628 931 q 376 842 444 931 q 307 585 307 754 q 383 333 307 417 q 583 250 458 250 q 792 310 707 250 l 840 254 q 692 148 782 189 q 504 107 601 107 z "},"È":{"ha":831,"x_min":56,"x_max":783,"o":"m 515 1132 l 460 1099 l 235 1292 l 235 1321 q 303 1367 258 1344 q 382 1389 347 1389 l 515 1132 m 376 213 l 564 213 q 642 244 615 213 q 661 283 653 256 q 675 356 671 317 q 679 400 679 396 q 722 400 694 400 q 776 394 750 400 q 783 235 783 303 q 782 125 783 167 l 58 125 q 58 157 58 135 q 67 204 58 179 q 132 228 110 211 q 154 288 154 246 l 154 935 q 56 950 119 950 q 56 978 56 958 q 63 1028 56 999 l 772 1028 q 772 928 772 999 q 764 769 772 858 q 671 767 731 767 q 649 894 661 869 q 563 942 628 942 l 376 942 l 376 621 l 560 640 l 621 640 l 621 518 l 560 518 l 376 531 l 376 213 z "},"É":{"ha":831,"x_min":56,"x_max":783,"o":"m 553 1369 q 628 1348 586 1369 q 696 1301 671 1326 l 696 1274 l 471 1079 l 415 1113 l 549 1369 q 553 1369 550 1369 m 376 213 l 564 213 q 642 244 615 213 q 661 283 653 256 q 675 356 671 317 q 679 400 679 396 q 722 400 694 400 q 776 394 750 400 q 783 235 783 303 q 782 125 783 167 l 58 125 q 58 157 58 135 q 67 204 58 179 q 132 228 110 211 q 154 288 154 246 l 154 935 q 56 950 119 950 q 56 978 56 958 q 63 1028 56 999 l 772 1028 q 772 928 772 999 q 764 769 772 858 q 671 767 731 767 q 649 894 661 869 q 563 942 628 942 l 376 942 l 376 621 l 560 640 l 621 640 l 621 518 l 560 518 l 376 531 l 376 213 z "},"Ê":{"ha":831,"x_min":56,"x_max":783,"o":"m 457 1199 l 263 1086 l 217 1124 l 413 1336 l 501 1336 l 697 1124 l 653 1086 l 457 1199 m 376 213 l 564 213 q 642 244 615 213 q 661 283 653 256 q 675 356 671 317 q 679 400 679 396 q 722 400 694 400 q 776 394 750 400 q 783 235 783 303 q 782 125 783 167 l 58 125 q 58 157 58 135 q 67 204 58 179 q 132 228 110 211 q 154 288 154 246 l 154 935 q 56 950 119 950 q 56 978 56 958 q 63 1028 56 999 l 772 1028 q 772 928 772 999 q 764 769 772 858 q 671 767 731 767 q 649 894 661 869 q 563 942 628 942 l 376 942 l 376 621 l 560 640 l 621 640 l 621 518 l 560 518 l 376 531 l 376 213 z "},"Ë":{"ha":831,"x_min":56,"x_max":783,"o":"m 671 1195 q 671 1176 671 1195 q 644 1129 671 1157 q 583 1101 618 1101 q 521 1129 547 1101 q 494 1195 494 1157 q 520 1261 494 1233 q 582 1289 546 1289 q 644 1261 618 1289 q 671 1195 671 1233 m 422 1195 q 422 1176 422 1195 q 395 1129 422 1157 q 333 1101 368 1101 q 271 1129 297 1101 q 244 1195 244 1157 q 271 1261 244 1233 q 333 1289 297 1289 q 395 1261 368 1289 q 422 1195 422 1233 m 376 213 l 564 213 q 642 244 615 213 q 661 283 653 256 q 675 356 671 317 q 679 400 679 396 q 722 400 694 400 q 776 394 750 400 q 783 235 783 303 q 782 125 783 167 l 58 125 q 58 157 58 135 q 67 204 58 179 q 132 228 110 211 q 154 288 154 246 l 154 935 q 56 950 119 950 q 56 978 56 958 q 63 1028 56 999 l 772 1028 q 772 928 772 999 q 764 769 772 858 q 671 767 731 767 q 649 894 661 869 q 563 942 628 942 l 376 942 l 376 621 l 560 640 l 621 640 l 621 518 l 560 518 l 376 531 l 376 213 z "},"Ì":{"ha":531,"x_min":43,"x_max":475,"o":"m 324 1132 l 268 1099 l 43 1292 l 43 1321 q 111 1367 67 1344 q 190 1389 156 1389 l 324 1132 m 376 867 l 376 218 q 474 204 408 204 q 475 176 475 194 q 468 125 475 157 l 58 125 q 58 157 58 135 q 67 204 58 179 q 132 228 110 211 q 154 288 154 246 l 154 935 q 56 950 119 950 q 56 978 56 958 q 63 1028 56 999 l 471 1028 q 471 995 471 1017 q 464 950 471 974 q 399 926 421 943 q 376 867 376 908 z "},"Í":{"ha":531,"x_min":56,"x_max":504,"o":"m 376 867 l 376 218 q 474 204 408 204 q 475 176 475 194 q 468 125 475 157 l 58 125 q 58 157 58 135 q 67 204 58 179 q 132 228 110 211 q 154 288 154 246 l 154 935 q 56 950 119 950 q 56 978 56 958 q 63 1028 56 999 l 471 1028 q 471 995 471 1017 q 464 950 471 974 q 399 926 421 943 q 376 867 376 908 m 361 1371 q 437 1349 394 1371 q 504 1303 479 1328 l 504 1275 l 279 1081 l 224 1114 l 357 1371 q 361 1371 358 1371 z "},"Î":{"ha":531,"x_min":25,"x_max":506,"o":"m 265 1199 l 71 1086 l 25 1124 l 221 1336 l 310 1336 l 506 1124 l 461 1086 l 265 1199 m 376 867 l 376 218 q 474 204 408 204 q 475 176 475 194 q 468 125 475 157 l 58 125 q 58 157 58 135 q 67 204 58 179 q 132 228 110 211 q 154 288 154 246 l 154 935 q 56 950 119 950 q 56 978 56 958 q 63 1028 56 999 l 471 1028 q 471 995 471 1017 q 464 950 471 974 q 399 926 421 943 q 376 867 376 908 z "},"Ï":{"ha":531,"x_min":53,"x_max":479,"o":"m 479 1195 q 479 1176 479 1195 q 453 1129 479 1157 q 391 1101 426 1101 q 329 1129 356 1101 q 303 1195 303 1157 q 328 1261 303 1233 q 390 1289 354 1289 q 453 1261 426 1289 q 479 1195 479 1233 m 231 1195 q 231 1176 231 1195 q 203 1129 231 1157 q 141 1101 176 1101 q 79 1129 106 1101 q 53 1195 53 1157 q 79 1261 53 1233 q 141 1289 106 1289 q 203 1261 176 1289 q 231 1195 231 1233 m 376 867 l 376 218 q 474 204 408 204 q 475 176 475 194 q 468 125 475 157 l 58 125 q 58 157 58 135 q 67 204 58 179 q 132 228 110 211 q 154 288 154 246 l 154 935 q 56 950 119 950 q 56 978 56 958 q 63 1028 56 999 l 471 1028 q 471 995 471 1017 q 464 950 471 974 q 399 926 421 943 q 376 867 376 908 z "},"Ð":{"ha":989,"x_min":44,"x_max":940,"o":"m 376 213 l 447 213 q 638 306 574 213 q 703 576 703 399 q 436 942 703 942 l 376 942 l 376 564 l 525 564 q 531 518 531 542 q 525 471 531 494 l 376 471 l 376 213 m 465 1028 q 806 909 672 1028 q 940 576 940 790 q 813 244 940 363 q 488 125 685 125 l 60 125 q 60 158 60 136 q 67 204 60 179 q 132 228 110 211 q 154 288 154 246 l 154 471 l 50 471 q 44 517 44 494 q 50 564 44 540 l 154 564 l 154 935 q 57 950 118 950 q 56 978 56 958 q 63 1028 56 997 l 465 1028 z "},"Ñ":{"ha":1072,"x_min":67,"x_max":996,"o":"m 643 1117 q 553 1153 611 1117 q 464 1190 494 1190 q 396 1128 410 1190 l 340 1128 q 384 1280 347 1226 q 483 1333 421 1333 q 572 1297 514 1333 q 663 1260 631 1260 q 731 1322 717 1260 l 786 1322 q 742 1170 779 1224 q 643 1117 706 1117 m 996 1028 q 996 995 996 1017 q 989 950 996 974 q 924 926 946 943 q 901 867 901 908 l 901 125 l 807 125 l 383 661 l 290 794 l 290 218 q 388 204 322 204 q 389 176 389 194 q 382 125 389 157 l 75 125 q 75 158 75 136 q 82 204 75 179 q 147 228 125 211 q 169 288 169 246 l 169 943 q 67 951 139 951 q 76 1028 69 1001 l 376 1028 l 706 611 l 781 501 l 781 935 q 683 950 746 950 q 683 978 683 958 q 689 1028 683 997 l 996 1028 z "},"Ò":{"ha":989,"x_min":69,"x_max":921,"o":"m 419 1389 l 553 1132 l 497 1099 l 272 1292 l 272 1321 q 340 1367 296 1344 q 419 1389 385 1389 m 611 868 q 590 913 611 868 q 488 958 568 958 q 372 871 407 958 q 336 589 336 783 q 377 283 336 371 q 499 194 418 194 q 617 279 579 194 q 654 561 654 364 q 611 868 654 778 m 801 235 q 741 170 801 235 q 493 106 681 106 q 188 234 306 106 q 69 574 69 363 q 188 916 69 785 q 493 1047 306 1047 q 801 916 681 1047 q 921 574 921 785 q 801 235 921 364 z "},"Ó":{"ha":989,"x_min":69,"x_max":921,"o":"m 611 868 q 590 913 611 868 q 488 958 568 958 q 372 871 407 958 q 336 589 336 783 q 377 283 336 371 q 499 194 418 194 q 617 279 579 194 q 654 561 654 364 q 611 868 654 778 m 801 235 q 741 170 801 235 q 493 106 681 106 q 188 234 306 106 q 69 574 69 363 q 188 916 69 785 q 493 1047 306 1047 q 801 916 681 1047 q 921 574 921 785 q 801 235 921 364 m 590 1369 q 666 1348 624 1369 q 733 1301 708 1326 l 733 1274 l 508 1079 l 453 1113 l 586 1369 q 590 1369 588 1369 z "},"Ô":{"ha":989,"x_min":69,"x_max":921,"o":"m 611 868 q 590 913 611 868 q 488 958 568 958 q 372 871 407 958 q 336 589 336 783 q 377 283 336 371 q 499 194 418 194 q 617 279 579 194 q 654 561 654 364 q 611 868 654 778 m 801 235 q 741 170 801 235 q 493 106 681 106 q 188 234 306 106 q 69 574 69 363 q 188 916 69 785 q 493 1047 306 1047 q 801 916 681 1047 q 921 574 921 785 q 801 235 921 364 m 735 1124 l 690 1086 l 494 1199 l 300 1086 l 254 1124 l 450 1336 l 539 1336 l 735 1124 z "},"Õ":{"ha":989,"x_min":69,"x_max":921,"o":"m 426 1333 q 517 1297 458 1333 q 606 1260 575 1260 q 674 1322 660 1260 l 729 1322 q 685 1170 722 1224 q 586 1117 649 1117 q 497 1153 556 1117 q 407 1190 439 1190 q 339 1128 353 1190 l 283 1128 q 327 1280 290 1226 q 426 1333 364 1333 m 611 868 q 590 913 611 868 q 488 958 568 958 q 372 871 407 958 q 336 589 336 783 q 377 283 336 371 q 499 194 418 194 q 617 279 579 194 q 654 561 654 364 q 611 868 654 778 m 801 235 q 741 170 801 235 q 493 106 681 106 q 188 234 306 106 q 69 574 69 363 q 188 916 69 785 q 493 1047 306 1047 q 801 916 681 1047 q 921 574 921 785 q 801 235 921 364 z "},"Ö":{"ha":989,"x_min":69,"x_max":921,"o":"m 611 868 q 590 913 611 868 q 488 958 568 958 q 372 871 407 958 q 336 589 336 783 q 377 283 336 371 q 499 194 418 194 q 617 279 579 194 q 654 561 654 364 q 611 868 654 778 m 801 235 q 741 170 801 235 q 493 106 681 106 q 188 234 306 106 q 69 574 69 363 q 188 916 69 785 q 493 1047 306 1047 q 801 916 681 1047 q 921 574 921 785 q 801 235 921 364 m 619 1289 q 638 1289 619 1289 q 682 1261 656 1289 q 708 1195 708 1233 q 682 1129 708 1157 q 620 1101 656 1101 q 558 1129 585 1101 q 532 1195 532 1157 q 558 1261 532 1233 q 619 1289 583 1289 m 370 1289 q 388 1289 370 1289 q 433 1261 406 1289 q 460 1195 460 1233 q 433 1129 460 1157 q 370 1101 406 1101 q 308 1129 335 1101 q 282 1195 282 1157 q 308 1261 282 1233 q 370 1289 335 1289 z "},"×":{"ha":785,"x_min":82,"x_max":703,"o":"m 703 693 l 494 465 l 700 229 l 610 171 l 422 385 l 233 178 l 82 278 l 307 517 l 110 742 l 201 803 l 381 597 l 574 803 l 703 693 z "},"Ø":{"ha":989,"x_min":69,"x_max":922,"o":"m 628 250 q 654 479 654 336 q 653 543 654 496 q 649 631 651 590 l 363 263 q 497 143 399 143 q 628 250 596 143 m 358 776 q 335 571 335 694 q 342 393 335 489 l 626 760 q 489 885 589 885 q 358 776 389 885 m 811 840 q 921 506 921 711 q 801 172 921 301 q 493 43 681 43 q 242 107 340 43 l 192 43 l 69 43 l 169 171 q 69 506 69 289 q 188 853 69 722 q 493 985 306 985 q 740 907 635 985 l 800 983 l 922 983 l 811 840 z "},"Ù":{"ha":1013,"x_min":28,"x_max":988,"o":"m 567 1132 l 511 1099 l 286 1292 l 286 1321 q 354 1367 310 1344 q 433 1389 399 1389 l 567 1132 m 988 1028 q 988 995 988 1017 q 981 950 988 974 q 915 926 936 943 q 893 867 893 908 l 893 406 q 790 179 893 251 q 508 107 688 107 q 228 179 329 107 q 126 406 126 251 l 126 935 q 29 950 92 950 q 28 976 28 958 q 35 1028 28 994 l 443 1028 q 443 995 443 1017 q 436 950 443 974 q 371 926 393 943 q 349 867 349 908 l 349 406 q 390 256 349 300 q 508 211 432 211 q 669 406 669 211 l 669 935 q 572 950 635 950 q 572 978 572 958 q 578 1028 572 997 l 988 1028 z "},"Ú":{"ha":1013,"x_min":28,"x_max":988,"o":"m 606 1369 q 681 1348 639 1369 q 749 1301 724 1326 l 749 1274 l 524 1079 l 468 1113 l 601 1369 q 606 1369 603 1369 m 988 1028 q 988 995 988 1017 q 981 950 988 974 q 915 926 936 943 q 893 867 893 908 l 893 406 q 790 179 893 251 q 508 107 688 107 q 228 179 329 107 q 126 406 126 251 l 126 935 q 29 950 92 950 q 28 976 28 958 q 35 1028 28 994 l 443 1028 q 443 995 443 1017 q 436 950 443 974 q 371 926 393 943 q 349 867 349 908 l 349 406 q 390 256 349 300 q 508 211 432 211 q 669 406 669 211 l 669 935 q 572 950 635 950 q 572 978 572 958 q 578 1028 572 997 l 988 1028 z "},"Û":{"ha":1013,"x_min":28,"x_max":988,"o":"m 510 1199 l 315 1086 l 269 1124 l 465 1336 l 554 1336 l 750 1124 l 706 1086 l 510 1199 m 988 1028 q 988 995 988 1017 q 981 950 988 974 q 915 926 936 943 q 893 867 893 908 l 893 406 q 790 179 893 251 q 508 107 688 107 q 228 179 329 107 q 126 406 126 251 l 126 935 q 29 950 92 950 q 28 976 28 958 q 35 1028 28 994 l 443 1028 q 443 995 443 1017 q 436 950 443 974 q 371 926 393 943 q 349 867 349 908 l 349 406 q 390 256 349 300 q 508 211 432 211 q 669 406 669 211 l 669 935 q 572 950 635 950 q 572 978 572 958 q 578 1028 572 997 l 988 1028 z "},"Ü":{"ha":1013,"x_min":28,"x_max":988,"o":"m 722 1195 q 722 1176 722 1195 q 696 1129 722 1157 q 634 1101 669 1101 q 572 1129 599 1101 q 546 1195 546 1157 q 572 1261 546 1233 q 633 1289 597 1289 q 696 1261 669 1289 q 722 1195 722 1233 m 474 1195 q 474 1176 474 1195 q 447 1129 474 1157 q 384 1101 419 1101 q 322 1129 349 1101 q 296 1195 296 1157 q 322 1261 296 1233 q 384 1289 349 1289 q 447 1261 419 1289 q 474 1195 474 1233 m 988 1028 q 988 995 988 1017 q 981 950 988 974 q 915 926 936 943 q 893 867 893 908 l 893 406 q 790 179 893 251 q 508 107 688 107 q 228 179 329 107 q 126 406 126 251 l 126 935 q 29 950 92 950 q 28 976 28 958 q 35 1028 28 994 l 443 1028 q 443 995 443 1017 q 436 950 443 974 q 371 926 393 943 q 349 867 349 908 l 349 406 q 390 256 349 300 q 508 211 432 211 q 669 406 669 211 l 669 935 q 572 950 635 950 q 572 978 572 958 q 578 1028 572 997 l 988 1028 z "},"Ý":{"ha":938,"x_min":7,"x_max":929,"o":"m 615 1371 q 691 1349 649 1371 q 758 1303 733 1328 l 758 1275 l 533 1081 l 478 1114 l 611 1371 q 615 1371 613 1371 m 700 204 q 694 125 700 160 l 246 125 q 246 153 246 133 q 250 204 246 174 q 297 215 281 210 q 330 238 313 219 q 347 288 347 257 l 347 513 l 90 942 q 38 951 57 951 q 14 951 18 951 q 7 1028 7 997 l 453 1028 q 463 951 463 982 q 371 896 371 943 q 385 853 371 878 l 528 590 l 533 590 q 588 711 549 646 l 719 940 q 647 951 692 950 q 657 1028 650 993 l 929 1028 q 918 951 926 988 q 833 910 857 943 q 806 869 824 897 l 592 513 l 592 214 q 700 204 624 204 z "},"Þ":{"ha":890,"x_min":56,"x_max":881,"o":"m 376 371 l 478 371 q 597 410 551 371 q 643 524 643 449 q 478 675 643 675 l 376 675 l 376 371 m 376 764 l 521 764 q 783 701 686 764 q 881 524 881 639 q 783 347 881 408 q 521 286 686 286 l 376 286 l 376 156 q 474 142 408 142 q 475 114 475 133 q 468 63 475 94 l 58 63 q 58 94 58 72 q 67 142 58 117 q 132 166 110 149 q 154 225 154 183 l 154 872 q 56 888 119 888 q 56 916 56 896 q 63 965 56 936 l 471 965 q 471 933 471 954 q 464 888 471 911 q 399 863 421 881 q 376 804 376 846 l 376 764 z "},"ß":{"ha":954,"x_min":58,"x_max":885,"o":"m 154 225 l 154 656 q 519 965 154 965 q 760 895 671 965 q 850 721 850 825 q 704 540 850 588 q 838 456 790 514 q 885 313 885 397 q 803 133 885 204 q 553 63 722 63 q 449 78 489 63 q 444 119 444 99 q 449 161 444 140 q 501 150 472 150 q 649 313 649 150 q 610 435 649 394 q 501 476 571 476 l 467 476 q 458 527 458 506 q 464 564 458 549 l 521 564 q 613 721 613 615 q 494 879 613 879 q 376 721 376 879 l 376 63 l 58 63 q 58 94 58 72 q 67 142 58 117 q 132 166 110 149 q 154 225 154 183 z "},"à":{"ha":708,"x_min":33,"x_max":718,"o":"m 424 869 l 368 836 l 143 1029 l 143 1058 q 211 1104 167 1082 q 290 1126 256 1126 l 424 869 m 263 306 q 278 256 263 275 q 328 238 294 238 q 390 271 363 238 l 390 424 l 351 411 q 263 306 263 383 m 718 196 q 645 129 681 151 q 557 107 610 107 q 459 128 504 107 q 397 188 414 150 q 237 107 333 107 q 87 158 140 107 q 33 288 33 208 q 228 471 33 432 l 390 503 l 390 544 q 285 635 390 635 q 125 607 208 635 l 81 672 q 374 783 204 783 q 547 722 489 783 q 604 549 604 661 l 604 303 q 647 235 604 235 q 699 243 654 235 l 718 196 z "},"á":{"ha":708,"x_min":33,"x_max":718,"o":"m 463 1107 q 538 1085 496 1107 q 606 1039 581 1064 l 606 1011 l 381 817 l 325 850 l 458 1107 q 463 1107 460 1107 m 351 411 q 263 306 263 383 q 278 256 263 275 q 328 238 294 238 q 390 271 363 238 l 390 424 l 351 411 m 718 196 q 645 129 681 151 q 557 107 610 107 q 459 128 504 107 q 397 188 414 150 q 237 107 333 107 q 87 158 140 107 q 33 288 33 208 q 228 471 33 432 l 390 503 l 390 544 q 285 635 390 635 q 125 607 208 635 l 81 672 q 374 783 204 783 q 547 722 489 783 q 604 549 604 661 l 604 303 q 647 235 604 235 q 699 243 654 235 l 718 196 z "},"â":{"ha":708,"x_min":33,"x_max":718,"o":"m 367 936 l 172 824 l 126 861 l 322 1074 l 411 1074 l 607 861 l 563 824 l 367 936 m 263 306 q 278 256 263 275 q 328 238 294 238 q 390 271 363 238 l 390 424 l 351 411 q 263 306 263 383 m 718 196 q 645 129 681 151 q 557 107 610 107 q 459 128 504 107 q 397 188 414 150 q 237 107 333 107 q 87 158 140 107 q 33 288 33 208 q 228 471 33 432 l 390 503 l 390 544 q 285 635 390 635 q 125 607 208 635 l 81 672 q 374 783 204 783 q 547 722 489 783 q 604 549 604 661 l 604 303 q 647 235 604 235 q 699 243 654 235 l 718 196 z "},"ã":{"ha":708,"x_min":33,"x_max":718,"o":"m 457 854 q 367 891 425 854 q 278 928 308 928 q 210 865 224 928 l 154 865 q 198 1017 161 964 q 297 1071 235 1071 q 387 1034 329 1071 q 476 997 444 997 q 544 1060 531 997 l 600 1060 q 556 908 593 961 q 457 854 519 854 m 263 306 q 278 256 263 275 q 328 238 294 238 q 390 271 363 238 l 390 424 l 351 411 q 263 306 263 383 m 718 196 q 645 129 681 151 q 557 107 610 107 q 459 128 504 107 q 397 188 414 150 q 237 107 333 107 q 87 158 140 107 q 33 288 33 208 q 228 471 33 432 l 390 503 l 390 544 q 285 635 390 635 q 125 607 208 635 l 81 672 q 374 783 204 783 q 547 722 489 783 q 604 549 604 661 l 604 303 q 647 235 604 235 q 699 243 654 235 l 718 196 z "},"ä":{"ha":708,"x_min":33,"x_max":718,"o":"m 581 933 q 581 914 581 933 q 554 867 581 894 q 492 839 528 839 q 431 867 457 839 q 404 933 404 894 q 430 999 404 971 q 492 1026 456 1026 q 554 999 528 1026 q 581 933 581 971 m 332 933 q 332 914 332 933 q 305 867 332 894 q 242 839 278 839 q 181 867 207 839 q 154 933 154 894 q 181 999 154 971 q 242 1026 207 1026 q 305 999 278 1026 q 332 933 332 971 m 263 306 q 278 256 263 275 q 328 238 294 238 q 390 271 363 238 l 390 424 l 351 411 q 263 306 263 383 m 718 196 q 645 129 681 151 q 557 107 610 107 q 459 128 504 107 q 397 188 414 150 q 237 107 333 107 q 87 158 140 107 q 33 288 33 208 q 228 471 33 432 l 390 503 l 390 544 q 285 635 390 635 q 125 607 208 635 l 81 672 q 374 783 204 783 q 547 722 489 783 q 604 549 604 661 l 604 303 q 647 235 604 235 q 699 243 654 235 l 718 196 z "},"å":{"ha":708,"x_min":33,"x_max":718,"o":"m 417 945 q 417 975 417 945 q 367 1004 417 1004 q 317 945 317 1004 q 367 886 317 886 q 417 945 417 886 m 479 864 q 456 848 479 864 q 367 832 432 832 q 254 864 301 832 q 207 946 207 896 q 254 1027 207 996 q 367 1058 301 1058 q 479 1027 432 1058 q 526 946 526 996 q 479 864 526 896 m 263 306 q 278 256 263 275 q 328 238 294 238 q 390 271 363 238 l 390 424 l 351 411 q 263 306 263 383 m 718 196 q 645 129 681 151 q 557 107 610 107 q 459 128 504 107 q 397 188 414 150 q 237 107 333 107 q 87 158 140 107 q 33 288 33 208 q 228 471 33 432 l 390 503 l 390 544 q 285 635 390 635 q 125 607 208 635 l 81 672 q 374 783 204 783 q 547 722 489 783 q 604 549 604 661 l 604 303 q 647 235 604 235 q 699 243 654 235 l 718 196 z "},"æ":{"ha":1050,"x_min":33,"x_max":1010,"o":"m 732 618 q 624 467 644 618 l 732 475 l 794 478 q 732 618 793 618 m 263 243 q 278 194 263 213 q 319 175 294 175 q 415 239 376 175 q 390 361 393 290 l 351 349 q 263 243 263 321 m 619 392 l 619 389 q 781 174 619 174 q 974 215 865 174 l 1006 165 q 719 44 888 44 q 578 76 650 44 q 458 167 507 107 q 236 44 381 44 q 88 95 143 44 q 33 225 33 146 q 228 408 33 369 l 390 440 l 390 482 q 285 572 390 572 q 125 544 208 572 l 81 610 q 374 721 204 721 q 543 663 485 721 q 749 721 636 721 q 925 665 849 721 q 1010 449 1010 603 q 982 392 999 415 l 619 392 z "},"ç":{"ha":622,"x_min":33,"x_max":613,"o":"m 500 -56 q 442 -151 500 -115 q 290 -187 383 -187 q 108 -133 197 -187 l 140 -89 q 264 -125 207 -125 q 376 -65 376 -125 q 308 -22 376 -22 q 240 -29 282 -22 l 269 115 q 101 219 169 139 q 33 429 33 299 q 140 687 33 590 q 397 783 246 783 q 579 744 489 783 q 557 543 578 671 q 506 550 531 543 q 468 646 499 611 q 393 681 438 681 q 263 459 263 681 q 403 238 263 238 q 581 278 478 238 l 613 228 q 393 111 522 132 l 379 40 q 472 9 443 36 q 500 -56 500 -18 z "},"è":{"ha":693,"x_min":33,"x_max":653,"o":"m 444 869 l 389 836 l 164 1029 l 164 1058 q 232 1104 188 1082 q 311 1126 276 1126 l 444 869 m 375 681 q 267 529 288 681 l 375 538 l 438 540 q 375 681 436 681 m 263 454 l 263 451 q 424 236 263 236 q 617 278 508 236 l 649 228 q 363 107 531 107 q 146 183 247 107 q 65 286 96 222 q 33 429 33 350 q 138 687 33 590 q 392 783 242 783 q 567 728 492 783 q 653 511 653 665 q 625 454 642 478 l 263 454 z "},"é":{"ha":693,"x_min":33,"x_max":653,"o":"m 482 1108 q 558 1087 515 1108 q 625 1040 600 1065 l 625 1013 l 400 818 l 344 851 l 478 1108 q 482 1108 479 1108 m 438 540 q 375 681 436 681 q 267 529 288 681 l 375 538 l 438 540 m 263 454 l 263 451 q 424 236 263 236 q 617 278 508 236 l 649 228 q 363 107 531 107 q 146 183 247 107 q 65 286 96 222 q 33 429 33 350 q 138 687 33 590 q 392 783 242 783 q 567 728 492 783 q 653 511 653 665 q 625 454 642 478 l 263 454 z "},"ê":{"ha":693,"x_min":33,"x_max":653,"o":"m 386 936 l 192 824 l 146 861 l 342 1074 l 431 1074 l 626 861 l 582 824 l 386 936 m 375 681 q 267 529 288 681 l 375 538 l 438 540 q 375 681 436 681 m 263 454 l 263 451 q 424 236 263 236 q 617 278 508 236 l 649 228 q 363 107 531 107 q 146 183 247 107 q 65 286 96 222 q 33 429 33 350 q 138 687 33 590 q 392 783 242 783 q 567 728 492 783 q 653 511 653 665 q 625 454 642 478 l 263 454 z "},"ë":{"ha":693,"x_min":33,"x_max":653,"o":"m 599 933 q 599 914 599 933 q 572 867 599 894 q 510 839 546 839 q 449 867 475 839 q 422 933 422 894 q 448 999 422 971 q 510 1026 474 1026 q 572 999 546 1026 q 599 933 599 971 m 350 933 q 350 914 350 933 q 323 867 350 894 q 260 839 296 839 q 199 867 225 839 q 172 933 172 894 q 199 999 172 971 q 260 1026 225 1026 q 323 999 296 1026 q 350 933 350 971 m 375 681 q 267 529 288 681 l 375 538 l 438 540 q 375 681 436 681 m 263 454 l 263 451 q 424 236 263 236 q 617 278 508 236 l 649 228 q 363 107 531 107 q 146 183 247 107 q 65 286 96 222 q 33 429 33 350 q 138 687 33 590 q 392 783 242 783 q 567 728 492 783 q 653 511 653 665 q 625 454 642 478 l 263 454 z "},"ì":{"ha":472,"x_min":21,"x_max":422,"o":"m 301 869 l 246 836 l 21 1029 l 21 1058 q 89 1104 44 1082 q 168 1126 133 1126 l 301 869 m 422 204 q 422 176 422 194 q 417 125 422 157 l 35 125 q 35 158 35 136 q 42 204 35 179 q 107 228 85 211 q 129 286 129 246 l 129 646 q 84 649 108 649 q 36 647 60 649 q 49 725 39 696 q 344 778 183 771 l 344 218 q 422 204 378 204 z "},"í":{"ha":472,"x_min":35,"x_max":482,"o":"m 422 204 q 422 176 422 194 q 417 125 422 157 l 35 125 q 35 158 35 136 q 42 204 35 179 q 107 228 85 211 q 129 286 129 246 l 129 646 q 84 649 108 649 q 36 647 60 649 q 49 725 39 696 q 344 778 183 771 l 344 218 q 422 204 378 204 m 339 1108 q 415 1087 372 1108 q 482 1040 457 1065 l 482 1013 l 257 818 l 201 851 l 335 1108 q 339 1108 336 1108 z "},"î":{"ha":472,"x_min":4,"x_max":485,"o":"m 422 204 q 422 176 422 194 q 417 125 422 157 l 35 125 q 35 158 35 136 q 42 204 35 179 q 107 228 85 211 q 129 286 129 246 l 129 646 q 84 649 108 649 q 36 647 60 649 q 49 725 39 696 q 344 778 183 771 l 344 218 q 422 204 378 204 m 289 1074 l 485 861 l 440 824 l 244 936 l 50 824 l 4 861 l 200 1074 l 289 1074 z "},"ï":{"ha":472,"x_min":31,"x_max":457,"o":"m 208 933 q 208 914 208 933 q 181 867 208 894 q 119 839 154 839 q 57 867 83 839 q 31 933 31 894 q 57 999 31 971 q 119 1026 83 1026 q 181 999 154 1026 q 208 933 208 971 m 422 204 q 422 176 422 194 q 417 125 422 157 l 35 125 q 35 158 35 136 q 42 204 35 179 q 107 228 85 211 q 129 286 129 246 l 129 646 q 84 649 108 649 q 36 647 60 649 q 49 725 39 696 q 344 778 183 771 l 344 218 q 422 204 378 204 m 306 999 q 319 1013 306 999 q 368 1026 332 1026 q 431 999 404 1026 q 457 933 457 971 q 431 867 457 894 q 369 839 404 839 q 307 867 333 839 q 281 933 281 894 q 306 999 281 971 z "},"ð":{"ha":753,"x_min":33,"x_max":711,"o":"m 371 143 q 450 218 419 143 q 481 419 481 293 q 474 610 481 544 q 413 618 444 618 q 263 393 263 618 q 263 369 263 382 q 371 143 272 143 m 711 451 q 609 153 711 258 q 360 47 507 47 q 124 126 214 47 q 33 366 33 206 q 151 624 33 526 q 424 721 269 721 l 457 721 q 414 842 442 786 l 265 779 q 221 860 232 807 l 368 921 q 288 1022 335 971 l 350 1079 q 479 967 419 1031 l 625 1028 q 671 949 658 997 l 542 894 q 711 451 711 676 z "},"ñ":{"ha":889,"x_min":35,"x_max":868,"o":"m 549 854 q 458 891 517 854 q 369 928 400 928 q 301 865 315 928 l 246 865 q 290 1017 253 964 q 389 1071 326 1071 q 478 1034 419 1071 q 568 997 536 997 q 636 1060 622 997 l 692 1060 q 648 908 685 961 q 549 854 611 854 m 775 564 l 775 219 q 868 204 832 204 q 868 176 868 196 q 861 125 868 156 l 485 125 q 483 156 483 136 q 490 204 483 175 q 543 228 526 211 q 560 286 560 244 l 560 536 q 535 617 560 590 q 469 644 510 644 q 344 519 389 644 l 344 218 q 422 204 378 204 q 422 176 422 194 q 417 125 422 157 l 35 125 q 35 158 35 136 q 42 204 35 179 q 107 228 85 211 q 129 286 129 246 l 129 644 q 84 647 108 647 q 36 646 60 647 q 49 722 39 694 q 325 776 175 768 q 342 651 338 708 q 560 783 408 783 q 716 725 657 783 q 775 564 775 667 z "},"ò":{"ha":765,"x_min":33,"x_max":732,"o":"m 307 1126 l 440 869 l 385 836 l 160 1029 l 160 1058 q 228 1104 183 1082 q 307 1126 272 1126 m 501 413 q 375 688 501 688 q 263 476 263 688 q 263 446 263 461 q 392 206 272 206 q 477 259 453 206 q 501 413 501 313 m 383 783 q 461 783 383 783 q 635 698 539 783 q 732 447 732 613 q 635 195 732 281 q 382 110 538 110 q 130 195 226 110 q 33 447 33 281 q 131 698 33 613 q 383 783 228 783 z "},"ó":{"ha":765,"x_min":33,"x_max":732,"o":"m 501 413 q 375 688 501 688 q 263 476 263 688 q 263 446 263 461 q 392 206 272 206 q 477 259 453 206 q 501 413 501 313 m 383 783 q 461 783 383 783 q 635 698 539 783 q 732 447 732 613 q 635 195 732 281 q 382 110 538 110 q 130 195 226 110 q 33 447 33 281 q 131 698 33 613 q 383 783 228 783 m 478 1108 q 553 1087 511 1108 q 621 1040 596 1065 l 621 1013 l 396 818 l 340 851 l 474 1108 q 478 1108 475 1108 z "},"ô":{"ha":765,"x_min":33,"x_max":732,"o":"m 501 413 q 375 688 501 688 q 263 476 263 688 q 263 446 263 461 q 392 206 272 206 q 477 259 453 206 q 501 413 501 313 m 383 783 q 461 783 383 783 q 635 698 539 783 q 732 447 732 613 q 635 195 732 281 q 382 110 538 110 q 130 195 226 110 q 33 447 33 281 q 131 698 33 613 q 383 783 228 783 m 622 861 l 578 824 l 382 936 l 188 824 l 142 861 l 338 1074 l 426 1074 l 622 861 z "},"õ":{"ha":765,"x_min":33,"x_max":732,"o":"m 314 1071 q 403 1034 344 1071 q 493 997 461 997 q 561 1060 547 997 l 617 1060 q 573 908 610 961 q 474 854 536 854 q 383 891 442 854 q 294 928 325 928 q 226 865 240 928 l 171 865 q 215 1017 178 964 q 314 1071 251 1071 m 501 413 q 375 688 501 688 q 263 476 263 688 q 263 446 263 461 q 392 206 272 206 q 477 259 453 206 q 501 413 501 313 m 383 783 q 461 783 383 783 q 635 698 539 783 q 732 447 732 613 q 635 195 732 281 q 382 110 538 110 q 130 195 226 110 q 33 447 33 281 q 131 698 33 613 q 383 783 228 783 z "},"ö":{"ha":765,"x_min":33,"x_max":732,"o":"m 501 413 q 375 688 501 688 q 263 476 263 688 q 263 446 263 461 q 392 206 272 206 q 477 259 453 206 q 501 413 501 313 m 383 783 q 461 783 383 783 q 635 698 539 783 q 732 447 732 613 q 635 195 732 281 q 382 110 538 110 q 130 195 226 110 q 33 447 33 281 q 131 698 33 613 q 383 783 228 783 m 507 1026 q 525 1026 507 1026 q 569 999 543 1026 q 596 933 596 971 q 569 867 596 894 q 508 839 543 839 q 446 867 472 839 q 419 933 419 894 q 445 999 419 971 q 507 1026 471 1026 m 258 1026 q 275 1026 258 1026 q 320 999 293 1026 q 347 933 347 971 q 320 867 347 894 q 258 839 293 839 q 196 867 222 839 q 169 933 169 894 q 196 999 169 971 q 258 1026 222 1026 z "},"÷":{"ha":951,"x_min":104,"x_max":838,"o":"m 838 408 l 176 408 l 104 553 l 104 567 l 765 567 l 838 421 l 838 408 m 596 225 q 596 200 596 225 q 560 140 596 175 q 475 106 525 106 q 390 140 425 106 q 356 225 356 175 q 390 310 356 275 q 475 346 425 346 q 560 310 525 346 q 596 225 596 275 m 596 744 q 596 720 596 744 q 560 661 596 696 q 475 626 525 626 q 390 662 425 626 q 356 745 356 697 q 390 828 356 793 q 475 864 425 864 q 560 828 525 864 q 596 744 596 793 z "},"ø":{"ha":765,"x_min":33,"x_max":732,"o":"m 289 224 q 386 143 319 143 q 477 197 453 143 q 501 350 501 250 q 496 456 501 404 l 289 224 m 375 625 q 263 414 263 625 q 268 313 263 361 l 475 546 q 375 625 444 625 m 646 625 q 732 377 732 536 q 635 133 732 218 q 382 47 538 47 q 176 97 264 47 l 133 49 l 33 49 l 118 144 q 33 391 33 232 q 131 635 33 550 q 383 721 228 721 q 588 671 503 721 l 632 721 l 732 721 l 646 625 z "},"ù":{"ha":875,"x_min":14,"x_max":821,"o":"m 474 869 l 418 836 l 193 1029 l 193 1058 q 261 1104 217 1082 q 340 1126 306 1126 l 474 869 m 739 632 l 739 253 q 818 243 781 243 q 821 200 821 219 q 821 171 821 181 q 544 118 700 121 q 528 240 532 185 q 308 110 457 110 q 152 168 211 110 q 93 329 93 226 l 93 653 q 51 654 72 654 q 14 654 31 654 q 26 731 17 703 q 308 783 164 778 l 308 357 q 333 276 308 303 q 399 250 358 250 q 524 375 479 250 l 524 583 q 508 663 524 636 q 454 701 493 689 q 471 751 460 732 q 663 786 563 786 q 744 781 703 786 q 739 632 739 731 z "},"ú":{"ha":875,"x_min":14,"x_max":821,"o":"m 511 1108 q 587 1087 544 1108 q 654 1040 629 1065 l 654 1013 l 429 818 l 374 851 l 507 1108 q 511 1108 508 1108 m 739 632 l 739 253 q 818 243 781 243 q 821 200 821 219 q 821 171 821 181 q 544 118 700 121 q 528 240 532 185 q 308 110 457 110 q 152 168 211 110 q 93 329 93 226 l 93 653 q 51 654 72 654 q 14 654 31 654 q 26 731 17 703 q 308 783 164 778 l 308 357 q 333 276 308 303 q 399 250 358 250 q 524 375 479 250 l 524 583 q 508 663 524 636 q 454 701 493 689 q 471 751 460 732 q 663 786 563 786 q 744 781 703 786 q 739 632 739 731 z "},"û":{"ha":875,"x_min":14,"x_max":821,"o":"m 415 936 l 221 824 l 175 861 l 371 1074 l 460 1074 l 656 861 l 611 824 l 415 936 m 739 632 l 739 253 q 818 243 781 243 q 821 200 821 219 q 821 171 821 181 q 544 118 700 121 q 528 240 532 185 q 308 110 457 110 q 152 168 211 110 q 93 329 93 226 l 93 653 q 51 654 72 654 q 14 654 31 654 q 26 731 17 703 q 308 783 164 778 l 308 357 q 333 276 308 303 q 399 250 358 250 q 524 375 479 250 l 524 583 q 508 663 524 636 q 454 701 493 689 q 471 751 460 732 q 663 786 563 786 q 744 781 703 786 q 739 632 739 731 z "},"ü":{"ha":875,"x_min":14,"x_max":821,"o":"m 629 933 q 629 914 629 933 q 603 867 629 894 q 541 839 576 839 q 479 867 506 839 q 453 933 453 894 q 478 999 453 971 q 540 1026 504 1026 q 603 999 576 1026 q 629 933 629 971 m 381 933 q 381 914 381 933 q 353 867 381 894 q 291 839 326 839 q 229 867 256 839 q 203 933 203 894 q 229 999 203 971 q 291 1026 256 1026 q 353 999 326 1026 q 381 933 381 971 m 739 632 l 739 253 q 818 243 781 243 q 821 200 821 219 q 821 171 821 181 q 544 118 700 121 q 528 240 532 185 q 308 110 457 110 q 152 168 211 110 q 93 329 93 226 l 93 653 q 51 654 72 654 q 14 654 31 654 q 26 731 17 703 q 308 783 164 778 l 308 357 q 333 276 308 303 q 399 250 358 250 q 524 375 479 250 l 524 583 q 508 663 524 636 q 454 701 493 689 q 471 751 460 732 q 663 786 563 786 q 744 781 703 786 q 739 632 739 731 z "},"ý":{"ha":753,"x_min":-14,"x_max":774,"o":"m 528 1108 q 603 1087 561 1108 q 671 1040 646 1065 l 671 1013 l 446 818 l 390 851 l 524 1108 q 528 1108 525 1108 m 161 -207 l 131 -207 q 111 -88 111 -137 q 114 -12 111 -39 l 160 -12 q 256 3 221 -12 q 317 60 290 19 l 89 606 q 55 663 74 644 q -7 689 36 681 q -14 737 -14 718 q -12 765 -14 756 l 369 765 q 375 689 375 744 q 297 682 322 689 l 418 261 q 447 358 428 310 l 546 599 q 556 640 556 625 q 551 663 556 654 q 496 689 540 682 q 489 737 489 718 q 490 765 489 756 l 772 765 q 756 689 774 726 q 693 676 726 688 l 378 -6 q 161 -207 286 -207 z "},"þ":{"ha":822,"x_min":35,"x_max":789,"o":"m 443 163 q 558 383 558 163 q 443 603 558 603 q 385 575 413 603 q 344 504 357 547 l 344 261 q 385 190 357 218 q 443 163 413 163 m 344 642 q 519 721 408 721 q 709 633 629 721 q 789 383 789 544 q 709 133 789 222 q 519 44 629 44 q 344 124 408 44 l 344 -161 q 469 -190 397 -187 q 469 -219 469 -200 q 464 -269 469 -237 l 35 -269 q 35 -237 35 -260 q 43 -190 35 -215 q 108 -167 86 -183 q 129 -108 129 -150 l 129 931 q 89 933 114 933 q 36 932 64 933 q 49 1010 39 982 q 344 1063 182 1057 l 344 642 z "},"ÿ":{"ha":753,"x_min":-14,"x_max":774,"o":"m 646 934 q 646 915 646 934 q 619 868 646 896 q 558 840 593 840 q 496 868 522 840 q 469 934 469 896 q 495 1000 469 972 q 557 1028 521 1028 q 619 1000 593 1028 q 646 934 646 972 m 397 934 q 397 915 397 934 q 370 868 397 896 q 308 840 343 840 q 246 868 272 840 q 219 934 219 896 q 246 1000 219 972 q 308 1028 272 1028 q 370 1000 343 1028 q 397 934 397 972 m 161 -207 l 131 -207 q 111 -88 111 -137 q 114 -12 111 -39 l 160 -12 q 256 3 221 -12 q 317 60 290 19 l 89 606 q 55 663 74 644 q -7 689 36 681 q -14 737 -14 718 q -12 765 -14 756 l 369 765 q 375 689 375 744 q 297 682 322 689 l 418 261 q 447 358 428 310 l 546 599 q 556 640 556 625 q 551 663 556 654 q 496 689 540 682 q 489 737 489 718 q 490 765 489 756 l 772 765 q 756 689 774 726 q 693 676 726 688 l 378 -6 q 161 -207 286 -207 z "},"ı":{"ha":472,"x_min":35,"x_max":422,"o":"m 422 142 q 422 114 422 133 q 417 63 422 94 l 35 63 q 35 95 35 74 q 42 142 35 117 q 107 166 85 149 q 129 224 129 183 l 129 583 q 84 586 108 586 q 36 585 60 586 q 49 663 39 633 q 344 715 183 708 l 344 156 q 422 142 378 142 z "},"Ł":{"ha":796,"x_min":14,"x_max":771,"o":"m 681 371 l 682 386 q 761 382 711 386 q 771 212 771 271 q 769 125 771 153 l 60 125 q 60 158 60 136 q 67 204 60 179 q 132 228 110 211 q 154 288 154 246 l 154 444 l 49 408 q 14 497 19 446 l 154 546 l 154 935 q 57 950 122 950 q 56 978 56 958 q 63 1028 56 997 l 471 1028 q 472 997 472 1017 q 464 950 472 978 q 399 926 421 943 q 376 867 376 908 l 376 622 l 511 668 q 547 581 536 632 l 376 522 l 376 211 l 575 211 q 641 235 618 211 q 669 281 664 260 q 681 371 681 333 z "},"ł":{"ha":611,"x_min":36,"x_max":569,"o":"m 478 204 q 478 176 478 194 q 472 125 478 157 l 90 125 q 90 158 90 136 q 97 204 90 179 q 163 228 140 211 q 185 286 185 246 l 185 488 l 71 450 q 36 539 42 488 l 185 590 l 185 993 q 144 996 169 996 q 92 994 119 996 q 104 1072 94 1044 q 400 1125 238 1119 l 400 664 l 533 710 q 569 617 557 676 l 400 560 l 400 218 q 478 204 433 204 z "},"Œ":{"ha":1389,"x_min":69,"x_max":1314,"o":"m 529 885 q 335 553 335 885 q 336 478 335 532 q 344 365 338 424 q 367 253 350 307 q 499 143 400 143 q 685 225 615 143 l 685 801 q 529 885 628 885 m 1203 267 l 1210 333 l 1210 338 q 1253 339 1225 339 q 1307 332 1281 339 q 1314 172 1314 240 q 1313 63 1314 104 l 711 63 q 493 43 589 43 q 188 172 306 43 q 69 510 69 300 q 199 852 69 719 q 519 985 329 985 q 724 965 604 985 l 1303 965 q 1303 866 1303 936 q 1294 707 1303 796 q 1201 704 1261 704 q 1179 832 1192 807 q 1093 879 1158 879 l 907 879 l 907 558 l 1090 578 l 1151 578 l 1151 456 l 1090 456 l 907 468 l 907 150 l 1094 150 q 1172 181 1146 150 q 1192 222 1183 193 q 1203 267 1200 250 z "},"œ":{"ha":1169,"x_min":33,"x_max":1129,"o":"m 853 618 q 785 582 815 618 q 744 467 756 546 l 851 475 l 914 478 q 853 618 913 618 m 501 350 q 375 625 501 625 q 263 414 263 625 q 263 383 263 399 q 392 143 272 143 q 477 197 453 143 q 501 350 501 250 m 740 392 l 740 389 q 901 174 740 174 q 1081 226 982 174 l 1117 163 q 839 44 996 44 q 721 67 781 44 q 622 136 661 90 q 384 47 542 47 q 130 133 226 47 q 33 384 33 218 q 131 635 33 550 q 386 721 228 721 q 631 619 544 721 q 869 721 721 721 q 1044 665 968 721 q 1129 449 1129 603 q 1101 392 1119 417 l 740 392 z "},"Š":{"ha":761,"x_min":89,"x_max":701,"o":"m 701 381 q 603 180 701 254 q 371 106 506 106 q 92 149 276 106 q 90 246 90 179 q 103 432 90 313 q 196 424 143 432 q 196 411 196 418 q 378 208 196 208 q 472 234 438 208 q 506 308 506 260 q 475 393 506 356 q 398 454 444 431 q 297 508 351 478 q 197 572 243 539 q 119 661 150 604 q 89 793 89 718 q 177 981 89 914 q 390 1047 265 1047 q 654 1007 515 1047 q 635 764 654 903 q 563 768 597 764 q 404 950 538 950 q 311 924 349 950 q 274 851 274 897 q 306 769 274 806 q 385 709 338 732 q 488 656 432 686 q 590 595 543 626 q 669 508 638 564 q 701 381 701 453 m 646 1303 l 479 1092 l 333 1092 l 165 1303 l 211 1340 l 406 1188 l 601 1340 l 646 1303 z "},"š":{"ha":585,"x_min":54,"x_max":568,"o":"m 251 204 q 272 204 251 204 q 319 224 293 204 q 344 277 344 244 q 301 342 344 310 q 206 399 258 375 q 111 472 154 424 q 68 585 68 521 q 138 733 68 683 q 335 783 208 783 q 506 754 415 783 q 506 688 506 735 q 497 571 506 640 q 429 578 461 571 q 432 610 432 594 q 342 696 432 696 q 288 678 310 696 q 267 627 267 661 q 312 563 267 593 q 410 512 357 533 q 509 440 464 490 q 554 319 554 390 q 473 167 554 228 q 268 107 392 107 q 56 133 144 107 q 54 210 54 163 q 61 331 54 258 q 133 325 89 331 q 133 300 133 321 q 144 254 133 279 q 178 219 154 229 q 251 204 210 204 m 568 1040 l 401 829 l 256 829 l 88 1040 l 133 1078 l 328 925 l 524 1078 l 568 1040 z "},"Ÿ":{"ha":938,"x_min":7,"x_max":929,"o":"m 733 1195 q 733 1176 733 1195 q 707 1129 733 1157 q 645 1101 681 1101 q 583 1129 610 1101 q 557 1195 557 1157 q 583 1261 557 1233 q 644 1289 608 1289 q 707 1261 681 1289 q 733 1195 733 1233 m 485 1195 q 485 1176 485 1195 q 458 1129 485 1157 q 395 1101 431 1101 q 333 1129 360 1101 q 307 1195 307 1157 q 333 1261 307 1233 q 395 1289 360 1289 q 458 1261 431 1289 q 485 1195 485 1233 m 700 204 q 694 125 700 160 l 246 125 q 246 153 246 133 q 250 204 246 174 q 297 215 281 210 q 330 238 313 219 q 347 288 347 257 l 347 513 l 90 942 q 38 951 57 951 q 14 951 18 951 q 7 1028 7 997 l 453 1028 q 463 951 463 982 q 371 896 371 943 q 385 853 371 878 l 528 590 l 533 590 q 588 711 549 646 l 719 940 q 647 951 692 950 q 657 1028 650 993 l 929 1028 q 918 951 926 988 q 833 910 857 943 q 806 869 824 897 l 592 513 l 592 214 q 700 204 624 204 z "},"Ž":{"ha":790,"x_min":63,"x_max":736,"o":"m 503 1092 l 357 1092 l 189 1303 l 235 1340 l 429 1188 l 625 1340 l 669 1303 l 503 1092 m 567 236 q 644 262 618 236 q 683 360 671 288 q 736 347 714 360 q 725 125 736 210 l 76 125 q 63 192 63 164 q 63 224 63 219 l 468 918 l 235 918 q 158 892 185 918 q 117 793 132 865 q 64 804 90 793 q 76 1028 64 935 l 713 1028 q 726 962 726 990 q 726 929 726 933 l 321 236 l 567 236 z "},"ž":{"ha":668,"x_min":43,"x_max":599,"o":"m 432 829 l 286 829 l 118 1040 l 164 1078 l 358 925 l 554 1078 l 599 1040 l 432 829 m 588 765 q 597 701 597 731 q 593 646 597 671 l 281 211 l 421 211 q 499 237 472 211 q 540 335 525 263 q 592 324 565 335 q 592 269 592 315 q 579 125 592 224 l 54 125 q 43 190 43 160 q 47 246 43 221 l 364 681 l 228 681 q 151 654 178 681 q 111 557 125 628 q 58 569 79 557 q 71 765 58 674 l 588 765 z "},"ƒ":{"ha":663,"x_min":-32,"x_max":644,"o":"m 532 721 q 644 701 593 721 q 618 608 642 647 q 538 632 579 632 q 435 508 454 632 l 413 367 q 581 381 503 369 q 547 268 569 307 l 397 268 l 354 0 q 255 -212 332 -136 q 68 -287 178 -287 q -32 -268 14 -287 q -8 -181 -29 -221 q 63 -199 39 -199 q 119 -117 106 -199 l 181 260 q 103 265 147 265 q 118 335 110 315 q 196 363 154 354 l 207 433 q 317 644 228 568 q 532 721 407 721 z "},"ˆ":{"ha":508,"x_min":14,"x_max":494,"o":"m 494 799 l 450 761 l 254 874 l 60 761 l 14 799 l 210 1011 l 299 1011 l 494 799 z "},"ˇ":{"ha":508,"x_min":14,"x_max":494,"o":"m 494 978 l 328 767 l 182 767 l 14 978 l 60 1015 l 254 863 l 450 1015 l 494 978 z "},"˘":{"ha":424,"x_min":14,"x_max":410,"o":"m 344 1028 l 404 1028 q 410 975 410 1004 q 354 841 410 890 q 213 792 299 792 q 70 841 126 792 q 14 975 14 890 q 19 1028 14 1004 l 79 1028 q 212 935 79 935 q 344 1028 344 935 z "},"˙":{"ha":265,"x_min":14,"x_max":251,"o":"m 251 963 q 251 938 251 963 q 216 878 251 914 q 133 843 181 843 q 49 878 85 843 q 14 963 14 914 q 49 1047 14 1011 q 132 1082 83 1082 q 216 1047 181 1082 q 251 963 251 1011 z "},"˚":{"ha":283,"x_min":-18,"x_max":301,"o":"m 254 965 q 278 949 254 965 q 301 883 301 933 q 254 801 301 833 q 142 769 207 769 q 29 801 76 769 q -18 883 -18 833 q 29 965 -18 933 q 142 996 76 996 q 254 965 207 996 m 192 883 q 192 912 192 883 q 142 942 192 942 q 92 883 92 942 q 142 824 92 824 q 192 883 192 824 z "},"˛":{"ha":356,"x_min":14,"x_max":342,"o":"m 206 -31 q 271 -85 206 -85 q 322 -76 278 -85 l 342 -124 q 269 -190 304 -168 q 173 -212 233 -212 q 63 -176 113 -212 q 14 -79 14 -140 q 67 35 14 -18 q 235 119 121 88 l 299 86 q 206 -31 206 40 z "},"˜":{"ha":488,"x_min":28,"x_max":474,"o":"m 171 1008 q 261 972 203 1008 q 350 935 319 935 q 418 997 404 935 l 474 997 q 430 845 467 899 q 331 792 393 792 q 241 828 299 792 q 151 865 183 865 q 83 803 97 865 l 28 803 q 72 955 35 901 q 171 1008 108 1008 z "},"˝":{"ha":536,"x_min":14,"x_max":522,"o":"m 14 813 l 122 1067 q 271 1032 207 1063 l 271 1006 l 93 799 l 14 813 m 222 813 l 374 1067 q 522 1032 458 1063 l 522 1006 l 301 799 l 222 813 z "},"ँ":{"ha":0,"x_min":-525,"x_max":99,"o":"m -358 1383 l -232 1513 l -101 1383 l -228 1257 l -358 1383 m -240 1154 q -39 1321 -126 1154 l 99 1217 q -16 1065 47 1122 q -176 1007 -79 1007 q -525 1250 -369 1007 l -447 1307 q -390 1230 -412 1257 q -326 1178 -367 1203 q -240 1154 -286 1154 z "},"ं":{"ha":0,"x_min":-314,"x_max":-57,"o":"m -314 1140 l -187 1269 l -57 1140 l -183 1014 l -314 1140 z "},"ः":{"ha":433,"x_min":115,"x_max":372,"o":"m 115 585 l 242 714 l 372 585 l 246 458 l 115 585 m 115 214 l 242 343 l 372 214 l 246 88 l 115 214 z "},"अ":{"ha":1063,"x_min":15,"x_max":1183,"o":"m 411 88 q 15 499 175 88 l 104 550 q 206 360 168 415 q 278 281 243 304 q 353 258 313 258 q 463 299 422 258 q 503 399 503 340 q 485 458 503 431 q 351 394 432 425 l 249 567 q 471 728 471 640 q 458 762 471 747 q 422 776 444 776 q 279 686 356 776 l 144 818 q 357 947 244 947 q 528 849 444 947 q 613 657 613 751 q 576 543 613 597 q 637 532 599 532 q 723 554 675 532 q 785 601 771 576 l 785 793 l 669 793 l 569 938 l 1083 938 l 1183 793 l 965 793 l 965 0 l 785 100 l 794 381 q 726 365 765 365 q 644 389 688 365 q 653 329 653 363 q 587 158 653 228 q 411 88 521 88 z "},"आ":{"ha":1429,"x_min":-26,"x_max":1472,"o":"m 1274 793 l 1274 0 l 1093 107 l 1093 793 l 924 793 l 924 0 l 743 100 l 753 381 q 685 365 724 365 q 603 389 646 365 q 611 329 611 363 q 545 158 611 228 q 369 88 479 88 q -26 499 133 88 l 63 550 q 164 360 126 415 q 236 281 201 304 q 311 258 271 258 q 421 299 381 258 q 461 399 461 340 q 443 458 461 431 q 310 394 390 425 l 207 567 q 429 728 429 640 q 416 762 429 747 q 381 776 403 776 q 238 686 314 776 l 103 818 q 315 947 203 947 q 487 849 403 947 q 571 657 571 751 q 535 543 571 597 q 595 532 557 532 q 681 554 633 532 q 743 601 729 576 l 743 793 l 628 793 l 528 938 l 1399 938 l 1472 793 l 1274 793 z "},"इ":{"ha":758,"x_min":-93,"x_max":867,"o":"m 476 456 q 631 374 557 456 q 706 211 706 292 q 635 67 706 131 q 461 -18 565 4 l 615 -189 l 500 -264 l 329 -25 q 172 50 249 -8 q 94 163 94 108 q 126 226 94 199 q 194 253 157 253 q 339 138 250 253 q 503 179 428 140 q 579 272 579 218 q 558 304 579 304 q 469 277 542 304 q 346 250 397 250 q 179 352 269 250 q 89 537 89 454 q 140 659 89 619 q 267 699 192 699 l 465 699 l 465 793 l 7 793 l -93 938 l 768 938 l 867 793 l 640 793 l 640 532 l 313 532 q 249 508 272 532 q 226 450 226 485 q 265 408 226 408 q 372 432 304 408 q 476 456 440 456 z "},"ई":{"ha":756,"x_min":-115,"x_max":844,"o":"m 674 1221 q 574 1185 615 1221 q 533 1080 533 1149 q 607 938 533 1011 l 746 938 l 844 793 l 618 793 l 618 532 l 290 532 q 227 508 250 532 q 204 450 204 485 q 243 408 204 408 q 350 432 282 408 q 454 456 418 456 q 609 374 535 456 q 683 211 683 292 q 613 67 683 131 q 439 -18 543 4 l 593 -189 l 478 -264 l 307 -25 q 149 50 226 -8 q 72 163 72 108 q 103 226 72 199 q 172 253 135 253 q 317 138 228 253 q 481 179 406 140 q 557 272 557 218 q 536 304 557 304 q 447 277 519 304 q 324 250 375 250 q 157 352 247 250 q 67 537 67 454 q 118 659 67 619 q 244 699 169 699 l 443 699 l 443 793 l -15 793 l -115 938 l 489 938 q 393 1164 393 1047 q 451 1298 393 1247 q 600 1349 510 1349 q 771 1285 690 1349 l 733 1211 q 674 1221 704 1221 z "},"उ":{"ha":721,"x_min":-104,"x_max":856,"o":"m 288 261 q 388 231 331 231 q 485 269 444 231 q 526 356 526 307 q 499 444 526 406 q 333 396 432 410 l 233 567 q 476 708 476 600 q 460 758 476 732 q 421 793 444 783 l -4 793 l -104 938 l 757 938 l 856 793 l 567 793 q 625 644 625 722 q 582 511 625 567 q 679 308 679 419 q 612 125 679 196 q 429 54 544 54 q 290 98 358 54 q 169 211 222 142 q 19 479 76 338 l 111 538 q 288 261 201 321 z "},"ऊ":{"ha":1013,"x_min":-128,"x_max":1072,"o":"m 722 603 q 915 508 821 603 q 1010 317 1010 413 q 949 156 1010 222 q 796 57 889 90 l 681 215 q 813 285 767 239 q 858 388 858 332 q 801 439 858 439 q 705 399 757 439 q 617 310 653 358 l 617 299 q 550 125 617 196 q 368 54 483 54 q 231 99 297 54 q 113 215 164 143 q -36 486 17 350 l 50 538 q 308 232 172 232 q 420 272 378 232 q 463 359 463 311 q 436 444 463 407 q 272 396 369 410 l 172 567 q 414 708 414 600 q 397 759 414 733 q 354 793 381 785 l -28 793 l -128 938 l 972 938 l 1072 793 l 510 793 q 564 644 564 722 q 521 511 564 567 l 535 497 q 722 603 643 603 z "},"ऋ":{"ha":1358,"x_min":-128,"x_max":1485,"o":"m 801 793 l 801 517 q 853 510 825 510 q 912 519 882 510 q 953 538 942 528 l 964 547 q 940 621 940 589 q 967 678 940 653 q 1035 704 994 704 q 1122 649 1075 704 q 1169 541 1169 593 q 1133 454 1169 489 l 1246 303 l 1094 169 q 1058 108 1058 138 q 1077 60 1058 79 q 1139 40 1096 40 q 1217 69 1182 40 q 1286 153 1251 97 l 1389 61 q 1324 -37 1372 6 q 1198 -81 1275 -81 q 1015 2 1121 -81 q 908 171 908 85 q 956 263 908 226 l 1072 358 l 1043 397 q 933 382 1001 382 q 801 407 864 382 l 801 0 l 628 99 l 628 326 l 301 50 l 167 157 l 544 464 q 470 527 515 503 q 378 551 425 551 q 175 463 279 551 l 50 607 q 279 700 165 700 q 445 658 365 700 q 628 499 525 617 l 628 793 l -28 793 l -128 938 l 1385 938 l 1485 793 l 801 793 z "},"ऌ":{"ha":1046,"x_min":-99,"x_max":1172,"o":"m 711 535 q 615 490 646 535 q 585 372 585 444 q 618 226 585 300 l 456 283 q 413 439 413 358 q 422 514 413 481 q 344 531 392 531 q 260 490 296 531 q 224 394 224 450 q 243 291 224 338 q 300 201 263 244 q 444 64 358 132 l 356 0 q 254 92 296 51 q 161 194 213 132 q 51 451 51 325 q 116 623 51 554 q 283 692 181 692 q 469 611 386 692 q 635 689 531 689 q 768 640 696 689 l 768 793 l 1 793 l -99 938 l 1072 938 l 1172 793 l 949 793 l 949 111 q 767 -7 801 38 q 751 -56 751 -28 q 776 -103 751 -85 q 842 -121 801 -121 q 933 -96 882 -121 q 1014 -42 985 -71 l 1125 -147 q 1020 -228 1082 -196 q 892 -260 958 -260 q 695 -161 794 -260 q 596 25 596 -62 q 650 129 596 85 q 768 211 694 167 l 768 525 q 711 535 744 535 z "},"ऍ":{"ha":793,"x_min":-94,"x_max":888,"o":"m 697 793 l 697 535 q 659 386 697 446 q 542 278 621 326 l 408 411 q 493 473 469 446 q 517 543 517 500 l 517 793 l 296 793 l 296 435 q 304 364 296 386 q 346 317 313 342 l 615 106 q 700 -40 700 42 q 629 -187 700 -122 l 483 -72 q 535 2 535 -25 q 475 79 535 29 l 150 338 q 122 369 129 356 q 115 408 115 383 l 115 793 l -8 793 l -94 938 l 801 938 l 888 793 l 697 793 m 375 1154 q 576 1321 489 1154 l 714 1217 q 599 1065 663 1122 q 439 1007 536 1007 q 90 1250 246 1007 l 168 1307 q 226 1230 203 1257 q 289 1178 249 1203 q 375 1154 329 1154 z "},"ऎ":{"ha":793,"x_min":-94,"x_max":888,"o":"m 697 793 l 697 535 q 659 386 697 446 q 542 278 621 326 l 408 411 q 493 473 469 446 q 517 543 517 500 l 517 793 l 296 793 l 296 435 q 304 364 296 386 q 346 317 313 342 l 615 106 q 700 -40 700 42 q 629 -187 700 -122 l 483 -72 q 535 2 535 -25 q 475 79 535 29 l 150 338 q 122 369 129 356 q 115 408 115 383 l 115 793 l -8 793 l -94 938 l 549 938 q 489 1012 529 992 q 346 1032 449 1032 l 283 1032 q 38 1136 107 1032 q -29 1272 7 1182 l 54 1329 q 106 1231 85 1251 q 269 1190 146 1190 l 328 1190 q 575 1122 504 1190 q 631 1046 611 1088 q 667 938 650 1004 l 801 938 l 888 793 l 697 793 z "},"ए":{"ha":779,"x_min":-110,"x_max":872,"o":"m 682 793 l 682 535 q 644 386 682 446 q 526 278 606 326 l 393 411 q 478 473 454 446 q 501 543 501 500 l 501 793 l 281 793 l 281 435 q 289 364 281 386 q 331 317 297 342 l 600 106 q 685 -40 685 42 q 614 -187 685 -122 l 468 -72 q 519 2 519 -25 q 460 79 519 29 l 135 338 q 107 369 114 356 q 100 408 100 383 l 100 793 l -24 793 l -110 938 l 786 938 l 872 793 l 682 793 z "},"ऐ":{"ha":793,"x_min":-94,"x_max":888,"o":"m 143 1231 q 302 1285 235 1285 q 424 1255 369 1285 q 522 1169 479 1225 q 661 938 599 1074 l 801 938 l 888 793 l 697 793 l 697 535 q 659 386 697 446 q 542 278 621 326 l 408 411 q 493 473 469 446 q 517 543 517 500 l 517 793 l 296 793 l 296 435 q 304 364 296 386 q 346 317 313 342 l 615 106 q 700 -40 700 42 q 629 -187 700 -122 l 483 -72 q 535 2 535 -25 q 475 79 535 29 l 150 338 q 122 369 129 356 q 115 408 115 383 l 115 793 l -8 793 l -94 938 l 542 938 q 358 1114 446 1114 q 258 1072 315 1114 l 143 1231 z "},"ऑ":{"ha":1429,"x_min":-26,"x_max":1526,"o":"m 1322 793 l 1322 0 l 1142 107 l 1142 793 l 924 793 l 924 0 l 743 100 l 753 381 q 685 365 724 365 q 603 389 646 365 q 611 329 611 363 q 545 158 611 228 q 369 88 479 88 q -26 499 133 88 l 63 550 q 164 360 126 415 q 236 281 201 304 q 311 258 271 258 q 421 299 381 258 q 461 399 461 340 q 443 458 461 431 q 310 394 390 425 l 207 567 q 429 728 429 640 q 416 762 429 747 q 381 776 403 776 q 238 686 314 776 l 103 818 q 315 947 203 947 q 487 849 403 947 q 571 657 571 751 q 535 543 571 597 q 595 532 557 532 q 681 554 633 532 q 743 601 729 576 l 743 793 l 628 793 l 528 938 l 1447 938 l 1521 793 l 1322 793 m 1188 1154 q 1389 1321 1301 1154 l 1526 1217 q 1412 1065 1475 1122 q 1251 1007 1349 1007 q 903 1250 1058 1007 l 981 1307 q 1038 1230 1015 1257 q 1101 1178 1061 1203 q 1188 1154 1142 1154 z "},"ऒ":{"ha":1429,"x_min":-26,"x_max":1524,"o":"m 1325 793 l 1325 0 l 1144 107 l 1144 793 l 924 793 l 924 0 l 743 100 l 753 381 q 685 365 724 365 q 603 389 646 365 q 611 329 611 363 q 545 158 611 228 q 369 88 479 88 q -26 499 133 88 l 63 550 q 164 360 126 415 q 236 281 201 304 q 311 258 271 258 q 421 299 381 258 q 461 399 461 340 q 443 458 461 431 q 310 394 390 425 l 207 567 q 429 728 429 640 q 416 762 429 747 q 381 776 403 776 q 238 686 314 776 l 103 818 q 315 947 203 947 q 487 849 403 947 q 571 657 571 751 q 535 543 571 597 q 595 532 557 532 q 681 554 633 532 q 743 601 729 576 l 743 793 l 628 793 l 528 938 l 1158 938 q 1099 1012 1139 992 q 956 1032 1058 1032 l 893 1032 q 647 1136 717 1032 q 581 1272 617 1182 l 664 1329 q 715 1231 694 1251 q 879 1190 756 1190 l 938 1190 q 1183 1122 1114 1190 q 1240 1046 1221 1088 q 1276 938 1260 1004 l 1450 938 l 1524 793 l 1325 793 z "},"ओ":{"ha":1429,"x_min":-26,"x_max":1524,"o":"m 756 1231 q 915 1285 847 1285 q 1037 1255 982 1285 q 1136 1169 1092 1225 q 1274 938 1211 1074 l 1450 938 l 1524 793 l 1325 793 l 1325 0 l 1144 107 l 1144 793 l 924 793 l 924 0 l 743 100 l 753 381 q 685 365 724 365 q 603 389 646 365 q 611 329 611 363 q 545 158 611 228 q 369 88 479 88 q -26 499 133 88 l 63 550 q 164 360 126 415 q 236 281 201 304 q 311 258 271 258 q 421 299 381 258 q 461 399 461 340 q 443 458 461 431 q 310 394 390 425 l 207 567 q 429 728 429 640 q 416 762 429 747 q 381 776 403 776 q 238 686 314 776 l 103 818 q 315 947 203 947 q 487 849 403 947 q 571 657 571 751 q 535 543 571 597 q 595 532 557 532 q 681 554 633 532 q 743 601 729 576 l 743 793 l 628 793 l 528 938 l 1154 938 q 971 1114 1058 1114 q 871 1072 928 1114 l 756 1231 z "},"औ":{"ha":1457,"x_min":-26,"x_max":1551,"o":"m 918 1346 q 1024 1367 961 1367 q 1139 1328 1086 1367 q 1226 1222 1192 1289 q 1322 938 1292 1097 l 1478 938 l 1551 793 l 1353 793 l 1353 0 l 1172 107 l 1172 793 l 924 793 l 924 0 l 743 100 l 753 381 q 685 365 724 365 q 603 389 646 365 q 611 329 611 363 q 545 158 611 228 q 369 88 479 88 q -26 499 133 88 l 63 550 q 164 360 126 415 q 236 281 201 304 q 311 258 271 258 q 421 299 381 258 q 461 399 461 340 q 443 458 461 431 q 310 394 390 425 l 207 567 q 429 728 429 640 q 416 762 429 747 q 381 776 403 776 q 238 686 314 776 l 103 818 q 315 947 203 947 q 487 849 403 947 q 571 657 571 751 q 535 543 571 597 q 595 532 557 532 q 681 554 633 532 q 743 601 729 576 l 743 793 l 628 793 l 528 938 l 1160 938 q 1018 1007 1088 1007 q 925 981 972 1007 l 811 1124 q 942 1164 864 1164 q 1104 1099 1019 1164 q 1251 938 1189 1035 q 1117 1178 1192 1110 q 1044 1213 1076 1213 q 988 1203 1011 1213 l 918 1346 z "},"क":{"ha":1083,"x_min":-128,"x_max":1211,"o":"m 367 150 q 158 260 265 150 q 51 496 51 369 q 112 655 51 601 q 241 708 172 708 q 356 688 310 708 l 410 519 q 328 535 378 535 q 238 504 279 535 q 197 422 197 474 q 231 342 197 371 q 313 314 264 314 q 399 340 363 314 q 454 413 436 367 l 454 793 l -28 793 l -128 938 l 1111 938 l 1211 793 l 635 793 q 633 740 635 778 q 629 674 631 701 q 743 701 678 701 q 943 583 838 701 q 1049 349 1049 464 q 994 199 1049 260 q 846 138 939 138 q 729 158 783 138 l 685 333 q 783 311 735 311 q 866 342 831 311 q 901 420 901 372 q 871 498 901 468 q 790 528 840 528 q 635 424 692 528 l 635 0 l 454 100 l 460 178 q 367 150 411 150 z "},"ख":{"ha":1049,"x_min":-128,"x_max":1176,"o":"m 99 569 q 175 519 149 519 q 201 542 201 519 l 201 793 l -28 793 l -128 938 l 1076 938 l 1176 793 l 951 793 l 951 0 l 776 99 l 782 160 q 542 71 678 71 q 398 100 468 71 q 278 168 328 129 q 174 272 228 207 q 89 382 119 336 q 17 496 58 428 l 99 569 m 379 508 q 353 403 379 444 q 257 347 326 361 q 364 260 297 293 q 519 226 431 226 q 664 276 607 226 q 501 359 571 294 q 432 510 432 424 q 488 651 432 597 q 620 704 543 704 q 771 650 697 704 l 771 793 l 379 793 l 379 508 m 750 365 q 776 401 761 372 q 792 469 792 429 q 764 535 792 510 q 694 561 736 561 q 628 535 653 561 q 604 467 604 510 q 649 397 604 425 q 750 365 693 368 z "},"ग":{"ha":717,"x_min":-133,"x_max":853,"o":"m 619 793 l 619 0 l 439 110 l 439 793 l 297 793 l 297 400 q 284 315 297 338 q 242 292 271 292 q 106 368 183 292 q 29 503 29 444 q 124 561 29 561 l 124 793 l -28 793 l -133 938 l 744 938 l 853 793 l 619 793 z "},"घ":{"ha":840,"x_min":-128,"x_max":967,"o":"m 79 796 l 28 793 l -28 793 l -128 938 l 868 938 l 967 793 l 743 793 l 743 0 l 563 106 l 571 213 q 414 156 493 156 q 182 253 289 156 q 75 461 75 350 q 158 597 75 551 q 65 732 65 665 q 79 796 65 765 m 367 471 q 233 389 233 471 q 260 330 233 353 q 344 307 286 307 q 461 350 401 307 q 563 451 521 393 l 563 793 l 299 793 q 254 753 272 783 q 236 688 236 722 q 263 628 236 654 q 340 635 300 635 q 428 619 379 635 l 478 451 q 367 471 422 471 z "},"ङ":{"ha":871,"x_min":-128,"x_max":999,"o":"m 375 143 q 508 184 453 143 q 564 276 564 225 q 538 303 564 303 q 457 277 517 303 q 360 251 397 251 q 188 348 274 251 q 103 542 103 444 q 149 660 103 618 q 285 701 196 701 l 447 701 l 447 793 l -28 793 l -128 938 l 899 938 l 999 793 l 618 793 l 618 535 l 326 535 q 242 471 242 535 q 292 413 242 413 q 388 438 325 413 q 485 464 450 464 q 628 373 561 464 q 696 201 696 282 q 617 53 696 121 q 424 -14 538 -14 q 208 61 311 -14 q 46 250 106 136 l 138 311 q 375 143 244 143 m 653 454 l 779 583 l 910 454 l 783 328 l 653 454 z "},"च":{"ha":935,"x_min":-117,"x_max":1050,"o":"m 664 244 q 474 163 576 163 q 269 258 371 163 q 167 458 167 353 q 200 538 167 504 l 81 531 l -19 678 l 503 678 l 603 532 l 474 532 q 363 484 404 522 q 321 399 321 446 q 413 318 321 318 q 545 368 481 318 q 658 504 610 418 l 658 793 l -28 793 l -117 938 l 963 938 l 1050 793 l 838 793 l 838 0 l 657 107 l 664 244 z "},"छ":{"ha":988,"x_min":-128,"x_max":1115,"o":"m 482 304 q 373 319 418 319 q 291 301 328 319 q 254 243 254 283 q 392 164 254 164 q 628 258 529 164 q 522 390 568 314 q 476 535 476 467 q 506 649 476 603 q 582 715 536 694 l 582 793 l -28 793 l -128 938 l 1015 938 l 1115 793 l 757 793 l 757 690 q 853 576 815 647 q 890 418 890 506 q 839 235 890 331 l 999 124 l 917 28 l 769 143 q 468 15 644 15 q 213 106 329 15 q 97 318 97 197 q 140 428 97 385 q 54 581 54 508 q 107 696 54 653 q 260 739 160 739 q 382 724 310 739 l 438 565 q 325 579 368 579 q 215 521 215 579 q 242 474 215 494 q 323 479 281 479 q 417 465 365 479 l 482 304 m 713 583 q 656 548 678 583 q 635 455 635 513 q 700 342 635 397 q 735 412 714 356 q 756 507 756 468 q 713 583 756 583 z "},"ज":{"ha":967,"x_min":-128,"x_max":1094,"o":"m 688 501 l 494 501 q 569 325 569 431 q 522 196 569 243 q 398 149 475 149 q 263 188 321 149 q 158 297 204 226 q 13 607 76 419 l 107 661 q 339 322 207 322 q 417 401 417 322 q 279 628 417 496 l 300 661 l 688 661 l 688 793 l -28 793 l -128 938 l 994 938 l 1094 793 l 868 793 l 868 0 l 688 107 l 688 501 z "},"झ":{"ha":1043,"x_min":-128,"x_max":1171,"o":"m 775 354 q 715 343 749 343 q 626 357 682 343 q 660 242 660 306 q 595 117 660 179 q 435 29 531 56 l 596 -146 l 481 -221 l 303 24 q 147 100 222 40 q 71 215 71 160 q 101 280 71 253 q 171 307 132 307 q 319 181 222 307 q 469 224 403 185 q 535 315 535 263 q 506 342 535 342 q 419 315 476 342 q 326 288 361 288 q 159 383 249 288 q 69 568 69 479 q 247 711 69 711 l 419 711 l 419 793 l -28 793 l -128 938 l 1071 938 l 1171 793 l 946 793 l 946 0 l 765 107 l 775 354 m 767 793 l 594 793 l 594 556 l 293 556 q 231 538 256 556 q 207 494 207 519 q 250 443 207 443 q 340 469 282 443 q 427 494 397 494 q 520 485 457 494 q 651 475 583 475 q 767 543 718 475 l 767 793 z "},"ञ":{"ha":1060,"x_min":-128,"x_max":1188,"o":"m 94 565 q 252 376 186 436 q 392 315 318 315 q 506 355 467 315 q 544 452 544 394 q 519 538 544 510 q 456 567 494 567 q 328 482 389 567 l 192 629 q 369 736 290 736 q 653 517 531 736 q 692 510 664 510 q 783 560 747 510 l 783 793 l -28 793 l -128 938 l 1088 938 l 1188 793 l 963 793 l 963 0 l 782 107 l 794 372 q 747 365 774 365 q 683 386 721 365 q 686 349 686 367 q 623 211 686 272 q 463 150 560 150 q 108 367 294 150 q 11 490 63 421 l 94 565 z "},"ट":{"ha":722,"x_min":-122,"x_max":844,"o":"m 599 793 l 599 503 l 394 503 q 278 465 321 503 q 236 356 236 426 q 276 251 236 285 q 385 217 317 217 q 601 321 511 217 l 715 168 q 462 49 601 49 q 198 174 322 49 q 74 438 74 299 q 144 609 74 549 q 315 669 214 669 l 418 669 l 418 793 l -28 793 l -122 938 l 750 938 l 844 793 l 599 793 z "},"ठ":{"ha":819,"x_min":-122,"x_max":942,"o":"m 603 793 l 603 575 q 727 456 676 531 q 778 294 778 381 q 704 109 778 178 q 484 40 631 40 q 208 159 338 40 q 78 436 78 278 q 142 608 78 549 q 319 667 207 667 l 422 667 l 422 793 l -28 793 l -122 938 l 847 938 l 942 793 l 603 793 m 618 351 q 521 503 618 453 l 383 503 q 280 461 322 503 q 238 348 238 419 q 295 228 238 276 q 436 181 353 181 q 569 231 519 181 q 618 351 618 281 z "},"ड":{"ha":726,"x_min":-122,"x_max":854,"o":"m 367 143 q 500 184 444 143 q 556 276 556 225 q 529 303 556 303 q 449 277 508 303 q 351 251 389 251 q 180 348 265 251 q 94 542 94 444 q 276 688 94 688 l 439 688 l 439 793 l -22 793 l -122 938 l 754 938 l 854 793 l 610 793 l 610 535 l 318 535 q 233 471 233 535 q 248 425 233 444 q 292 406 263 406 q 383 431 321 406 q 481 457 446 457 q 621 374 557 457 q 685 210 685 290 q 606 63 685 131 q 413 -4 526 -4 q 197 67 299 -4 q 38 250 96 138 l 129 311 q 367 143 236 143 z "},"ढ":{"ha":746,"x_min":-83,"x_max":874,"o":"m 619 793 l 619 514 l 390 514 q 269 470 315 514 q 222 355 222 426 q 274 234 222 283 q 396 178 326 185 q 343 308 343 243 q 388 421 343 374 q 502 468 433 468 q 643 399 571 468 q 715 244 715 329 q 647 95 715 158 q 472 32 578 32 q 340 62 410 32 q 208 144 269 92 q 108 278 147 197 q 68 453 68 358 q 133 611 68 547 q 308 675 197 675 l 439 675 l 439 793 l 17 793 l -83 938 l 774 938 l 874 793 l 619 793 m 562 326 q 546 326 562 326 q 504 297 531 326 q 478 239 478 268 q 492 192 478 210 q 563 239 532 206 q 593 306 593 272 q 562 326 593 326 z "},"ण":{"ha":1049,"x_min":-128,"x_max":1176,"o":"m 951 793 l 951 0 l 771 107 l 771 793 l 617 793 l 617 443 q 564 285 617 342 q 419 228 511 228 q 222 310 328 228 q 119 422 160 360 q 79 543 79 483 l 79 793 l -28 793 l -128 938 l 1076 938 l 1176 793 l 951 793 m 347 375 q 436 486 436 375 l 436 793 l 258 793 l 258 485 q 283 405 258 435 q 347 375 308 375 z "},"त":{"ha":807,"x_min":-128,"x_max":935,"o":"m 710 793 l 710 0 l 536 103 l 536 485 l 367 485 q 273 445 306 485 q 240 343 240 406 q 382 63 240 232 l 288 0 q 139 228 200 104 q 78 446 78 351 q 307 653 78 653 l 536 653 l 536 793 l -28 793 l -128 938 l 835 938 l 935 793 l 710 793 z "},"थ":{"ha":986,"x_min":156,"x_max":1114,"o":"m 564 538 q 515 495 532 508 q 451 453 499 482 q 401 422 404 424 q 389 414 397 419 q 378 406 381 408 q 369 399 376 404 q 361 389 363 393 q 354 368 354 379 q 382 326 354 340 q 453 313 410 313 q 708 460 574 313 l 708 793 l 643 793 l 543 938 l 1014 938 l 1114 793 l 889 793 l 889 0 l 708 107 l 717 225 q 528 151 636 151 q 289 259 419 151 q 158 463 158 367 q 183 504 158 490 q 243 536 197 513 q 322 578 289 560 q 392 624 354 597 q 471 736 471 679 q 444 793 471 771 q 385 815 418 815 q 326 792 351 815 q 300 733 300 768 q 333 664 300 697 l 251 611 q 156 785 156 707 q 210 906 156 863 q 333 949 265 949 q 529 847 439 949 q 619 668 619 746 q 564 538 619 590 z "},"द":{"ha":743,"x_min":-114,"x_max":857,"o":"m 604 515 l 383 515 q 224 388 224 515 q 266 276 224 318 q 378 235 308 235 q 450 258 411 235 q 428 336 428 294 q 463 409 428 378 q 545 440 499 440 q 640 378 592 440 q 688 267 688 315 q 629 161 688 219 l 772 -10 l 668 -79 l 549 106 q 444 81 496 81 q 188 199 310 81 q 67 461 67 318 q 127 622 67 561 q 314 682 188 682 l 424 682 l 424 793 l -28 793 l -114 938 l 771 938 l 857 793 l 604 793 l 604 515 z "},"ध":{"ha":844,"x_min":-128,"x_max":971,"o":"m 82 796 l 35 793 l -28 793 l -128 938 l 351 938 l 451 793 l 300 793 q 256 754 274 785 q 238 691 238 724 q 268 633 238 658 q 310 635 275 635 q 433 622 346 635 l 488 444 q 356 468 407 468 q 267 449 304 468 q 229 390 229 431 q 258 326 229 350 q 331 303 286 303 q 567 451 446 303 l 567 793 l 522 793 l 422 938 l 872 938 l 971 793 l 747 793 l 747 0 l 568 106 l 575 218 q 397 157 492 157 q 177 252 281 157 q 74 471 74 347 q 97 547 74 511 q 161 603 121 583 q 115 636 132 622 q 81 676 97 650 q 65 738 65 703 q 82 796 65 772 z "},"न":{"ha":758,"x_min":-128,"x_max":885,"o":"m 488 433 l 290 433 l 290 328 q 277 288 290 304 q 240 272 264 272 q 117 360 188 272 q 47 510 47 449 q 153 592 47 592 l 488 592 l 488 793 l -28 793 l -128 938 l 786 938 l 885 793 l 661 793 l 661 0 l 488 103 l 488 433 z "},"ऩ":{"ha":763,"x_min":-149,"x_max":864,"o":"m 467 433 l 269 433 l 269 328 q 256 288 269 304 q 219 272 243 272 q 97 360 167 272 q 26 510 26 449 q 132 592 26 592 l 467 592 l 467 793 l -49 793 l -149 938 l 765 938 l 864 793 l 640 793 l 640 0 l 467 103 l 467 433 m 313 28 l 186 -99 l 56 28 l 182 157 l 313 28 z "},"प":{"ha":749,"x_min":-128,"x_max":876,"o":"m 651 793 l 651 0 l 474 106 l 483 306 q 393 283 431 283 q 193 387 307 283 q 79 589 79 490 l 79 793 l -28 793 l -128 938 l 776 938 l 876 793 l 651 793 m 336 438 q 411 463 375 438 q 472 524 447 488 l 472 793 l 258 793 l 258 519 q 336 438 258 438 z "},"फ":{"ha":1089,"x_min":-126,"x_max":1217,"o":"m 382 283 q 183 394 299 283 q 68 601 68 506 l 68 793 l -28 793 l -126 938 l 1117 938 l 1217 793 l 629 793 l 628 644 q 738 669 674 669 q 940 552 831 669 q 1050 331 1050 435 q 847 111 1050 111 q 743 124 801 111 l 682 303 q 781 283 732 283 q 862 312 829 283 q 894 392 894 340 q 865 474 894 443 q 788 506 836 506 q 699 476 740 506 q 631 397 657 446 l 631 0 l 450 107 l 460 303 q 382 283 418 283 m 319 442 q 450 524 396 442 l 450 793 l 247 793 l 247 529 q 319 442 247 442 z "},"ब":{"ha":829,"x_min":-128,"x_max":957,"o":"m 732 793 l 732 0 l 547 110 l 557 250 q 476 200 529 224 q 369 176 424 176 q 155 274 254 176 q 56 478 56 371 q 129 649 56 585 q 289 713 203 713 q 515 596 419 713 l 454 517 q 342 572 399 572 q 288 561 317 572 l 464 371 q 553 474 514 413 l 549 793 l -28 793 l -128 938 l 857 938 l 957 793 l 732 793 m 193 423 q 193 400 193 423 q 230 342 193 376 q 310 308 267 308 q 386 322 353 308 l 217 506 q 193 423 193 469 z "},"भ":{"ha":808,"x_min":-125,"x_max":935,"o":"m 711 793 l 711 0 l 531 107 l 531 376 l 317 376 l 317 304 q 267 253 317 253 q 130 340 218 253 q 42 485 42 428 q 140 542 42 542 l 140 738 q 124 777 140 761 q 83 793 108 793 l -28 793 l -125 938 l 33 938 q 174 883 113 938 l 258 810 q 314 672 314 760 l 314 543 l 531 543 l 531 793 l 411 793 l 313 938 l 836 938 l 935 793 l 711 793 z "},"म":{"ha":829,"x_min":-121,"x_max":951,"o":"m 143 540 l 144 540 l 144 793 l -28 793 l -121 938 l 857 938 l 951 793 l 732 793 l 732 0 l 551 107 l 551 374 l 318 374 l 318 301 q 269 250 318 250 q 131 334 219 250 q 43 475 43 418 q 143 540 43 540 m 318 793 l 318 540 l 551 540 l 551 793 l 318 793 z "},"य":{"ha":842,"x_min":-128,"x_max":969,"o":"m 744 793 l 744 0 l 564 107 l 571 243 q 423 179 497 179 q 260 241 349 179 q 109 383 171 303 q 47 518 47 464 q 75 565 47 551 q 228 651 194 626 q 261 700 261 676 q 244 752 261 724 q 204 793 228 781 l -28 793 l -128 938 l 869 938 l 969 793 l 744 793 m 346 349 q 565 497 474 349 l 565 793 l 354 793 q 415 712 389 761 q 442 619 442 663 q 417 551 442 575 q 327 485 393 526 q 253 435 261 443 q 244 417 244 426 q 276 367 244 386 q 346 349 307 349 z "},"र":{"ha":554,"x_min":-128,"x_max":681,"o":"m 411 793 l 411 490 q 285 347 411 393 q 539 56 379 219 l 422 -6 q 46 492 190 272 l 138 572 q 211 518 192 518 q 231 536 231 518 l 231 793 l -28 793 l -128 938 l 582 938 l 681 793 l 411 793 z "},"ऱ":{"ha":554,"x_min":-128,"x_max":681,"o":"m 411 793 l 411 490 q 285 347 411 393 q 539 56 379 219 l 422 -6 q 46 492 190 272 l 138 572 q 211 518 192 518 q 231 536 231 518 l 231 793 l -28 793 l -128 938 l 582 938 l 681 793 l 411 793 m -6 -14 l 121 115 l 251 -14 l 125 -140 l -6 -14 z "},"ल":{"ha":1054,"x_min":-128,"x_max":1182,"o":"m 421 439 q 431 514 421 481 q 352 531 400 531 q 268 490 304 531 q 232 394 232 450 q 251 291 232 338 q 308 201 271 244 q 453 64 367 132 l 364 0 q 263 92 304 51 q 169 194 221 132 q 60 451 60 325 q 124 623 60 554 q 292 692 189 692 q 478 611 394 692 q 643 689 539 689 q 776 640 704 689 l 776 793 l -28 793 l -128 938 l 1082 938 l 1182 793 l 957 793 l 957 0 l 776 107 l 776 525 q 719 535 753 535 q 624 490 654 535 q 593 372 593 444 q 626 226 593 300 l 464 283 q 421 439 421 358 z "},"ळ":{"ha":1054,"x_min":-128,"x_max":1182,"o":"m 374 107 q 168 224 281 107 q 56 448 56 340 q 131 633 56 556 q 306 710 207 710 q 518 607 404 710 q 657 707 576 697 l 657 793 l -28 793 l -128 938 l 1082 938 l 1182 793 l 832 793 l 832 654 q 957 521 901 604 q 1013 368 1013 438 q 937 185 1013 263 q 760 107 861 107 q 549 208 658 107 q 374 107 483 107 m 378 546 q 264 501 308 546 q 219 378 219 456 q 246 299 219 326 q 315 271 272 271 q 384 311 357 271 q 440 431 411 351 q 467 508 458 486 q 378 546 419 546 m 688 264 q 802 312 756 264 q 849 436 849 360 q 823 515 849 486 q 762 544 797 544 q 701 519 726 544 q 666 473 676 494 q 642 419 656 451 q 628 383 628 386 q 611 342 622 368 q 596 303 600 317 q 688 264 647 264 z "},"ऴ":{"ha":1054,"x_min":-128,"x_max":1182,"o":"m 374 107 q 168 224 281 107 q 56 448 56 340 q 131 633 56 556 q 306 710 207 710 q 518 607 404 710 q 657 707 576 697 l 657 793 l -28 793 l -128 938 l 1082 938 l 1182 793 l 832 793 l 832 654 q 957 521 901 604 q 1013 368 1013 438 q 937 185 1013 263 q 760 107 861 107 q 549 208 658 107 q 374 107 483 107 m 378 546 q 264 501 308 546 q 219 378 219 456 q 246 299 219 326 q 315 271 272 271 q 384 311 357 271 q 440 431 411 351 q 467 508 458 486 q 378 546 419 546 m 688 264 q 802 312 756 264 q 849 436 849 360 q 823 515 849 486 q 762 544 797 544 q 701 519 726 544 q 666 473 676 494 q 642 419 656 451 q 628 383 628 386 q 611 342 622 368 q 596 303 600 317 q 688 264 647 264 m 615 -100 l 742 29 l 872 -100 l 746 -226 l 615 -100 z "},"व":{"ha":822,"x_min":-128,"x_max":951,"o":"m 725 793 l 725 0 l 540 108 l 549 233 q 365 154 464 154 q 161 263 267 154 q 56 485 56 371 q 122 662 56 599 q 269 725 188 725 q 508 588 400 725 l 461 508 q 351 563 407 563 q 254 513 296 563 q 213 403 213 463 q 306 310 213 310 q 435 365 369 310 q 547 497 501 419 l 542 793 l -28 793 l -128 938 l 851 938 l 951 793 l 725 793 z "},"श":{"ha":1032,"x_min":79,"x_max":1140,"o":"m 300 486 q 445 538 392 486 q 499 675 499 589 q 472 755 499 724 q 409 786 446 786 q 351 764 372 786 q 331 706 331 742 q 410 617 331 651 l 356 543 q 221 625 286 564 q 156 763 156 686 q 208 896 156 840 q 338 951 260 951 q 549 833 453 951 q 644 597 644 715 q 565 401 644 478 q 356 317 485 325 q 593 69 435 228 l 481 0 q 79 482 151 381 l 171 564 q 300 486 246 486 m 935 793 l 935 0 l 754 107 l 754 793 l 653 793 l 572 938 l 1060 938 l 1140 793 l 935 793 z "},"ष":{"ha":778,"x_min":-121,"x_max":906,"o":"m 681 793 l 681 0 l 500 107 l 511 297 q 390 265 456 265 q 192 364 293 265 q 79 568 90 463 l 79 793 l -21 793 l -121 938 l 806 938 l 906 793 l 681 793 m 254 492 q 282 426 254 449 q 359 403 310 403 q 469 449 408 403 l 254 674 l 254 492 m 500 793 l 274 793 l 500 542 l 500 793 z "},"स":{"ha":918,"x_min":-112,"x_max":1046,"o":"m 568 342 q 367 425 475 342 q 267 349 344 371 q 506 64 382 192 l 386 -1 q 18 492 185 242 l 108 572 q 186 518 165 518 q 201 536 201 518 l 201 793 l -12 793 l -112 938 l 946 938 l 1046 793 l 821 793 l 821 0 l 644 104 l 654 367 q 568 342 619 342 m 382 793 l 382 543 q 496 499 431 499 q 644 557 589 499 l 644 793 l 382 793 z "},"ह":{"ha":714,"x_min":-107,"x_max":842,"o":"m 514 279 q 450 317 514 317 q 326 272 386 317 q 267 166 267 226 q 301 55 267 106 q 392 -36 336 4 q 578 -147 486 -106 l 481 -219 q 276 -74 367 -151 q 96 215 96 79 q 174 388 96 314 q 71 578 71 489 q 238 715 71 715 l 435 715 l 435 793 l -7 793 l -107 938 l 742 938 l 842 793 l 610 793 l 610 558 l 315 558 q 239 499 239 558 q 265 447 239 476 q 376 471 324 471 q 576 383 494 471 q 658 194 658 296 q 519 10 658 74 l 389 149 q 482 210 450 172 q 514 279 514 247 z "},"़":{"ha":0,"x_min":-696,"x_max":-439,"o":"m -696 -31 l -569 99 l -439 -31 l -565 -157 l -696 -31 z "},"ऽ":{"ha":844,"x_min":57,"x_max":708,"o":"m 583 479 q 708 259 708 369 q 635 69 708 149 q 442 -11 563 -11 q 217 64 322 -11 q 57 228 111 139 l 140 307 q 381 154 240 154 q 495 195 460 154 q 531 286 531 236 q 446 433 531 358 l 244 619 q 147 799 147 710 q 198 898 147 858 q 325 938 249 938 l 635 938 l 707 793 l 410 789 q 363 773 381 789 q 344 733 344 757 q 359 688 344 710 q 419 624 374 667 l 583 479 z "},"ा":{"ha":375,"x_min":-107,"x_max":476,"o":"m 278 793 l 278 0 l 97 107 l 97 793 l -33 793 l -107 938 l 403 938 l 476 793 l 278 793 z "},"ि":{"ha":375,"x_min":-114,"x_max":1021,"o":"m 97 793 l -28 793 l -114 938 l 93 938 q 39 1083 39 1007 q 134 1256 39 1199 q 367 1314 229 1314 q 726 1240 556 1314 q 1021 1051 896 1167 l 951 990 q 715 1107 847 1068 q 461 1146 582 1146 q 213 1018 213 1146 q 257 938 213 971 l 403 938 l 489 793 l 278 793 l 278 0 l 97 107 l 97 793 z "},"ी":{"ha":375,"x_min":-383,"x_max":503,"o":"m 278 793 l 278 0 l 97 107 l 97 793 l -28 793 l -128 938 l 132 938 q -122 1188 10 1188 q -210 1114 -210 1188 q -189 1062 -210 1086 q -143 1025 -168 1038 l -239 968 q -337 1044 -290 994 q -383 1167 -383 1093 q -327 1293 -383 1242 q -179 1344 -271 1344 q 250 938 61 1344 l 403 938 l 503 793 l 278 793 z "},"ु":{"ha":0,"x_min":-625,"x_max":24,"o":"m -381 -40 q -344 63 -381 11 q -220 115 -307 115 q -55 25 -133 115 q 24 -145 24 -65 q -41 -288 24 -225 q -219 -351 -106 -351 q -441 -274 -333 -351 q -625 -90 -549 -197 l -546 -35 q -285 -206 -407 -206 q -165 -167 -214 -206 q -115 -76 -115 -129 q -164 -24 -115 -24 q -217 -58 -196 -24 q -242 -147 -239 -93 l -379 -65 q -381 -40 -381 -53 z "},"ू":{"ha":0,"x_min":-462,"x_max":196,"o":"m -315 -154 q -298 -197 -315 -181 q -253 -214 -281 -214 q -205 -191 -225 -214 q -174 -106 -185 -168 l -29 -194 q -197 -351 -56 -351 q -373 -263 -283 -351 q -462 -87 -462 -175 q -400 58 -462 1 q -247 115 -337 115 q 196 -249 -28 115 l 119 -314 q -193 -43 -60 -43 q -279 -75 -243 -43 q -315 -154 -315 -107 z "},"ृ":{"ha":0,"x_min":-450,"x_max":97,"o":"m -97 0 q -260 -82 -222 -51 q -297 -149 -297 -112 q -270 -207 -297 -186 q -198 -228 -243 -228 q -106 -203 -153 -228 q -33 -143 -60 -178 l 97 -253 q 1 -333 64 -294 q -135 -371 -61 -371 q -347 -278 -244 -371 q -450 -99 -450 -186 q -275 108 -450 13 l -97 6 l -97 0 z "},"ॅ":{"ha":0,"x_min":-525,"x_max":99,"o":"m -240 1154 q -39 1321 -126 1154 l 99 1217 q -16 1065 47 1122 q -176 1007 -79 1007 q -525 1250 -369 1007 l -447 1307 q -390 1230 -412 1257 q -326 1178 -367 1203 q -240 1154 -286 1154 z "},"ॆ":{"ha":0,"x_min":-836,"x_max":-136,"o":"m -461 1032 l -524 1032 q -769 1136 -700 1032 q -836 1272 -800 1182 l -753 1329 q -701 1231 -722 1251 q -537 1190 -661 1190 l -479 1190 q -228 1119 -297 1190 q -172 1037 -192 1081 q -136 922 -153 993 l -243 886 q -275 976 -260 950 q -461 1032 -310 1032 z "},"े":{"ha":0,"x_min":-668,"x_max":-121,"o":"m -668 1231 q -512 1285 -576 1285 q -394 1256 -447 1285 q -307 1192 -342 1228 q -231 1090 -272 1157 q -172 985 -190 1024 q -121 875 -154 947 l -212 828 q -344 1049 -293 986 q -445 1113 -394 1113 q -553 1072 -496 1114 l -668 1231 z "},"ै":{"ha":0,"x_min":-642,"x_max":-117,"o":"m -535 1346 q -424 1367 -492 1367 q -299 1316 -357 1367 q -206 1183 -242 1265 q -117 857 -139 1032 l -218 842 q -364 989 -282 947 q -440 1007 -400 1007 q -528 981 -481 1007 l -642 1124 q -511 1164 -589 1164 q -349 1099 -433 1164 q -201 938 -264 1035 q -336 1178 -261 1110 q -409 1213 -376 1213 q -465 1203 -442 1213 l -535 1346 z "},"ॉ":{"ha":401,"x_min":-122,"x_max":501,"o":"m 297 793 l 297 0 l 117 107 l 117 793 l -14 793 l -87 938 l 422 938 l 496 793 l 297 793 m 163 1154 q 364 1321 276 1154 l 501 1217 q 387 1065 450 1122 q 226 1007 324 1007 q -122 1250 33 1007 l -44 1307 q 13 1230 -10 1257 q 76 1178 36 1203 q 163 1154 117 1154 z "},"ॊ":{"ha":401,"x_min":-440,"x_max":496,"o":"m 297 793 l 297 0 l 117 107 l 117 793 l -14 793 l -87 938 l 138 938 q 78 1012 118 992 q -65 1032 38 1032 l -128 1032 q -374 1136 -304 1032 q -440 1272 -404 1182 l -357 1329 q -306 1231 -326 1251 q -142 1190 -265 1190 l -83 1190 q 164 1122 93 1190 q 219 1046 200 1088 q 256 938 239 1004 l 422 938 l 496 793 l 297 793 z "},"ो":{"ha":401,"x_min":-272,"x_max":496,"o":"m 297 793 l 297 0 l 117 107 l 117 793 l -14 793 l -87 938 l 126 938 q -57 1114 31 1114 q -157 1072 -100 1114 l -272 1231 q -113 1285 -181 1285 q 9 1255 -46 1285 q 108 1169 64 1225 q 246 938 183 1074 l 422 938 l 496 793 l 297 793 z "},"ौ":{"ha":401,"x_min":-246,"x_max":496,"o":"m 297 793 l 297 0 l 117 107 l 117 793 l -14 793 l -87 938 l 103 938 q -39 1007 31 1007 q -132 981 -85 1007 l -246 1124 q -115 1164 -193 1164 q 47 1099 -37 1164 q 194 938 132 1035 q 58 1178 135 1110 q -13 1213 19 1213 q -69 1203 -46 1213 l -139 1346 q -33 1367 -96 1367 q 82 1328 29 1367 q 169 1222 135 1289 q 265 938 235 1097 l 422 938 l 496 793 l 297 793 z "},"्":{"ha":0,"x_min":-400,"x_max":111,"o":"m -400 -81 q -290 -46 -342 -46 q -194 -64 -237 -46 q -119 -103 -150 -82 q -48 -167 -89 -124 q 11 -233 -7 -210 q 67 -306 29 -256 q 111 -365 104 -357 l 26 -424 q -8 -376 22 -418 q -54 -315 -37 -335 q -103 -265 -71 -296 q -228 -207 -161 -207 q -301 -224 -264 -207 l -400 -81 z "},"ॐ":{"ha":1608,"x_min":0,"x_max":0,"o":""},"॑":{"ha":415,"x_min":139,"x_max":276,"o":"m 276 1018 l 139 1018 l 139 1328 l 276 1328 l 276 1018 z "},"॒":{"ha":0,"x_min":-687,"x_max":-128,"o":"m -128 -153 l -128 -272 l -687 -272 l -687 -153 l -128 -153 z "},"॓":{"ha":608,"x_min":139,"x_max":469,"o":"m 469 1101 l 360 1018 l 139 1290 l 250 1376 l 469 1101 z "},"॔":{"ha":606,"x_min":139,"x_max":467,"o":"m 251 1006 l 139 1090 l 358 1365 l 467 1283 l 251 1006 z "},"क़":{"ha":1096,"x_min":-112,"x_max":1226,"o":"m 382 150 q 174 260 281 150 q 67 496 67 369 q 127 655 67 601 q 256 708 188 708 q 371 688 325 708 l 425 519 q 344 535 393 535 q 253 504 294 535 q 213 422 213 474 q 246 342 213 371 q 328 314 279 314 q 415 340 378 314 q 469 413 451 367 l 469 793 l -12 793 l -112 938 l 1126 938 l 1226 793 l 650 793 q 648 740 650 778 q 644 674 646 701 q 758 701 693 701 q 958 583 853 701 q 1064 349 1064 464 q 1009 199 1064 260 q 861 138 954 138 q 744 158 799 138 l 700 333 q 798 311 750 311 q 881 342 846 311 q 917 420 917 372 q 886 498 917 468 q 806 528 856 528 q 650 424 707 528 l 650 0 l 469 100 l 475 178 q 382 150 426 150 m 114 -31 l 240 99 l 371 -31 l 244 -157 l 114 -31 z "},"ख़":{"ha":1094,"x_min":-122,"x_max":1182,"o":"m 104 569 q 181 519 154 519 q 207 542 207 519 l 207 793 l -22 793 l -122 938 l 1082 938 l 1182 793 l 957 793 l 957 0 l 782 99 l 788 160 q 547 71 683 71 q 403 100 474 71 q 283 168 333 129 q 179 272 233 207 q 94 382 125 336 q 22 496 64 428 l 104 569 m 385 508 q 358 403 385 444 q 263 347 332 361 q 369 260 303 293 q 524 226 436 226 q 669 276 613 226 q 507 359 576 294 q 438 510 438 424 q 493 651 438 597 q 626 704 549 704 q 776 650 703 704 l 776 793 l 385 793 l 385 508 m 756 365 q 782 401 767 372 q 797 469 797 429 q 769 535 797 510 q 700 561 742 561 q 634 535 658 561 q 610 467 610 510 q 654 397 610 425 q 756 365 699 368 m 85 -31 l 211 99 l 342 -31 l 215 -157 l 85 -31 z "},"ग़":{"ha":760,"x_min":-112,"x_max":874,"o":"m 640 793 l 640 0 l 460 110 l 460 793 l 318 793 l 318 400 q 305 315 318 338 q 263 292 292 292 q 127 368 204 292 q 50 503 50 444 q 144 561 50 561 l 144 793 l -7 793 l -112 938 l 765 938 l 874 793 l 640 793 m 108 11 l 235 140 l 365 11 l 239 -115 l 108 11 z "},"ज़":{"ha":990,"x_min":-126,"x_max":1096,"o":"m 689 501 l 496 501 q 571 325 571 431 q 524 196 571 243 q 399 149 476 149 q 264 188 322 149 q 158 297 206 226 q 14 607 78 419 l 108 661 q 340 322 208 322 q 418 401 418 322 q 281 628 418 496 l 301 661 l 689 661 l 689 793 l -26 793 l -126 938 l 996 938 l 1096 793 l 869 793 l 869 0 l 689 107 l 689 501 m 83 -31 l 210 99 l 340 -31 l 214 -157 l 83 -31 z "},"ड़":{"ha":715,"x_min":-128,"x_max":849,"o":"m 361 143 q 494 184 439 143 q 550 276 550 225 q 524 303 550 303 q 443 277 503 303 q 346 251 383 251 q 174 348 260 251 q 89 542 89 444 q 271 688 89 688 l 433 688 l 433 793 l -28 793 l -128 938 l 749 938 l 849 793 l 604 793 l 604 535 l 313 535 q 228 471 228 535 q 242 425 228 444 q 286 406 257 406 q 378 431 315 406 q 475 457 440 457 q 615 374 551 457 q 679 210 679 290 q 600 63 679 131 q 407 -4 521 -4 q 192 67 293 -4 q 32 250 90 138 l 124 311 q 361 143 231 143 m 281 -207 l 407 -78 l 538 -207 l 411 -333 l 281 -207 z "},"ढ़":{"ha":746,"x_min":-83,"x_max":874,"o":"m 619 793 l 619 514 l 390 514 q 269 470 315 514 q 222 355 222 426 q 274 234 222 283 q 396 178 326 185 q 343 308 343 243 q 388 421 343 374 q 502 468 433 468 q 643 399 571 468 q 715 244 715 329 q 647 95 715 158 q 472 32 578 32 q 340 62 410 32 q 208 144 269 92 q 108 278 147 197 q 68 453 68 358 q 133 611 68 547 q 308 675 197 675 l 439 675 l 439 793 l 17 793 l -83 938 l 774 938 l 874 793 l 619 793 m 562 326 q 546 326 562 326 q 504 297 531 326 q 478 239 478 268 q 492 192 478 210 q 563 239 532 206 q 593 306 593 272 q 562 326 593 326 m 336 -162 l 463 -33 l 593 -162 l 467 -289 l 336 -162 z "},"फ़":{"ha":1089,"x_min":-126,"x_max":1217,"o":"m 382 283 q 183 394 299 283 q 68 601 68 506 l 68 793 l -28 793 l -126 938 l 1117 938 l 1217 793 l 629 793 l 628 644 q 738 669 674 669 q 940 552 831 669 q 1050 331 1050 435 q 847 111 1050 111 q 743 124 801 111 l 682 303 q 781 283 732 283 q 862 312 829 283 q 894 392 894 340 q 865 474 894 443 q 788 506 836 506 q 699 476 740 506 q 631 397 657 446 l 631 0 l 450 107 l 460 303 q 382 283 418 283 m 319 442 q 450 524 396 442 l 450 793 l 247 793 l 247 529 q 319 442 247 442 m 124 39 l 250 168 l 381 39 l 254 -87 l 124 39 z "},"य़":{"ha":853,"x_min":-153,"x_max":944,"o":"m 719 793 l 719 0 l 539 107 l 546 243 q 398 179 472 179 q 235 241 324 179 q 84 383 146 303 q 22 518 22 464 q 50 565 22 551 q 203 651 169 626 q 236 700 236 676 q 219 752 236 724 q 179 793 203 781 l -53 793 l -153 938 l 844 938 l 944 793 l 719 793 m 321 349 q 540 497 449 349 l 540 793 l 329 793 q 390 712 364 761 q 417 619 417 663 q 392 551 417 575 q 302 485 368 526 q 228 435 236 443 q 219 417 219 426 q 251 367 219 386 q 321 349 282 349 m 90 -31 l 217 99 l 347 -31 l 221 -157 l 90 -31 z "},"ॠ":{"ha":1281,"x_min":-132,"x_max":1417,"o":"m 996 417 q 844 378 922 378 q 700 404 767 378 l 700 -1 l 519 108 l 519 297 l 282 92 l 142 194 l 524 461 q 435 522 488 497 q 336 546 383 546 q 146 454 247 546 l 33 597 q 272 699 144 699 q 519 582 400 699 l 519 793 l -26 793 l -132 938 l 1308 938 l 1417 793 l 700 793 l 700 510 q 763 506 725 506 q 893 542 858 506 q 861 626 861 589 q 891 688 861 664 q 960 713 921 713 q 1054 663 1000 713 q 1108 551 1108 613 q 1078 478 1108 513 q 1221 229 1221 338 q 1165 84 1221 144 q 1015 24 1110 24 q 760 142 876 24 l 824 215 q 942 168 878 168 q 1060 268 1060 168 q 996 417 1060 343 z "},"ॡ":{"ha":1054,"x_min":-128,"x_max":1282,"o":"m 993 -222 q 967 -233 993 -222 q 914 -270 940 -244 q 888 -331 888 -296 q 915 -387 888 -367 q 987 -408 942 -408 q 1078 -383 1032 -408 q 1151 -324 1125 -358 l 1282 -433 q 1186 -513 1249 -475 q 1050 -551 1124 -551 q 838 -459 940 -551 q 735 -279 735 -367 q 767 -183 735 -229 q 651 -78 697 -142 q 604 40 604 -14 q 776 246 604 151 l 776 525 q 719 535 753 535 q 624 490 654 535 q 593 372 593 444 q 626 226 593 300 l 464 283 q 421 439 421 358 q 431 514 421 481 q 352 531 400 531 q 268 490 304 531 q 232 394 232 450 q 251 291 232 338 q 308 201 271 244 q 453 64 367 132 l 364 0 q 263 92 304 51 q 169 194 221 132 q 60 451 60 325 q 124 623 60 554 q 292 692 189 692 q 478 611 394 692 q 643 689 539 689 q 776 640 704 689 l 776 793 l -28 793 l -128 938 l 1082 938 l 1182 793 l 957 793 l 957 139 q 795 56 832 88 q 758 -11 758 25 q 784 -68 757 -47 q 849 -89 811 -89 q 1021 -4 951 -89 l 1151 -114 q 1086 -174 1125 -146 l 1058 -192 q 993 -222 1046 -200 z "},"।":{"ha":514,"x_min":167,"x_max":347,"o":"m 347 831 l 347 0 l 167 107 l 167 938 l 347 831 z "},"॥":{"ha":865,"x_min":167,"x_max":749,"o":"m 347 831 l 347 0 l 167 107 l 167 938 l 347 831 m 749 831 l 749 0 l 568 107 l 568 938 l 749 831 z "},"०":{"ha":914,"x_min":126,"x_max":804,"o":"m 481 790 q 349 700 399 790 q 299 401 299 610 q 343 197 299 271 q 460 122 388 122 q 583 222 533 122 q 633 519 633 321 q 590 721 633 651 q 481 790 547 790 m 675 824 q 768 667 732 768 q 804 440 804 565 q 774 224 804 315 q 694 83 743 132 q 489 -14 597 -14 q 314 56 406 -14 q 223 149 264 93 q 154 299 182 206 q 126 510 126 392 q 160 719 126 629 q 244 853 193 810 q 436 936 342 936 q 675 824 560 936 z "},"१":{"ha":649,"x_min":85,"x_max":615,"o":"m 521 1 q 581 -116 581 -54 q 521 -237 581 -178 l 386 -133 q 426 -62 426 -97 q 385 14 426 -26 l 157 228 q 110 314 110 274 q 144 361 110 336 q 224 417 179 386 q 293 465 269 447 q 352 508 317 482 q 406 554 388 535 q 444 597 425 574 q 482 689 482 640 q 451 772 482 738 q 369 807 421 807 q 283 772 318 807 q 247 681 247 738 q 324 571 247 625 l 265 515 q 143 613 201 551 q 85 755 85 675 q 146 892 85 835 q 290 949 207 949 q 512 832 408 949 q 615 604 615 715 q 591 515 615 550 q 552 463 567 481 q 505 417 538 444 q 454 374 472 389 q 393 326 436 360 q 326 274 350 293 q 301 231 301 256 q 331 179 301 207 l 521 1 z "},"२":{"ha":729,"x_min":64,"x_max":661,"o":"m 64 844 q 345 933 229 933 q 561 806 461 933 q 661 546 661 679 q 587 379 661 456 q 401 263 513 303 l 640 -90 l 522 -164 l 286 236 q 231 233 269 233 q 144 295 192 233 q 96 413 96 357 q 138 476 96 449 q 217 503 181 503 q 319 411 267 503 q 501 521 440 442 q 539 630 539 569 q 494 728 539 690 q 386 767 449 767 q 157 689 278 767 l 64 844 z "},"३":{"ha":744,"x_min":72,"x_max":674,"o":"m 310 -4 q 161 78 233 17 q 89 182 89 140 q 124 261 89 224 q 197 299 160 299 q 268 258 233 299 q 354 135 303 218 q 472 192 417 142 q 528 319 528 243 q 474 442 528 394 q 314 364 414 397 l 228 508 l 229 514 q 476 703 476 590 q 450 769 476 743 q 372 794 424 794 q 279 770 319 794 q 190 692 239 746 l 72 814 q 317 939 193 939 q 508 844 418 939 q 599 661 599 749 q 544 506 599 574 q 674 258 674 397 q 606 99 674 169 q 433 0 539 28 l 558 -185 l 450 -253 l 310 -4 z "},"४":{"ha":863,"x_min":22,"x_max":808,"o":"m 700 190 q 637 51 700 113 q 475 -11 574 -11 q 277 95 376 -11 q 178 293 178 201 q 246 443 178 367 l 336 546 l 22 878 l 103 944 l 404 624 l 678 933 l 808 828 l 524 496 l 563 456 q 700 190 700 310 m 374 319 q 315 206 315 247 q 338 139 315 164 q 410 114 361 114 q 505 156 460 114 q 550 260 550 199 q 526 332 550 296 q 457 418 503 368 l 374 319 z "},"५":{"ha":861,"x_min":110,"x_max":757,"o":"m 463 -11 q 438 -10 449 -11 l 579 -211 l 481 -274 l 315 28 q 167 114 225 65 q 110 214 110 163 q 137 274 110 244 q 196 303 164 303 q 364 139 261 303 q 424 122 388 122 q 618 439 618 122 q 489 382 553 382 q 344 427 425 382 q 200 551 263 472 q 138 722 138 631 q 189 933 138 813 l 360 843 q 293 640 293 729 q 329 544 293 578 q 417 510 365 510 q 515 544 468 510 q 593 622 563 579 q 549 922 581 761 l 724 844 q 757 489 757 615 q 722 196 757 290 q 668 89 700 139 q 463 -11 603 -11 z "},"६":{"ha":831,"x_min":111,"x_max":864,"o":"m 474 433 q 279 271 279 433 q 326 164 279 210 q 440 118 374 118 q 542 160 506 118 q 515 241 515 208 q 546 297 515 274 q 616 321 576 321 q 697 260 656 321 q 739 158 739 199 q 715 82 739 118 l 864 -124 l 754 -193 l 632 11 q 526 -11 583 -11 q 251 111 371 -11 q 131 361 131 233 q 213 531 131 468 q 111 733 111 621 q 172 869 111 814 q 376 939 249 939 q 560 906 460 939 l 603 751 l 599 747 q 411 790 489 790 q 354 783 379 790 q 264 661 264 760 q 296 571 264 610 q 416 589 351 589 q 551 574 481 589 l 613 424 l 608 418 q 474 433 532 433 z "},"७":{"ha":1111,"x_min":38,"x_max":1060,"o":"m 749 304 q 546 389 647 304 q 444 611 444 474 q 508 773 444 707 q 668 839 572 839 q 935 688 810 839 q 1060 372 1060 536 q 1015 196 1060 282 q 878 49 971 110 q 661 -11 785 -11 q 433 49 538 -11 q 263 200 329 108 q 147 415 196 292 q 38 888 61 628 l 149 939 q 281 400 176 622 q 419 217 333 283 q 613 150 504 150 q 841 242 763 150 q 919 461 919 333 q 866 621 919 561 q 739 681 813 681 q 648 645 689 681 q 607 535 607 610 q 678 428 607 461 q 789 403 731 403 q 828 406 808 403 l 829 404 l 765 304 q 749 304 757 304 z "},"८":{"ha":763,"x_min":50,"x_max":733,"o":"m 419 -21 q 253 32 340 -21 q 108 166 167 85 q 50 325 50 247 q 101 465 50 403 l 488 939 l 643 846 l 290 389 q 228 254 228 308 q 267 167 228 200 q 357 135 306 135 q 488 194 429 135 q 581 342 547 254 l 586 343 l 733 238 q 419 -21 631 -21 z "},"९":{"ha":671,"x_min":24,"x_max":617,"o":"m 94 472 q 24 677 24 571 q 107 865 24 783 q 289 946 190 946 q 519 840 421 946 q 617 628 617 735 q 532 445 617 521 q 314 343 447 369 l 564 -21 q 600 -118 600 -74 q 506 -232 600 -185 l 361 -115 q 429 -35 429 -85 q 397 43 429 -3 l 94 472 m 482 708 q 454 774 482 750 q 363 799 426 799 q 243 747 300 799 q 186 610 186 694 q 226 483 186 526 q 398 556 314 497 q 482 708 482 615 z "},"॰":{"ha":707,"x_min":131,"x_max":576,"o":"m 341 617 q 389 618 341 617 q 506 551 436 618 q 576 398 576 485 q 519 253 576 311 q 368 190 461 194 q 201 257 272 190 q 131 411 131 324 q 188 558 131 499 q 341 617 246 617 m 310 296 q 408 342 360 296 q 457 447 457 388 q 441 495 457 478 q 397 513 425 513 q 297 467 346 513 q 249 361 249 421 q 265 313 249 331 q 310 296 282 296 z "},"ॽ":{"ha":853,"x_min":174,"x_max":769,"o":"m 565 -37 l 560 -37 l 400 67 l 400 349 q 432 472 400 406 q 503 588 464 539 q 604 772 604 718 q 497 847 604 847 q 308 724 389 847 l 174 857 q 286 968 218 929 q 431 1007 354 1007 q 652 904 535 1007 q 769 715 769 801 q 738 613 769 669 q 667 510 706 556 q 597 398 629 464 q 565 269 565 332 l 565 -37 z "},"​":{"ha":0,"x_min":0,"x_max":0,"o":""},"‌":{"ha":0,"x_min":-32,"x_max":33,"o":"m 33 -319 l -32 -319 l -32 1126 l 33 1126 l 33 -319 z "},"‍":{"ha":0,"x_min":-176,"x_max":179,"o":"m 33 -319 l -32 -319 l -32 882 l -128 781 l -174 826 l -44 956 l -176 1088 l -131 1133 l 1 1001 l 135 1133 l 179 1089 l 46 956 l 179 824 l 133 778 l 33 882 l 33 -319 z "},"–":{"ha":972,"x_min":104,"x_max":864,"o":"m 864 408 l 176 408 l 104 553 l 104 567 l 790 567 l 864 421 l 864 408 z "},"—":{"ha":1065,"x_min":104,"x_max":942,"o":"m 942 408 l 176 408 l 104 553 l 104 567 l 869 567 l 942 421 l 942 408 z "},"‘":{"ha":429,"x_min":111,"x_max":346,"o":"m 111 931 q 148 1092 111 1008 q 236 1236 185 1176 l 336 1192 q 251 997 251 1076 q 346 865 251 917 l 346 854 l 264 718 q 111 931 111 775 z "},"’":{"ha":429,"x_min":83,"x_max":319,"o":"m 83 1101 l 165 1236 q 318 1025 318 1179 q 283 863 319 947 q 193 718 246 779 l 93 764 q 178 956 179 875 q 83 1089 176 1038 l 83 1101 z "},"‚":{"ha":428,"x_min":83,"x_max":318,"o":"m 83 194 l 165 329 q 317 119 317 275 q 281 -44 318 40 q 192 -187 244 -129 l 93 -142 q 176 50 178 -32 q 83 183 175 132 l 83 194 z "},"“":{"ha":700,"x_min":111,"x_max":617,"o":"m 111 907 q 147 1069 111 985 q 236 1214 183 1154 l 336 1168 q 251 978 251 1063 q 344 842 251 894 l 344 831 l 264 696 q 111 907 111 751 m 606 1168 q 521 977 521 1058 q 617 842 521 896 l 617 831 l 535 696 q 381 907 383 751 q 417 1069 381 985 q 507 1214 454 1153 l 606 1168 z "},"”":{"ha":700,"x_min":83,"x_max":589,"o":"m 589 1001 q 553 839 589 924 q 464 696 517 754 l 364 740 q 449 933 449 851 q 354 1067 449 1014 l 354 1078 l 436 1214 q 589 1001 589 1157 m 83 1078 l 167 1214 q 318 1001 318 1157 q 283 840 319 924 q 193 696 246 756 l 94 740 q 179 931 179 858 q 83 1067 176 1014 l 83 1078 z "},"„":{"ha":700,"x_min":83,"x_max":589,"o":"m 589 118 q 553 -44 589 40 q 464 -187 517 -129 l 364 -143 q 449 49 449 -32 q 354 183 449 131 l 354 194 l 436 331 q 589 118 589 274 m 83 194 l 167 331 q 318 118 318 274 q 283 -44 319 40 q 193 -187 246 -128 l 94 -143 q 179 47 179 -25 q 83 183 176 131 l 83 194 z "},"†":{"ha":942,"x_min":104,"x_max":838,"o":"m 838 704 l 557 704 l 557 -71 l 544 -71 l 386 54 l 386 704 l 176 704 l 104 850 l 104 863 l 386 863 l 386 1183 l 399 1183 l 557 1058 l 557 863 l 765 863 l 838 718 l 838 704 z "},"‡":{"ha":942,"x_min":104,"x_max":838,"o":"m 838 767 l 557 767 l 557 410 l 765 410 l 838 264 l 838 251 l 557 251 l 557 -8 l 544 -8 l 386 117 l 386 251 l 176 251 l 104 397 l 104 410 l 386 410 l 386 767 l 176 767 l 104 913 l 104 925 l 386 925 l 386 1246 l 399 1246 l 557 1121 l 557 925 l 765 925 l 838 781 l 838 767 z "},"•":{"ha":485,"x_min":100,"x_max":385,"o":"m 385 475 q 385 446 385 475 q 342 375 385 417 q 242 333 300 333 q 142 375 183 333 q 100 475 100 417 q 142 576 100 533 q 242 618 183 618 q 342 576 300 618 q 385 475 385 533 z "},"…":{"ha":1024,"x_min":65,"x_max":958,"o":"m 304 164 q 304 140 304 164 q 269 80 304 115 q 185 44 233 44 q 101 80 136 44 q 65 164 65 115 q 100 248 65 213 q 184 283 135 283 q 269 248 233 283 q 304 164 304 213 m 632 164 q 632 140 632 164 q 596 80 632 115 q 511 44 560 44 q 427 80 463 44 q 392 164 392 115 q 426 248 392 213 q 511 283 461 283 q 597 248 561 283 q 632 164 632 213 m 923 80 q 905 62 923 80 q 839 44 888 44 q 755 80 790 44 q 719 164 719 115 q 755 248 719 213 q 839 283 790 283 q 923 248 888 283 q 958 164 958 213 q 923 80 958 115 z "},"‰":{"ha":1546,"x_min":56,"x_max":1514,"o":"m 385 63 l 206 63 l 744 910 l 922 910 l 385 63 m 179 685 q 197 601 179 632 q 244 571 215 571 q 311 685 311 571 q 294 768 311 744 q 244 792 278 792 q 179 685 179 792 m 56 692 q 56 739 56 692 q 105 848 56 786 q 246 910 154 910 q 386 848 338 910 q 435 690 435 786 q 387 531 435 594 q 247 468 339 468 q 105 533 154 468 q 56 692 56 597 m 894 385 q 845 361 861 385 q 829 281 829 338 q 847 194 829 224 q 894 164 864 164 q 942 192 925 164 q 960 278 960 221 q 894 385 960 385 m 754 442 q 778 472 754 442 q 894 503 803 503 q 1035 441 986 503 q 1083 283 1083 379 q 1036 124 1083 188 q 897 61 989 61 q 755 126 804 61 q 706 285 706 190 q 754 442 706 381 m 1326 385 q 1309 385 1326 385 q 1276 361 1293 385 q 1260 281 1260 338 q 1278 194 1260 224 q 1326 164 1296 164 q 1390 275 1390 164 q 1374 361 1390 338 q 1326 385 1358 385 m 1185 442 q 1210 472 1185 442 q 1326 503 1235 503 q 1466 441 1418 503 q 1514 283 1514 379 q 1467 124 1514 188 q 1327 61 1419 61 q 1185 126 1235 61 q 1136 285 1136 190 q 1185 442 1136 381 z "},"‹":{"ha":694,"x_min":169,"x_max":503,"o":"m 169 488 l 426 776 l 503 738 l 344 488 l 503 238 l 426 196 l 169 488 z "},"›":{"ha":694,"x_min":190,"x_max":524,"o":"m 267 839 l 524 550 l 267 258 l 190 300 l 349 550 l 190 800 l 267 839 z "},"⁄":{"ha":696,"x_min":14,"x_max":682,"o":"m 597 1019 l 682 1019 l 99 11 l 14 11 l 597 1019 z "},"€":{"ha":836,"x_min":25,"x_max":767,"o":"m 381 514 l 382 469 l 638 469 q 638 460 638 464 q 617 376 638 418 l 393 376 q 582 188 432 188 q 726 247 654 188 l 767 192 q 508 44 658 44 q 285 130 382 44 q 157 376 188 215 l 31 376 q 51 469 31 424 l 146 469 q 144 512 144 483 q 146 553 144 540 l 25 553 q 46 646 25 600 l 156 646 q 285 897 186 810 q 513 983 383 983 q 757 892 643 983 l 726 814 q 582 840 657 840 q 393 646 428 840 l 646 646 q 646 636 646 640 q 625 553 646 594 l 382 553 l 381 514 z "},"₹":{"ha":803,"x_min":82,"x_max":819,"o":"m 581 515 q 347 261 581 289 q 590 -11 396 188 l 458 -87 q 337 60 428 -51 q 228 194 246 171 q 179 258 210 218 q 82 394 128 325 l 154 465 q 268 414 206 414 q 367 448 331 414 q 404 538 404 482 l 404 549 l 97 544 l 97 690 l 404 686 l 404 793 l 96 789 l 96 936 l 746 936 l 819 789 l 581 793 l 581 686 l 751 690 l 819 544 l 581 549 l 581 515 z "},"™":{"ha":1231,"x_min":42,"x_max":1175,"o":"m 474 965 q 479 892 479 928 q 478 833 479 856 q 436 829 453 826 q 416 898 432 879 q 368 917 400 917 l 322 917 l 322 519 q 375 513 342 513 q 371 468 375 486 l 147 468 q 153 513 147 499 q 200 557 200 518 l 200 917 l 151 917 q 104 898 119 917 q 85 829 89 879 q 43 833 65 826 q 42 890 42 857 q 47 965 42 922 l 474 965 m 1174 513 q 1175 492 1175 503 q 1174 468 1175 481 l 926 468 q 925 490 925 479 q 926 513 925 501 q 990 557 990 519 l 990 874 l 831 468 l 799 468 l 656 874 l 636 518 q 693 513 654 513 q 688 468 690 482 l 513 468 q 518 513 515 504 q 568 556 567 518 l 583 918 q 526 924 567 924 q 532 965 529 957 l 743 965 l 838 679 l 950 965 l 1147 965 q 1147 924 1149 944 q 1142 922 1146 924 q 1100 893 1106 913 q 1099 878 1099 886 l 1115 515 q 1174 513 1133 513 z "},"−":{"ha":942,"x_min":104,"x_max":838,"o":"m 838 408 l 176 408 l 104 553 l 104 567 l 765 567 l 838 421 l 838 408 z "},"◌":{"ha":917,"x_min":61,"x_max":856,"o":"m 254 656 q 241 656 254 656 q 210 673 228 656 q 193 717 193 690 q 210 762 193 744 q 254 779 228 779 q 298 762 281 779 q 315 717 315 744 q 298 673 315 690 q 254 656 281 656 m 97 522 q 88 530 97 522 q 79 565 79 539 q 97 609 79 592 q 142 626 115 626 q 186 609 168 626 q 204 565 204 592 q 186 522 204 539 q 142 504 168 504 q 97 522 115 504 m 78 347 q 70 356 78 347 q 61 390 61 364 q 78 435 61 417 q 122 453 96 453 q 166 435 149 453 q 183 391 183 418 q 166 347 183 364 q 122 331 149 331 q 78 347 96 331 m 150 185 q 142 194 150 185 q 133 229 133 203 q 151 273 133 256 q 194 290 168 290 q 238 273 221 290 q 256 229 256 256 q 238 185 256 203 q 194 168 221 168 q 150 185 167 168 m 336 61 q 323 61 336 61 q 292 79 310 61 q 274 124 274 97 q 292 168 274 150 q 336 186 310 186 q 380 168 363 186 q 397 124 397 150 q 380 79 397 97 q 336 61 363 61 m 467 58 q 458 67 467 58 q 450 103 450 75 q 467 147 450 131 q 511 164 483 164 q 556 147 539 164 q 574 103 574 129 q 556 59 574 76 q 511 42 539 42 q 467 58 483 42 m 635 133 q 627 141 635 133 q 618 176 618 150 q 635 220 618 203 q 679 238 653 238 q 724 220 706 238 q 742 176 742 203 q 724 133 742 150 q 679 115 706 115 q 635 133 653 115 m 738 269 q 728 277 738 269 q 719 313 719 286 q 738 357 719 339 q 781 375 756 375 q 824 357 807 375 q 842 313 842 339 q 824 269 842 286 q 781 251 807 251 q 738 269 756 251 m 750 455 q 742 464 750 455 q 733 499 733 472 q 750 542 733 525 q 794 560 767 560 q 838 542 821 560 q 856 499 856 525 q 838 455 856 472 q 794 438 821 438 q 750 455 767 438 m 681 619 q 673 627 681 619 q 664 663 664 636 q 681 707 664 689 q 725 725 699 725 q 769 708 751 725 q 786 663 786 690 q 769 619 786 636 q 725 601 751 601 q 681 619 699 601 m 594 696 q 581 696 594 696 q 550 714 568 696 q 532 758 532 732 q 549 801 532 783 q 594 819 567 819 q 638 802 621 819 q 654 758 654 785 q 637 714 654 732 q 594 696 619 696 m 374 733 q 366 742 374 733 q 357 778 357 750 q 374 822 357 806 q 418 839 392 839 q 462 822 444 839 q 479 778 479 806 q 462 733 479 750 q 418 717 444 717 q 374 733 392 717 z "},"ﬁ":{"ha":936,"x_min":35,"x_max":886,"o":"m 886 142 q 886 114 886 133 q 881 63 886 94 l 499 63 q 499 95 499 74 q 506 142 499 117 q 571 166 549 149 q 593 224 593 183 l 593 603 l 344 603 l 344 163 q 436 142 379 142 q 436 114 436 133 q 431 63 436 94 l 35 63 q 35 95 35 74 q 42 142 35 117 q 107 166 85 149 q 129 224 129 183 l 129 594 q 51 600 104 600 q 50 631 50 613 q 54 669 50 649 q 129 697 92 689 l 129 768 q 216 981 129 906 q 453 1056 303 1056 q 713 1001 604 1056 q 821 872 821 946 q 786 798 821 826 q 707 769 751 769 q 635 790 663 769 q 588 839 607 810 q 550 897 569 868 q 435 965 504 965 q 429 965 432 965 q 344 857 344 964 l 344 700 q 808 715 629 704 l 808 156 q 886 142 842 142 z "},"ﬂ":{"ha":935,"x_min":35,"x_max":886,"o":"m 885 142 q 886 117 886 135 q 879 63 886 100 l 497 63 q 497 95 497 74 q 504 142 497 117 q 569 166 547 149 q 592 224 592 183 l 592 921 q 472 954 538 954 q 344 847 344 954 l 344 701 q 510 715 435 704 q 496 603 510 646 l 344 603 l 344 156 q 422 142 378 142 q 422 117 422 135 q 417 63 422 100 l 35 63 q 35 95 35 74 q 42 142 35 117 q 107 166 85 149 q 129 224 129 183 l 129 594 q 51 600 104 600 q 50 631 50 613 q 54 669 50 649 q 129 697 92 689 l 129 758 q 168 909 129 846 q 275 1006 207 972 q 582 1068 403 1068 q 807 1039 704 1068 l 807 156 q 885 142 840 142 z "}," ":{"ha":347,"x_min":0,"x_max":0,"o":""}}}
